<svg width="25" height="28" viewBox="0 0 25 28" fill="none" xmlns="http://www.w3.org/2000/svg">
<mask id="mask0_1_691" style="mask-type:alpha" maskUnits="userSpaceOnUse" x="0" y="0" width="25" height="28">
<path fill-rule="evenodd" clip-rule="evenodd" d="M0 0H25V27.5H0V0Z" fill="white"/>
</mask>
<g mask="url(#mask0_1_691)">
<path fill-rule="evenodd" clip-rule="evenodd" d="M14.2895 18.2745C15.7578 18.2745 16.953 19.5188 16.953 21.0482V24.9817C16.953 25.3103 17.2042 25.5738 17.5261 25.5814H19.8506C21.6823 25.5814 23.1713 24.0392 23.1713 22.1441V10.9881C23.1628 10.3359 22.8664 9.72209 22.3579 9.31416L14.3176 2.59038C13.2383 1.69396 11.7285 1.69396 10.6456 2.59293L2.66014 9.31161C2.13209 9.73232 1.83574 10.3461 1.82965 11.0098V22.1441C1.82965 24.0392 3.31869 25.5814 5.15041 25.5814H7.49677C7.82727 25.5814 8.09556 25.3065 8.09556 24.9689C8.09556 24.8947 8.1041 24.8206 8.11873 24.7502V21.0482C8.11873 19.5277 9.30655 18.2848 10.7639 18.2745H14.2895ZM19.8499 27.5001H17.5036C16.1597 27.4668 15.1231 26.3607 15.1231 24.9822V21.0487C15.1231 20.5768 14.7487 20.1932 14.2889 20.1932H10.7694C10.3194 20.1957 9.94741 20.5806 9.94741 21.0487V24.9694C9.94741 25.0653 9.93522 25.1574 9.90961 25.2443C9.7779 26.5103 8.74618 27.5001 7.49617 27.5001H5.14981C2.30953 27.5001 -0.000244141 25.0973 -0.000244141 22.1446V11.0014C0.0119511 9.73025 0.570493 8.56657 1.53514 7.80058L9.50473 1.09343C11.2596 -0.364374 13.7048 -0.364374 15.456 1.09087L23.4829 7.80442C24.4256 8.55762 24.9841 9.71874 25 10.9745V22.1446C25 25.0973 22.6902 27.5001 19.8499 27.5001V27.5001Z" fill="#232440"/>
</g>
</svg>
