<svg width="20" height="16" viewBox="0 0 20 16" fill="none" xmlns="http://www.w3.org/2000/svg">
<path fill-rule="evenodd" clip-rule="evenodd" d="M15.657 7.0589L11.9071 2.89232C11.6138 2.56649 11.1398 2.56649 10.8466 2.89232C10.5533 3.21815 10.5533 3.7448 10.8466 4.07063L13.3163 6.81474H4.62694C4.2122 6.81474 3.87695 7.18806 3.87695 7.64805C3.87695 8.10804 4.2122 8.48137 4.62694 8.48137H13.3163L10.8466 11.2255C10.5533 11.5513 10.5533 12.078 10.8466 12.4038C10.9928 12.5663 11.1848 12.6479 11.3768 12.6479C11.5688 12.6479 11.7608 12.5663 11.9071 12.4038L15.657 8.23721C15.9503 7.91138 15.9503 7.38473 15.657 7.0589Z" fill="#665AF0"/>
</svg>
