<svg width="375" height="223" viewBox="0 0 375 223" fill="none" xmlns="http://www.w3.org/2000/svg">
<g clip-path="url(#clip0_51_153)">
<path d="M-308 400.228H660.992V-301.526H-308V400.228Z" fill="#562ADD"/>
<g opacity="0.800003">
<g opacity="0.800003">
<path opacity="0.800003" d="M103.667 436.317C96.208 423.744 93.5814 406.38 101.426 394.085C109.773 381.003 126.429 378.144 141.071 378.764C155.713 379.386 170.999 382.204 184.577 376.223C198.158 370.241 207.899 350.595 198.836 338.087C193.214 330.328 183.205 328.696 175.049 324.341C149.929 310.924 145.459 273.833 150.025 243.833C154.592 213.831 164.731 182.927 156.437 153.886C147.048 121.02 115.605 100.298 84.2467 95.4297C52.8875 90.5595 21.1847 98.4543 -9.74164 105.9C-40.6693 113.347 -72.6796 120.412 -103.788 113.922C-134.897 107.433 -165.171 84.0024 -171.631 50.314C-176.292 25.9954 -168.099 0.970825 -157.815 -21.2144C-147.531 -43.4011 -134.884 -64.7499 -129.662 -88.9338C-118.066 -142.619 -148.432 -200.899 -193.875 -225.471C-239.318 -250.045 -295.535 -243.925 -340.266 -217.853C-340.266 -216.976 -341 -213.304 -341 -212.427V418.13L72.8514 415.361C76.1744 426.414 93.124 438.328 103.667 436.317Z" fill="#4820C6"/>
</g>
<g opacity="0.800003">
<path opacity="0.800003" d="M734.829 457.678L734.571 134.486C708.904 131.08 686.266 150.861 664.899 166.68C623.964 196.984 573.512 216.461 524.824 206.535C510.446 203.603 496.207 197.977 485.034 187.717C464.03 168.434 457.398 136.866 443.731 110.942C399.599 27.2173 274.519 13.2679 230.717 105.243C214.24 139.838 215.559 183.098 232.26 217.297C241.121 235.448 251.596 250.727 259.428 269.776C268.306 291.369 274.99 314.607 272.306 338.518C268.072 376.245 238.515 408.875 203.859 414.082L204.49 448.278C203.659 448.278 202.828 442.756 202 442.756H705.189C709.608 447.586 715.26 459.14 720.99 461.904C726.721 464.666 730.01 462.033 734.829 457.678Z" fill="#3C17AF"/>
</g>
</g>
<path d="M75.2332 487.653C90.0601 446.338 87.1622 397.961 67.533 359.081C44.8547 314.166 2.16867 285.338 -44.7706 281.168C-93.0497 276.88 -137.405 277.224 -166.189 225.446C-189.114 184.204 -181.38 135.746 -211.228 95.638C-253.393 38.9769 -339.654 15.0766 -399.479 52.8843C-425.958 69.6169 -412.862 109.159 -413.387 137.958C-412.883 161.242 -411.654 184.521 -408.696 207.586V486.807L75.2332 487.653Z" fill="#F0A9FF"/>
<path d="M740.381 137.904C692.554 136.857 639.821 122.857 613.451 79.5015C602.363 61.2727 597.121 39.5422 594.394 17.8944C588.595 -28.1266 593.352 -75.4052 584.823 -120.924C576.292 -166.441 549.157 -212.948 507.096 -221.321C461.472 -230.403 417.255 -192.045 371.091 -196.942C338.511 -200.398 309.753 -226.663 297.934 -259.825C286.115 -292.986 290.32 -331.588 305.993 -362.807C305.507 -362.278 306.284 -366.348 305.798 -365.821H765.882L768.206 108.074C774.462 114.65 774.82 113.107 769.894 120.902C762.272 132.957 753.838 138.199 740.381 137.904Z" fill="#F0A9FF"/>
<path d="M160.473 -353.199C174.221 -320.072 218.651 -309.505 227.33 -274.412C237.813 -232.012 191.252 -200.955 161.47 -185.808C133.085 -171.37 102.538 -162.071 75.0506 -145.712C34.6049 -121.639 20.2599 -79.4659 -8.60059 -43.4505C-34.8293 -10.7193 -67.6032 18.1523 -106.599 27.5699C-168.607 42.5439 -232.603 -5.26523 -233.333 -75.4014C-233.713 -111.946 -215.307 -151.599 -227.983 -187.166C-243.17 -229.776 -291.104 -232.985 -324.731 -217.029C-325.718 -217.029 -327.52 -213.709 -328.508 -213.709V-344.075L160.473 -353.199Z" fill="#F0A9FF"/>
<path d="M743.213 161.851C727.441 179.269 703.275 183.718 680.793 184.437C646.242 185.541 615.699 175.604 583.007 163.829C557.697 154.714 532.142 145.599 505.636 142.449C479.131 139.301 451.257 142.528 428.076 156.844C396.632 176.26 378.149 219.312 385.592 257.86C389.685 279.06 396.866 300.239 394.541 321.753C392.105 344.312 379.256 364.314 363.266 378.95C341.727 398.664 314.855 408.01 293.7 428.175C283.995 437.427 274.788 448.324 269.81 461.464C268.345 465.331 262.032 500.55 269.588 500.57C269.591 500.57 750.898 501.756 750.898 501.756L743.213 161.851Z" fill="#F0A9FF"/>
<path d="M-375.775 -105.232C-330.17 -142.028 -272.966 -148.85 -218.713 -134.704C-193.21 -128.054 -164.174 -118.146 -142.282 -102.446C-101.948 -73.5182 -62.9013 -38.6704 -17.2475 -18.895C27.1595 0.338684 87.3804 1.84044 120.414 -41.7946C141.299 -69.382 144.316 -109.288 134.83 -143.487C120.935 -193.58 78.4308 -224.06 70.839 -276.193C64.1168 -322.349 78.0225 -372.534 109.762 -404.684" stroke="#3ADDD9" stroke-width="5.33333" stroke-miterlimit="10"/>
<path d="M103.145 418.835C67.7998 419.822 32.345 416.13 -2.18338 407.869C-28.1382 401.659 -53.9521 392.675 -76.04 376.62C-128.497 338.492 -152.771 266.439 -203.891 226.226C-215.757 216.891 -228.848 209.483 -242.435 203.534C-262.641 194.688 -284.027 189.029 -305.716 186.789C-326.517 184.64 -348.025 185.52 -367.579 177.523C-389.403 168.596 -407.067 148.421 -414.178 124.296C-415.324 124.311 -418.806 127.743 -419.952 127.76C-420.362 135.245 -420.346 142.759 -419.863 150.237L-432.442 422.171C-433.193 421.712 -435.048 422.095 -435.907 422.049L101.792 451.403C98.3683 443.534 100.295 426.97 103.145 418.835Z" fill="#FFB389"/>
<path d="M280.221 -332.114C223.338 -300.225 227.724 -211.223 279.257 -177.091C302.749 -161.53 330.851 -156.48 358.312 -154.611C386.899 -152.665 417.732 -154.814 445.701 -147.98C474.965 -140.83 501.304 -121.575 521.224 -97.5931C540.996 -73.7924 551.153 -49.2955 562.689 -20.8394C573.074 4.78028 591.585 26.5655 614.564 39.3304C655.065 61.8273 703.222 52.3831 741.39 28.5697" stroke="#3ADDD9" stroke-width="5.33333" stroke-miterlimit="10"/>
<path d="M425.003 457.169C426.76 444.856 421.173 432.827 415.401 422.059C402.579 398.143 387.894 375.266 377.764 349.873C367.632 324.479 362.286 295.64 369.207 269.005C376.747 239.99 398.33 216.854 423.48 204.106C448.628 191.358 477.053 188.027 504.79 189.05C531.086 190.019 557.168 194.725 583.459 195.868C609.748 197.014 636.903 194.358 660.418 181.533C692.837 163.852 715.394 126.511 717.425 87.1652" stroke="#FDFFFF" stroke-width="2.66667" stroke-miterlimit="10"/>
<path d="M-433 -19.4696C-369.949 -43.704 -295.902 -31.8177 -259.106 34.2693C-227.36 91.284 -254.8 154.445 -249.195 215.618C-244.118 271.043 -209.869 323.033 -165.003 349.09C-69.7056 404.438 13.8913 328.212 102.476 296.84C169.715 273.027 246.784 277.525 307.353 317.159C367.922 356.794 408.586 433.511 401.807 509.904" stroke="#3ADDD9" stroke-width="5.33333" stroke-miterlimit="10"/>
<path d="M-432.963 -37.309C-369.912 -61.5434 -295.865 -49.6571 -259.069 16.43C-227.323 73.4447 -254.763 136.605 -249.158 197.779C-244.081 253.203 -209.832 305.193 -164.966 331.251C-69.6685 386.598 13.9284 310.372 102.513 279.001C169.752 255.188 246.821 259.686 307.39 299.32C367.959 338.955 408.624 415.672 401.844 492.065" stroke="#3ADDD9" stroke-width="5.33333" stroke-miterlimit="10"/>
<path d="M-433 -27.8906C-369.949 -52.125 -295.902 -40.2386 -259.106 25.8484C-227.36 82.8631 -254.8 146.024 -249.195 207.197C-244.118 262.622 -209.869 314.612 -165.003 340.669C-69.7056 396.017 13.8913 319.791 102.476 288.42C169.715 264.606 246.784 269.104 307.353 308.738C367.922 348.373 408.586 425.09 401.807 501.483" stroke="#3ADDD9" stroke-width="5.33333" stroke-miterlimit="10"/>
<path d="M334.203 214.375H332.125V211.422C332.125 210.638 331.487 210 330.703 210H327.422C326.638 210 326 210.638 326 211.422V214.703C326 215.487 326.638 216.125 327.422 216.125H330.375V218.203C330.375 218.987 331.013 219.625 331.797 219.625H334.203C334.987 219.625 335.625 218.987 335.625 218.203V215.797C335.625 215.013 334.987 214.375 334.203 214.375ZM327.75 211.75H330.375V214.375H327.75V211.75ZM333.875 217.875H332.125V216.125H333.875V217.875Z" fill="#FEBC11"/>
</g>
<defs>
<clipPath id="clip0_51_153">
<path d="M0 31C0 13.8792 13.8792 0 31 0H375V203C375 214.046 366.046 223 355 223H20C8.95431 223 0 214.046 0 203V31Z" fill="white"/>
</clipPath>
</defs>
</svg>
