<svg width="41" height="39" viewBox="0 0 41 39" fill="none" xmlns="http://www.w3.org/2000/svg">
<rect width="40.1081" height="38.6757" rx="5" fill="white"/>
<path d="M28.8146 20.3563L16.9259 18.6006L18.502 25.2769L28.8146 20.3563Z" fill="#D12053"/>
<path d="M28.8138 20.3564L19.8553 8.62646L16.9274 18.6029L28.8138 20.3564Z" fill="#E2136E"/>
<path d="M16.6493 18.4674L7.26259 7.16211L19.5548 8.54596L16.6493 18.4674Z" fill="#D12053"/>
<path d="M12.3745 13.7428L7.16214 9.11377H8.53417L12.3745 13.7428Z" fill="#9E1638"/>
<path d="M31.3505 14.6538L29.1445 20.2927L25.5687 15.632L31.3505 14.6538Z" fill="#D12053"/>
<path d="M19.8891 24.9386L28.5449 21.6617L28.9081 20.6201L19.8891 24.9386Z" fill="#E2136E"/>
<path d="M12.9672 31.1224L16.6753 18.8643L18.5562 26.8399L12.9672 31.1224Z" fill="#9E1638"/>
<path d="M31.6943 14.6982L30.7841 17.0265L34.0662 16.9758L31.6943 14.6982Z" fill="#E2136E"/>
</svg>
