<svg width="318" height="166" viewBox="0 0 318 166" fill="none" xmlns="http://www.w3.org/2000/svg">
<path d="M229.754 86.8257C229.703 86.8257 229.654 86.8101 229.612 86.781L160.715 38.7216C160.505 38.5761 160.256 38.4983 160.001 38.4987C159.746 38.4991 159.497 38.5778 159.288 38.7241L90.887 86.7805C90.8329 86.8185 90.7659 86.8334 90.7009 86.822C90.6358 86.8105 90.5779 86.7736 90.5399 86.7195C90.502 86.6653 90.4871 86.5982 90.4985 86.533C90.5099 86.4678 90.5467 86.4098 90.6008 86.3718L159.002 38.3154C159.295 38.1107 159.643 38.0006 160 38C160.357 37.9994 160.706 38.1083 161 38.3121L229.897 86.3713C229.94 86.4017 229.973 86.4452 229.99 86.4955C230.007 86.5458 230.008 86.6002 229.992 86.6509C229.976 86.7016 229.945 86.7459 229.902 86.7773C229.859 86.8088 229.807 86.8257 229.754 86.8257L229.754 86.8257Z" fill="#3F3D56"/>
<path d="M94.7957 88.5291L160.069 40.0757L225.837 91.9768L163.432 129.031L129.551 121.296L94.7957 88.5291Z" fill="#E6E6E6"/>
<path d="M132.411 151.918H100.164C99.9665 151.919 99.7704 151.88 99.5874 151.804C99.4044 151.728 99.238 151.617 99.0979 151.477C98.9578 151.337 98.8467 151.17 98.7709 150.987C98.695 150.804 98.656 150.608 98.656 150.409C98.656 150.211 98.695 150.015 98.7709 149.831C98.8467 149.648 98.9578 149.482 99.0979 149.342C99.238 149.202 99.4044 149.09 99.5874 149.015C99.7704 148.939 99.9665 148.9 100.164 148.9H132.411C132.609 148.9 132.805 148.939 132.988 149.015C133.171 149.09 133.337 149.202 133.478 149.342C133.618 149.482 133.729 149.648 133.805 149.831C133.88 150.015 133.919 150.211 133.919 150.409C133.919 150.608 133.88 150.804 133.805 150.987C133.729 151.17 133.618 151.337 133.478 151.477C133.337 151.617 133.171 151.728 132.988 151.804C132.805 151.88 132.609 151.919 132.411 151.918Z" fill="#6C63FF"/>
<path d="M111.734 145.431H100.164C99.9665 145.431 99.7704 145.392 99.5874 145.316C99.4044 145.241 99.238 145.129 99.0979 144.989C98.9578 144.849 98.8467 144.683 98.7709 144.499C98.695 144.316 98.656 144.12 98.656 143.922C98.656 143.723 98.695 143.527 98.7709 143.344C98.8467 143.16 98.9578 142.994 99.0979 142.854C99.238 142.714 99.4044 142.603 99.5874 142.527C99.7704 142.451 99.9665 142.412 100.164 142.413H111.734C111.932 142.412 112.128 142.451 112.311 142.527C112.494 142.603 112.66 142.714 112.8 142.854C112.94 142.994 113.052 143.16 113.127 143.344C113.203 143.527 113.242 143.723 113.242 143.922C113.242 144.12 113.203 144.316 113.127 144.499C113.052 144.683 112.94 144.849 112.8 144.989C112.66 145.129 112.494 145.241 112.311 145.316C112.128 145.392 111.932 145.431 111.734 145.431Z" fill="#6C63FF"/>
<path d="M160.987 115.517C160.741 115.517 160.499 115.47 160.272 115.377L120.016 98.6466V46.2779C120.016 45.8148 120.2 45.3709 120.527 45.0434C120.854 44.716 121.297 44.5318 121.76 44.5312H198.988C199.45 44.5318 199.893 44.716 200.22 45.0434C200.547 45.3709 200.731 45.8148 200.732 46.2779V98.6832L200.656 98.7156L161.723 115.369C161.49 115.467 161.239 115.517 160.987 115.517Z" fill="white"/>
<path d="M160.987 115.642C160.725 115.642 160.466 115.591 160.224 115.492L119.891 98.73V46.2779C119.892 45.7818 120.089 45.3061 120.439 44.9552C120.789 44.6044 121.264 44.4071 121.76 44.4065H198.988C199.483 44.4071 199.958 44.6044 200.308 44.9552C200.659 45.3061 200.856 45.7818 200.856 46.2779V98.7656L161.772 115.483C161.523 115.588 161.256 115.642 160.987 115.642ZM120.389 98.3966L160.414 115.031C160.788 115.183 161.206 115.18 161.577 115.024L200.358 98.4361V46.2779C200.357 45.9141 200.213 45.5653 199.956 45.308C199.699 45.0507 199.351 44.906 198.988 44.9055H121.76C121.396 44.906 121.048 45.0507 120.791 45.308C120.534 45.5653 120.39 45.9141 120.389 46.2779L120.389 98.3966Z" fill="#3F3D56"/>
<path d="M229.256 86.3267H229.206L200.607 98.5584L161.477 115.294C161.324 115.358 161.16 115.392 160.994 115.393C160.829 115.394 160.664 115.362 160.511 115.299L120.14 98.5234L90.8385 86.3466L90.7937 86.3267H90.7439C90.2815 86.3272 89.8383 86.5114 89.5113 86.8388C89.1844 87.1663 89.0005 87.6102 89 88.0733V163.929C89.0005 164.392 89.1844 164.836 89.5113 165.163C89.8383 165.491 90.2815 165.675 90.7439 165.675H229.256C229.718 165.675 230.162 165.491 230.489 165.163C230.816 164.836 230.999 164.392 231 163.929V88.0733C230.999 87.6102 230.816 87.1663 230.489 86.8388C230.162 86.5114 229.718 86.3272 229.256 86.3267ZM230.502 163.929C230.502 164.26 230.37 164.577 230.137 164.811C229.903 165.045 229.586 165.176 229.256 165.176H90.7439C90.4135 165.176 90.0968 165.045 89.8632 164.811C89.6297 164.577 89.4984 164.26 89.4982 163.929V88.0733C89.4987 87.7507 89.6236 87.4407 89.847 87.2082C90.0703 86.9757 90.3747 86.8387 90.6965 86.8257L120.14 99.0624L160.319 115.761C160.754 115.938 161.241 115.935 161.674 115.753L200.607 99.0998L229.306 86.8257C229.627 86.8396 229.931 86.977 230.154 87.2094C230.376 87.4418 230.501 87.7512 230.502 88.0733V163.929Z" fill="#3F3D56"/>
<path d="M160.584 100.667C159.098 100.67 157.651 100.189 156.462 99.296L156.388 99.2405L140.865 87.3363C140.146 86.7846 139.543 86.0965 139.09 85.3112C138.636 84.5259 138.342 83.6589 138.223 82.7596C138.104 81.8603 138.163 80.9464 138.397 80.07C138.631 79.1936 139.035 78.3719 139.586 77.6519C140.136 76.9318 140.823 76.3275 141.607 75.8734C142.391 75.4192 143.257 75.1242 144.155 75.0052C145.053 74.8862 145.965 74.9454 146.84 75.1796C147.715 75.4137 148.535 75.8182 149.254 76.3699L159.309 84.0922L183.07 53.0546C183.621 52.3347 184.308 51.7306 185.092 51.2768C185.877 50.8229 186.742 50.5282 187.64 50.4095C188.538 50.2908 189.45 50.3504 190.325 50.5849C191.2 50.8194 192.02 51.2242 192.739 51.7762L192.591 51.9771L192.743 51.7791C194.193 52.8951 195.141 54.5415 195.381 56.3572C195.62 58.1728 195.13 60.0094 194.019 61.464L166.071 97.9716C165.425 98.8129 164.593 99.4937 163.642 99.9612C162.69 100.429 161.644 100.67 160.584 100.667Z" fill="#6C63FF"/>
<path opacity="0.6" d="M260.365 103.612L281.793 97.2244L281.428 95.9999L260 102.388L260.365 103.612Z" fill="#6C63FF"/>
<path d="M115.159 12.5063L55 30.4404L65.6478 66.1576L125.806 48.2235L115.159 12.5063Z" fill="white"/>
<path opacity="0.6" d="M31.365 159.612L52.793 153.224L52.4279 152L31 158.388L31.365 159.612Z" fill="#6C63FF"/>
<path opacity="0.6" d="M156.365 7.6123L177.793 1.22437L177.428 -8.371e-05L156 6.38785L156.365 7.6123Z" fill="#6C63FF"/>
<path opacity="0.6" d="M48.365 159.613L69.793 153.225L69.4279 152L48 158.388L48.365 159.613Z" fill="#6C63FF"/>
<path opacity="0.6" d="M173.365 7.61254L194.793 1.22461L194.428 0.000160431L173 6.38809L173.365 7.61254Z" fill="#6C63FF"/>
<path opacity="0.25" d="M242 39.6405H234.529V33H231.471V39.6405H224V42.3595H231.471V49H234.529V42.3595H242V39.6405Z" fill="url(#paint0_angular_35_618)" fill-opacity="0.99"/>
<path opacity="0.25" d="M123 33.6405H115.529V27H112.471V33.6405H105V36.3595H112.471V43H115.529V36.3595H123V33.6405Z" fill="#535461"/>
<path opacity="0.25" d="M73 8.57474H68.4347V4H66.5747L64 5L62 8.57474V10.4347H66.5747V15H68.4347L73.5 11L73 10.4347V8.57474Z" fill="#633D4F" fill-opacity="0.99"/>
<path opacity="0.25" d="M265 125.575H260.435V121H258.575L256 122L254 125.575V127.435H258.575V132H260.435L265.5 128L265 127.435V125.575Z" fill="#633D4F" fill-opacity="0.99"/>
<path opacity="0.25" d="M263 10.5747H258.435V6H256.575L254 7L252 10.5747V12.4347H256.575V17H258.435L263.5 13L263 12.4347V10.5747Z" fill="url(#paint1_angular_35_618)" fill-opacity="0.99"/>
<path opacity="0.25" d="M11 133.575H6.43467V129H4.57472L2 130L0 133.575V135.435H4.57472V140H6.43467L11.5 136L11 135.435V133.575Z" fill="#633D4F" fill-opacity="0.99"/>
<path opacity="0.25" d="M79 61.0747H74.4347V56.5H72.5747V61.0747H68V62.9347H72.5747V67.5H74.4347V62.9347H79V61.0747Z" fill="#535461"/>
<path opacity="0.25" d="M318 127.575H313.435V123H311.575V127.575H307V129.435H311.575V134H313.435V129.435H318V127.575Z" fill="#6C63FF"/>
<path opacity="0.25" d="M287 64.5747H282.435V60H280.575V64.5747H276V66.4347H280.575V71H282.435V66.4347H287V64.5747Z" fill="url(#paint2_angular_35_618)" fill-opacity="0.99"/>
<path opacity="0.25" d="M37 63.0747H32.4347V58.5H30.5747V63.0747H26V64.9347H30.5747V69.5H32.4347V64.9347H37V63.0747Z" fill="#633D4F" fill-opacity="0.99"/>
<defs>
<radialGradient id="paint0_angular_35_618" cx="0" cy="0" r="1" gradientUnits="userSpaceOnUse" gradientTransform="translate(233 41) rotate(90) scale(8 9)">
<stop stop-color="#030201"/>
<stop offset="1" stop-color="#030201" stop-opacity="0"/>
</radialGradient>
<radialGradient id="paint1_angular_35_618" cx="0" cy="0" r="1" gradientUnits="userSpaceOnUse" gradientTransform="translate(257.75 11.5) rotate(90) scale(5.5 5.75)">
<stop stop-color="#030201"/>
<stop offset="1" stop-color="#030201" stop-opacity="0"/>
</radialGradient>
<radialGradient id="paint2_angular_35_618" cx="0" cy="0" r="1" gradientUnits="userSpaceOnUse" gradientTransform="translate(281.5 65.5) rotate(90) scale(5.5)">
<stop stop-color="#030201"/>
<stop offset="1" stop-color="#030201" stop-opacity="0"/>
</radialGradient>
</defs>
</svg>
