<svg width="375" height="251" viewBox="0 0 375 251" fill="none" xmlns="http://www.w3.org/2000/svg">
<path d="M360.199 40.6045C358.652 40.6045 357.398 39.3499 357.398 37.8033C357.398 36.2545 358.652 35 360.199 35C361.745 35 363 36.2545 363 37.8033C363 39.3499 361.745 40.6045 360.199 40.6045Z" fill="#61CAFF"/>
<path d="M360.199 57.6783C358.652 57.6783 357.398 56.4238 357.398 54.8771C357.398 53.3284 358.652 52.0739 360.199 52.0739C361.745 52.0739 363 53.3284 363 54.8771C363 56.4238 361.745 57.6783 360.199 57.6783Z" fill="#61CAFF"/>
<path d="M360.199 74.7527C358.652 74.7527 357.398 73.4981 357.398 71.9515C357.398 70.4027 358.652 69.1482 360.199 69.1482C361.745 69.1482 363 70.4027 363 71.9515C363 73.4981 361.745 74.7527 360.199 74.7527Z" fill="#61CAFF"/>
<path d="M360.199 91.8266C358.652 91.8266 357.398 90.572 357.398 89.0254C357.398 87.4767 358.652 86.2221 360.199 86.2221C361.745 86.2221 363 87.4767 363 89.0254C363 90.572 361.745 91.8266 360.199 91.8266Z" fill="#61CAFF"/>
<path d="M360.199 108.9C358.652 108.9 357.398 107.646 357.398 106.099C357.398 104.551 358.652 103.296 360.199 103.296C361.745 103.296 363 104.551 363 106.099C363 107.646 361.745 108.9 360.199 108.9Z" fill="#61CAFF"/>
<path d="M344.001 40.6045C342.454 40.6045 341.198 39.3499 341.198 37.8033C341.198 36.2545 342.454 35 344.001 35C345.548 35 346.802 36.2545 346.802 37.8033C346.802 39.3499 345.548 40.6045 344.001 40.6045Z" fill="#61CAFF"/>
<path d="M344.001 57.6783C342.454 57.6783 341.198 56.4238 341.198 54.8771C341.198 53.3284 342.454 52.0739 344.001 52.0739C345.548 52.0739 346.802 53.3284 346.802 54.8771C346.802 56.4238 345.548 57.6783 344.001 57.6783Z" fill="#61CAFF"/>
<path d="M344.001 74.7527C342.454 74.7527 341.198 73.4981 341.198 71.9515C341.198 70.4027 342.454 69.1482 344.001 69.1482C345.548 69.1482 346.802 70.4027 346.802 71.9515C346.802 73.4981 345.548 74.7527 344.001 74.7527Z" fill="#61CAFF"/>
<path d="M344.001 91.8266C342.454 91.8266 341.198 90.572 341.198 89.0254C341.198 87.4767 342.454 86.2221 344.001 86.2221C345.548 86.2221 346.802 87.4767 346.802 89.0254C346.802 90.572 345.548 91.8266 344.001 91.8266Z" fill="#61CAFF"/>
<path d="M344.001 108.9C342.454 108.9 341.198 107.646 341.198 106.099C341.198 104.551 342.454 103.296 344.001 103.296C345.548 103.296 346.802 104.551 346.802 106.099C346.802 107.646 345.548 108.9 344.001 108.9Z" fill="#61CAFF"/>
<path d="M344.001 125.975C342.454 125.975 341.198 124.72 341.198 123.174C341.198 121.625 342.454 120.37 344.001 120.37C345.548 120.37 346.802 121.625 346.802 123.174C346.802 124.72 345.548 125.975 344.001 125.975Z" fill="#61CAFF"/>
<path d="M327.801 57.6783C326.255 57.6783 325 56.4238 325 54.8771C325 53.3284 326.255 52.0739 327.801 52.0739C329.348 52.0739 330.604 53.3284 330.604 54.8771C330.604 56.4238 329.348 57.6783 327.801 57.6783Z" fill="#61CAFF"/>
<path d="M327.801 74.7527C326.255 74.7527 325 73.4981 325 71.9515C325 70.4027 326.255 69.1482 327.801 69.1482C329.348 69.1482 330.604 70.4027 330.604 71.9515C330.604 73.4981 329.348 74.7527 327.801 74.7527Z" fill="#61CAFF"/>
<path d="M327.801 91.8266C326.255 91.8266 325 90.572 325 89.0254C325 87.4767 326.255 86.2221 327.801 86.2221C329.348 86.2221 330.604 87.4767 330.604 89.0254C330.604 90.572 329.348 91.8266 327.801 91.8266Z" fill="#61CAFF"/>
<path d="M327.801 108.9C326.255 108.9 325 107.646 325 106.099C325 104.551 326.255 103.296 327.801 103.296C329.348 103.296 330.604 104.551 330.604 106.099C330.604 107.646 329.348 108.9 327.801 108.9Z" fill="#61CAFF"/>
<path d="M-16 96.1086L56.6205 23.6964L367.696 150.688V1L-16 195L391 1" stroke="#FF9100"/>
<path opacity="0.1" d="M332.202 180.796C325.174 195.293 310.905 204.987 296.117 211.38C276.208 219.989 254.284 223.404 232.661 221.96C228.872 221.708 225.094 221.305 221.327 220.751C208.246 218.843 195.493 215.129 183.433 209.716C179.952 208.149 176.542 206.437 173.202 204.582C167.624 201.491 162.279 197.995 157.211 194.124C155.936 193.151 154.679 192.153 153.439 191.13C152.579 190.421 151.728 189.696 150.863 188.993C149.038 187.509 147.16 186.099 145.065 185.044C144.433 184.725 143.785 184.439 143.124 184.187C136.49 181.664 128.841 182.616 121.935 184.584C116.682 186.081 111.561 188.131 106.313 189.593C103.979 190.264 101.601 190.769 99.1959 191.106C93.8263 191.786 88.3733 191.307 83.2044 189.702L82.7627 189.564C82.0221 189.331 81.2877 189.077 80.5594 188.8L80.1177 188.631C79.4124 188.359 78.722 188.067 78.0467 187.755L77.605 187.554C76.8997 187.226 76.2093 186.88 75.534 186.515C75.2906 186.388 75.0499 186.25 74.8119 186.12C70.9694 183.974 67.4767 181.255 64.4542 178.056C64.3669 177.969 64.2849 177.879 64.1897 177.791C63.7691 177.337 63.3565 176.874 62.9571 176.4C62.809 176.226 62.6609 176.051 62.5154 175.871C62.0411 175.293 61.5835 174.701 61.1427 174.096C61.0765 174.009 61.0131 173.919 60.9496 173.832C59.1435 171.333 57.6461 168.625 56.4902 165.767C56.4531 165.68 56.4188 165.59 56.387 165.503C56.0343 164.595 55.7125 163.672 55.4216 162.734C55.3026 162.342 55.1888 161.94 55.0883 161.549C55.0539 161.432 55.0222 161.313 54.9931 161.197C53.5331 155.449 53.3665 149.474 53.3665 143.534C53.3665 142.841 53.3665 142.149 53.3665 141.457C53.4088 131.848 53.5569 122.075 54.9746 112.598C54.9746 112.532 54.9931 112.466 55.0037 112.402C55.4782 109.212 56.1236 106.049 56.9372 102.928C57.7886 99.6531 58.8768 96.4443 60.1931 93.3269C63.4544 85.6565 68.1968 78.6764 73.4629 72.2068C86.7275 55.927 104.123 42.2604 124.484 37.1451C146.424 31.6356 170.808 36.9149 188.506 51.0047C193.902 55.3001 198.75 60.3864 204.81 63.6794C210.1 66.5466 216.291 67.7342 221.957 65.478C226.639 63.6133 229.686 62.6875 234.944 62.9706C245.829 63.5864 256.561 65.8341 266.779 69.6385C267.191 69.7893 267.604 69.9454 268.014 70.1014C294.651 80.2925 317.549 100.54 329.451 126.558C329.767 127.246 330.073 127.939 330.369 128.637C337.466 145.213 340.031 164.641 332.202 180.796Z" fill="#6C63FF"/>
<path opacity="0.1" d="M65.819 231.519C78.7148 231.519 89.1689 229.84 89.1689 227.768C89.1689 225.697 78.7148 224.018 65.819 224.018C52.9233 224.018 42.4692 225.697 42.4692 227.768C42.4692 229.84 52.9233 231.519 65.819 231.519Z" fill="#6C63FF"/>
<path d="M312.775 63.4996H68.0223C66.1978 63.4996 64.7188 64.9786 64.7188 66.8031V202.583C64.7188 204.407 66.1978 205.886 68.0223 205.886H312.775C314.599 205.886 316.078 204.407 316.078 202.583V66.8031C316.078 64.9786 314.599 63.4996 312.775 63.4996Z" fill="url(#paint0_linear_642_174)"/>
<path d="M312.404 65.5018H68.4217C66.5972 65.5018 65.1182 66.9809 65.1182 68.8054V202.109C65.1182 203.934 66.5972 205.413 68.4217 205.413H312.404C314.229 205.413 315.708 203.934 315.708 202.109V68.8054C315.708 66.9809 314.229 65.5018 312.404 65.5018Z" fill="white"/>
<path d="M312.404 65.5018H68.4217C66.5972 65.5018 65.1182 66.9809 65.1182 68.8054V202.109C65.1182 203.934 66.5972 205.413 68.4217 205.413H312.404C314.229 205.413 315.708 203.934 315.708 202.109V68.8054C315.708 66.9809 314.229 65.5018 312.404 65.5018Z" fill="white"/>
<path opacity="0.04" d="M312.404 65.5018H68.4217C66.5972 65.5018 65.1182 66.9809 65.1182 68.8054V202.109C65.1182 203.934 66.5972 205.413 68.4217 205.413H312.404C314.229 205.413 315.708 203.934 315.708 202.109V68.8054C315.708 66.9809 314.229 65.5018 312.404 65.5018Z" fill="white"/>
<path d="M314.436 63.8963H66.3904C66.053 63.8963 65.7294 64.0303 65.4908 64.2689C65.2522 64.5075 65.1182 64.8311 65.1182 65.1685V70.5458H315.698V65.1685C315.698 64.8329 315.565 64.5109 315.329 64.2726C315.092 64.0344 314.771 63.8991 314.436 63.8963Z" fill="#5A5773"/>
<path d="M70.1223 68.9403C71.0718 68.9403 71.8415 68.1706 71.8415 67.2211C71.8415 66.2716 71.0718 65.5018 70.1223 65.5018C69.1728 65.5018 68.4031 66.2716 68.4031 67.2211C68.4031 68.1706 69.1728 68.9403 70.1223 68.9403Z" fill="white"/>
<path d="M74.751 68.9403C75.7005 68.9403 76.4702 68.1706 76.4702 67.2211C76.4702 66.2716 75.7005 65.5018 74.751 65.5018C73.8015 65.5018 73.0317 66.2716 73.0317 67.2211C73.0317 68.1706 73.8015 68.9403 74.751 68.9403Z" fill="white"/>
<path d="M79.3798 68.9403C80.3293 68.9403 81.099 68.1706 81.099 67.2211C81.099 66.2716 80.3293 65.5018 79.3798 65.5018C78.4302 65.5018 77.6605 66.2716 77.6605 67.2211C77.6605 68.1706 78.4302 68.9403 79.3798 68.9403Z" fill="white"/>
<path opacity="0.2" d="M153.005 83.0511H85.7568V88.759H153.005V83.0511Z" fill="#6C63FF"/>
<path opacity="0.1" d="M295.069 105.938H85.7568V193.741H295.069V105.938Z" fill="#5A5773"/>
<path opacity="0.1" d="M166.786 137.668H163.202V130.707C163.202 122.851 156.938 116.32 149.083 116.201C147.188 116.182 145.309 116.537 143.553 117.247C141.796 117.956 140.198 119.007 138.849 120.337C137.501 121.667 136.429 123.252 135.695 124.998C134.962 126.745 134.581 128.619 134.575 130.513V137.668H130.999C129.419 137.673 127.904 138.303 126.787 139.42C125.67 140.538 125.04 142.052 125.035 143.632V172.256C125.04 173.837 125.67 175.351 126.787 176.468C127.904 177.586 129.419 178.216 130.999 178.221H166.786C168.366 178.216 169.88 177.586 170.997 176.468C172.114 175.351 172.743 173.836 172.747 172.256V143.632C172.743 142.052 172.114 140.538 170.997 139.421C169.88 138.303 168.366 137.673 166.786 137.668ZM150.982 156.275V166.527C150.985 167.07 150.782 167.594 150.414 167.993C150.046 168.392 149.54 168.635 148.998 168.675C148.715 168.688 148.433 168.644 148.168 168.545C147.903 168.446 147.661 168.294 147.456 168.099C147.251 167.904 147.088 167.669 146.977 167.409C146.866 167.149 146.808 166.869 146.808 166.586V156.27C145.84 155.798 145.061 155.012 144.598 154.041C144.134 153.069 144.014 151.969 144.256 150.92C144.498 149.871 145.089 148.935 145.931 148.265C146.774 147.595 147.818 147.23 148.895 147.23C149.971 147.23 151.016 147.595 151.859 148.265C152.701 148.935 153.292 149.871 153.534 150.92C153.776 151.969 153.656 153.069 153.192 154.041C152.729 155.012 151.949 155.798 150.982 156.27V156.275ZM159.033 137.668H138.749V130.513C138.749 127.825 139.817 125.246 141.718 123.345C143.62 121.443 146.198 120.375 148.887 120.375C151.576 120.375 154.155 121.443 156.056 123.345C157.957 125.246 159.025 127.825 159.025 130.513L159.033 137.668Z" fill="black"/>
<path d="M147.694 137.751H144.11V130.789C144.11 122.934 137.847 116.403 129.991 116.284C128.097 116.264 126.218 116.62 124.461 117.329C122.705 118.039 121.106 119.089 119.758 120.42C118.409 121.75 117.337 123.334 116.604 125.081C115.87 126.827 115.489 128.702 115.484 130.596V137.751H111.908C110.327 137.756 108.813 138.386 107.696 139.503C106.578 140.621 105.948 142.135 105.943 143.715V172.339C105.948 173.919 106.578 175.434 107.696 176.551C108.813 177.669 110.327 178.299 111.908 178.304H147.694C149.274 178.299 150.788 177.669 151.905 176.551C153.022 175.433 153.652 173.919 153.656 172.339V143.715C153.652 142.135 153.022 140.621 151.905 139.503C150.788 138.386 149.274 137.756 147.694 137.751ZM131.89 156.358V166.61C131.894 167.153 131.691 167.677 131.323 168.076C130.954 168.474 130.448 168.718 129.907 168.758C129.624 168.771 129.342 168.727 129.077 168.628C128.811 168.529 128.569 168.377 128.365 168.182C128.16 167.986 127.997 167.752 127.885 167.491C127.774 167.231 127.717 166.951 127.717 166.668V156.353C126.749 155.881 125.97 155.095 125.506 154.123C125.043 153.152 124.922 152.052 125.165 151.003C125.407 149.954 125.997 149.018 126.84 148.348C127.682 147.678 128.727 147.313 129.804 147.313C130.88 147.313 131.925 147.678 132.767 148.348C133.61 149.018 134.2 149.954 134.442 151.003C134.685 152.052 134.564 153.152 134.101 154.123C133.637 155.095 132.858 155.881 131.89 156.353V156.358ZM139.942 137.751H119.657V130.596C119.657 127.907 120.726 125.329 122.627 123.427C124.528 121.526 127.107 120.458 129.796 120.458C132.484 120.458 135.063 121.526 136.964 123.427C138.866 125.329 139.934 127.907 139.934 130.596L139.942 137.751Z" fill="#6C63FF"/>
<path opacity="0.1" d="M295.069 97.4874H273.883V102.489H295.069V97.4874Z" fill="#5A5773"/>
<path opacity="0.1" d="M292.588 163.006L292.705 167.436L291.43 168.592L290.57 157.867H292.475L292.588 163.006Z" fill="black"/>
<path opacity="0.1" d="M262.631 154.833C262.612 155.189 262.561 155.543 262.481 155.891C262.481 155.793 262.481 155.738 262.459 155.73C262.38 155.709 262.475 155.304 262.631 154.833Z" fill="black"/>
<path opacity="0.1" d="M265.075 157.867L264.205 168.584C264.205 168.584 262.901 167.402 261.214 165.863L261.415 163.964C261.415 163.964 262.126 159.298 262.385 156.997C262.503 157.303 262.656 157.595 262.84 157.867H265.075Z" fill="black"/>
<path opacity="0.1" d="M259.703 233.238C259.703 233.238 260.761 234.561 260.312 235.169C259.862 235.777 259.703 233.238 259.703 233.238Z" fill="black" stroke="#6C63FF" stroke-miterlimit="10"/>
<path opacity="0.1" d="M260.973 238.007C260.973 238.007 262.904 236.737 263.676 237.581C264.448 238.425 260.973 238.007 260.973 238.007Z" fill="black" stroke="#6C63FF" stroke-miterlimit="10"/>
<g opacity="0.1">
<path opacity="0.1" d="M271.148 114.09C271.011 114.738 270.553 115.473 269.895 115.394C269.691 115.367 269.506 115.264 269.305 115.219C268.752 115.098 268.424 115.616 267.903 115.484C267.644 115.41 267.403 115.283 267.195 115.113C266.987 114.942 266.815 114.731 266.691 114.492C266.553 114.223 266.469 113.929 266.445 113.627C266.393 114.095 266.478 114.569 266.691 114.989C266.815 115.228 266.987 115.44 267.195 115.61C267.403 115.781 267.644 115.907 267.903 115.981C268.432 116.103 268.752 115.584 269.305 115.717C269.498 115.784 269.695 115.841 269.895 115.888C270.553 115.97 271.011 115.235 271.148 114.587C271.257 114.015 271.299 113.432 271.275 112.849C271.273 113.266 271.23 113.681 271.148 114.09Z" fill="black"/>
<path opacity="0.1" d="M267.525 110.107C267.558 109.673 267.499 109.238 267.35 108.829C267.23 108.557 267.129 108.278 267.046 107.993C267.035 108.038 267.026 108.083 267.019 108.128C266.975 108.543 267.207 108.922 267.35 109.326C267.442 109.578 267.501 109.84 267.525 110.107Z" fill="black"/>
<path opacity="0.1" d="M287.732 108.713C287.608 109.464 287 110.17 286.939 110.961C286.924 111.096 286.924 111.233 286.939 111.368C287.071 110.445 287.888 109.628 287.732 108.713Z" fill="black"/>
<path opacity="0.1" d="M287.777 114.294C287.755 114.404 287.703 114.507 287.626 114.59C287.431 114.799 287.097 114.815 286.833 114.918C286.19 115.164 285.775 115.941 285.077 115.933C284.898 115.923 284.726 115.859 284.585 115.75C284.443 115.64 284.338 115.49 284.283 115.32C284.267 115.377 284.255 115.435 284.246 115.494C284.239 115.61 284.254 115.726 284.292 115.836C284.329 115.946 284.388 116.047 284.465 116.134C284.542 116.221 284.636 116.291 284.74 116.342C284.845 116.392 284.958 116.422 285.074 116.428C285.764 116.428 286.187 115.658 286.83 115.415C287.095 115.312 287.417 115.296 287.624 115.087C287.701 114.987 287.756 114.871 287.785 114.747C287.813 114.623 287.814 114.495 287.788 114.37C287.785 114.339 287.78 114.317 287.777 114.294Z" fill="black"/>
<path opacity="0.1" d="M284.46 114.074C284.394 113.593 283.812 113.397 283.506 113.016C283.317 112.766 283.215 112.462 283.215 112.149C283.193 112.641 283.201 113.143 283.506 113.513C283.81 113.884 284.273 114.042 284.421 114.423C284.458 114.311 284.472 114.192 284.46 114.074Z" fill="black"/>
</g>
<path d="M66.5702 155.925H65.0679V189.755H66.5702V155.925Z" fill="#535461"/>
<path d="M76.0126 189.652L75.9174 191.175L75.7851 193.325L75.7296 194.222L75.5974 196.375L75.5392 197.272L75.4069 199.422L73.8913 223.88C73.8267 224.933 73.363 225.921 72.5948 226.643C71.8266 227.366 70.8118 227.768 69.7573 227.768H61.8805C60.8263 227.768 59.8117 227.366 59.044 226.643C58.2762 225.921 57.8131 224.932 57.7491 223.88L56.2256 199.422L56.0933 197.272L56.0378 196.375L55.9082 194.217L55.8526 193.32L55.7204 191.17L55.6252 189.646C55.6071 189.354 55.6491 189.061 55.7487 188.785C55.8482 188.51 56.0031 188.258 56.2038 188.044C56.4045 187.831 56.6469 187.661 56.9158 187.545C57.1848 187.429 57.4746 187.369 57.7676 187.369H73.8728C74.1662 187.369 74.4564 187.429 74.7256 187.545C74.9948 187.662 75.2372 187.832 75.4378 188.046C75.6384 188.26 75.7929 188.513 75.8918 188.789C75.9907 189.065 76.0318 189.359 76.0126 189.652Z" fill="#3F3D56"/>
<path d="M75.9174 191.175L75.7852 193.325H55.85L55.7178 191.175H75.9174Z" fill="#9D9CB5"/>
<path d="M75.7296 194.222L75.5973 196.375H56.0404L55.9055 194.222H75.7296Z" fill="#9D9CB5"/>
<path d="M75.5394 197.272L75.4071 199.422H56.2311L56.0962 197.272H75.5394Z" fill="#9D9CB5"/>
<path d="M53.4247 168.605C62.1743 174.935 65.8191 184.838 65.8191 184.838C65.8191 184.838 55.2736 184.475 46.5108 178.146C37.748 171.816 34.1165 161.914 34.1165 161.914C34.1165 161.914 44.6725 162.276 53.4247 168.605Z" fill="#6C63FF"/>
<path d="M34.1296 161.914C34.1296 161.914 45.0745 167.997 48.5844 173.022C52.0943 178.048 65.819 184.84 65.819 184.84" stroke="#535461" stroke-width="2" stroke-miterlimit="10"/>
<path d="M59.0716 155.865C63.8325 159.303 65.8189 164.699 65.8189 164.699C65.8189 164.699 60.0793 164.503 55.3157 161.057C50.5521 157.61 48.571 152.223 48.571 152.223C48.571 152.223 54.3106 152.405 59.0716 155.865Z" fill="#6C63FF"/>
<path d="M48.571 152.209C48.571 152.209 54.5275 155.515 56.4372 158.253C58.3469 160.991 65.8189 164.686 65.8189 164.686" stroke="#535461" stroke-width="2" stroke-miterlimit="10"/>
<path d="M72.7408 164.413C67.2684 170.425 66.1125 178.281 66.1125 178.281C66.1125 178.281 73.8253 176.39 79.2951 170.378C84.7649 164.366 85.9234 156.507 85.9234 156.507C85.9234 156.507 78.2106 158.398 72.7408 164.413Z" fill="#6C63FF"/>
<path d="M85.9234 156.507C85.9234 156.507 78.7978 162.67 76.986 166.918C75.1742 171.166 66.1125 178.291 66.1125 178.291" stroke="#535461" stroke-width="2" stroke-miterlimit="10"/>
<path d="M60.0675 64L29.5341 102.241L-1 64H60.0675Z" fill="#EAB087"/>
<defs>
<linearGradient id="paint0_linear_642_174" x1="190.397" y1="205.886" x2="190.397" y2="63.4996" gradientUnits="userSpaceOnUse">
<stop stop-color="#808080" stop-opacity="0.25"/>
<stop offset="0.54" stop-color="#808080" stop-opacity="0.12"/>
<stop offset="1" stop-color="#808080" stop-opacity="0.1"/>
</linearGradient>
</defs>
</svg>
