<svg width="317" height="224" viewBox="0 0 317 224" fill="none" xmlns="http://www.w3.org/2000/svg">
<path d="M25.4799 113.881C22.8712 116.16 21.8783 119.708 24.3673 122.444C26.7086 125.022 31.2434 125.569 34.1692 123.514C41.233 118.555 33.8704 109.405 26.247 111.299C24.8356 111.649 25.1876 113.479 26.5824 113.552C28.8108 113.667 31.197 113.745 32.9787 115.165C34.8899 116.692 34.9314 119.273 33.3622 121.028C29.2077 125.675 21.9895 118.832 26.3549 114.677C26.9046 114.153 26.0561 113.378 25.4799 113.881Z" fill="#7CABFF"/>
<path d="M280.944 47.7084C281.9 50.9388 282.954 54.1345 284.049 57.3287C284.311 58.0975 285.111 58.3376 285.837 57.889C288.693 56.1251 291.549 54.3913 294.254 52.4385C294.774 52.0624 294.659 51.3058 294.144 50.9841C290.978 49.0072 286.702 46.0894 282.684 46.0697C281.661 46.0637 280.947 47.3716 281.983 47.9153C283.605 48.7655 285.546 49.0691 287.28 49.7246C289.281 50.4797 291.259 51.3677 293.024 52.514C293.063 51.9839 293.102 51.4523 293.143 50.9222C290.119 52.6167 287.273 54.5136 284.399 56.4044C284.965 56.5071 285.53 56.6114 286.096 56.7141C284.869 53.5591 283.61 50.4253 282.25 47.3157C281.963 46.6602 280.739 47.0197 280.944 47.7084Z" fill="#FF7181"/>
<path d="M304.005 109.163C308.248 107.314 312.592 105.189 316.416 102.694C317.82 101.777 316.437 99.9893 314.956 100.695C310.868 102.641 306.884 105.157 303.238 107.723C302.506 108.238 303.044 109.581 304.005 109.163Z" fill="#FBC580"/>
<path d="M6.26342 150.196C5.37671 145.994 4.221 141.632 2.53892 137.635C1.92122 136.165 -0.332076 136.928 0.0415359 138.409C1.0727 142.501 2.73652 146.645 4.53816 150.505C4.90015 151.28 6.46434 151.147 6.26342 150.196Z" fill="#FF957E"/>
<path d="M76.9098 99.9827C76.8301 99.9192 76.7487 99.8543 76.669 99.7909C75.6196 98.9436 73.896 98.7775 72.8715 99.7909C71.8386 100.815 71.8768 102.221 72.8715 103.245C72.9429 103.317 73.0126 103.388 73.084 103.462C74.0255 104.429 75.9633 104.4 76.9098 103.462C77.8496 102.529 78.0406 100.893 76.9098 99.9827Z" fill="#241352"/>
<path d="M190.03 208.294C190.03 208.294 145.424 217.732 127.505 201.435L133.917 162.509C135.866 151.32 134.704 129.792 144.124 122.155C145.948 120.676 147.702 119.941 147.702 119.941C154.311 117.038 166.069 115.472 177.357 115.431C191.071 115.383 205.185 124.815 208.787 136.85L193.943 168.428L190.03 208.294Z" fill="#FF7181"/>
<path d="M185.619 141.699C185.619 141.699 205.602 176.707 195.68 178.571C163.04 184.704 144.094 189.733 144.094 189.733L142.43 201.261C142.918 203.004 208.468 201.497 216.23 193.488C221.712 187.832 229 174.762 213.496 146.473L208.786 136.85L185.619 141.699Z" fill="#FFB0A7"/>
<path d="M148.094 123.667L98.3239 141.193L96.7664 117.445L86.111 113.697C86.111 113.697 70.6601 151.814 89.9833 158.911C109.306 166.009 131.079 152.894 131.079 152.894L148.094 123.667Z" fill="#FFB0A7"/>
<path d="M154.251 117.848C136.879 122.881 126.519 128.78 102.063 138.058L114.622 163.529L136.268 157.208L154.251 117.848Z" fill="#FF7181"/>
<path d="M182.625 136.85L195.25 163.529L223.721 158.8L204.539 128.755L181.83 136.85" fill="#FF7181"/>
<path d="M167.73 155.037C173.794 154.73 179.782 154.969 185.841 155.043C186.371 155.049 186.339 154.368 185.841 154.313C179.872 153.664 173.706 153.924 167.73 154.39C167.28 154.427 167.268 155.061 167.73 155.037Z" fill="#002C68"/>
<path d="M194.89 124.096C174.402 125.778 188.415 153.252 193.666 161.569C193.956 162.032 194.744 161.617 194.453 161.15C189.236 152.747 175.271 127.181 194.958 124.551C195.238 124.513 195.175 124.072 194.89 124.096Z" fill="#002C68"/>
<path d="M138.11 139.802C135.588 148.951 133.896 158.466 133.27 167.887C133.243 168.277 133.969 168.375 134.031 167.981C135.497 158.614 136.97 149.273 138.622 139.929C138.675 139.632 138.197 139.494 138.11 139.802Z" fill="#002C68"/>
<path d="M186.062 89.0537C186.374 85.1195 186.688 81.1853 187.001 77.251C190.4 76.3811 192.169 72.4242 190.811 69.4581C189.456 66.4919 185.602 64.8261 182.105 65.2807C184.311 63.9139 184.142 60.6502 182.33 58.8666C180.52 57.083 177.681 56.5046 175.014 56.4109C172.346 56.3173 169.644 56.6118 167.021 56.1693C164.696 55.7751 162.418 54.807 160.071 55.0759C157.725 55.3462 155.48 57.7475 156.745 59.5644C153.361 59.1128 149.7 58.702 146.693 60.1866C143.686 61.6712 142.176 65.8954 144.762 67.9342C143.055 68.7256 142.626 70.9729 143.586 72.4816C144.546 73.9889 146.512 74.7817 148.423 74.9071C150.333 75.0309 152.229 74.5915 154.084 74.155" fill="#241352"/>
<path d="M185.509 81.4028L184.826 89.5808C184.826 89.5808 192.471 90.5187 190.293 96.8603C188.113 103.202 182.884 100.428 182.884 100.428C182.884 100.428 181.577 116.679 163.272 111.526C148.704 107.425 149.596 90.268 151.444 75.6411C152.161 69.9746 158.054 66.0781 164.21 67.1685L175.214 69.1183C181.575 70.2449 186 75.5263 185.509 81.4028Z" fill="#FFB0A7"/>
<path d="M184.826 96.3675L179.895 120.289C178.784 125.677 172.942 129.125 167.079 127.853C161.643 126.672 158.162 121.846 159.138 116.842L161.817 103.132L184.826 96.3675Z" fill="#FFB0A7"/>
<path d="M164.581 96.6373C164.609 96.6283 164.664 96.9726 164.126 97.2112C163.565 97.4378 162.668 96.9439 162.436 96.1329C162.137 95.3521 162.183 94.4067 162.23 93.4356C162.289 92.4026 162.351 91.3499 162.416 90.2444C162.728 85.7182 163.173 82.0603 163.412 82.0724C163.649 82.0875 163.59 85.7665 163.279 90.2943C163.191 91.3967 163.106 92.4509 163.025 93.4824C162.93 94.4626 162.842 95.3174 163.022 95.9759C163.155 96.6404 163.688 96.9666 164.036 96.9167C164.39 96.8624 164.519 96.5951 164.581 96.6373Z" fill="#241352"/>
<path d="M158.642 109.857C158.724 109.757 159.582 110.299 161.095 110.911C162.596 111.526 164.803 112.154 167.305 112.201C169.807 112.249 172.041 111.707 173.57 111.149C175.108 110.597 175.993 110.088 176.069 110.19C176.131 110.264 175.359 110.947 173.821 111.658C172.297 112.37 169.949 113.039 167.285 112.987C164.627 112.938 162.31 112.178 160.821 111.409C159.315 110.639 158.576 109.928 158.642 109.857Z" fill="#241352"/>
<path d="M162.218 99.9939C162.319 99.9138 162.722 100.269 163.491 100.578C164.242 100.892 165.431 101.124 166.605 100.784C167.775 100.436 168.594 99.6193 169.002 98.9669C169.429 98.3069 169.529 97.8055 169.662 97.8176C169.765 97.8161 169.892 98.3703 169.555 99.204C169.238 100.017 168.342 101.093 166.869 101.533C165.389 101.957 163.973 101.557 163.192 101.065C162.387 100.565 162.133 100.047 162.218 99.9939Z" fill="#241352"/>
<path d="M185.402 97.6538C185.39 97.5345 185.847 97.4756 186.355 97.1917C186.606 97.0452 186.827 96.8368 186.905 96.5453C186.986 96.2478 186.893 95.9714 186.639 95.8974C186.43 95.8234 186.23 95.8853 186.184 95.9563L185.45 95.6089C186.139 94.3146 186.755 93.4205 186.934 93.493C187.112 93.5655 186.8 94.5804 186.207 95.914L185.473 95.5666C185.782 95.0894 186.46 94.9806 186.948 95.1619C187.305 95.2691 187.62 95.5953 187.705 95.9019C187.808 96.2175 187.763 96.5211 187.662 96.7718C187.459 97.2838 186.983 97.5843 186.616 97.6946C185.849 97.9151 185.4 97.7429 185.402 97.6538Z" fill="#241352"/>
<path d="M171.309 81.5355C171.216 81.3407 172.172 80.883 173.378 81.1745C174.587 81.46 175.171 82.2846 174.985 82.4144C174.807 82.5685 174.107 82.1502 173.159 81.9357C172.217 81.6986 171.38 81.7499 171.309 81.5355Z" fill="#241352"/>
<path d="M155.484 79.2547C155.374 79.069 156.324 78.4996 157.652 78.6098C158.981 78.711 159.808 79.4208 159.666 79.587C159.532 79.7758 158.667 79.4692 157.578 79.3937C156.488 79.2955 155.578 79.4616 155.484 79.2547Z" fill="#241352"/>
<path d="M184.826 89.5811C179.717 85.0503 178.217 77.502 176.829 71.1378C172.098 74.2716 165.589 75.0418 160.134 73.1147C158.422 74.9452 156.41 76.543 154.186 77.8403C153.554 78.2088 152.805 78.5683 152.084 78.3704C151.229 78.1348 150.846 77.2408 150.641 76.4479C149.99 73.9091 149.965 71.1907 150.94 68.7395C151.913 66.2868 153.954 64.1332 156.627 63.1923C159.485 62.185 162.7 62.623 165.667 63.3222C170.136 64.3764 174.443 65.9954 178.426 68.1173C182.335 70.1999 186.091 72.9562 187.75 76.7922C189.409 80.6268 189.401 88.0784 185.402 90.0176" fill="#241352"/>
<path d="M172.689 88.1948C172.45 88.1797 172.302 87.6043 172.357 86.911C172.41 86.2178 172.649 85.6696 172.886 85.6847C173.124 85.6998 173.273 86.2752 173.218 86.9684C173.164 87.6601 172.928 88.2099 172.689 88.1948Z" fill="#241352"/>
<path d="M157.99 86.4882C157.751 86.4731 157.604 85.8977 157.658 85.2045C157.712 84.5113 157.951 83.9631 158.188 83.9782C158.426 83.9933 158.575 84.5687 158.52 85.2619C158.465 85.9536 158.23 86.5033 157.99 86.4882Z" fill="#241352"/>
<path d="M85.5706 114.489C85.5706 114.489 87.7807 102.142 90.4225 102.275C93.0644 102.408 98.3464 102.275 98.3464 102.275C98.3464 102.275 98.7864 90.5315 100.254 92.3996C101.722 94.2678 102.184 110.068 96.5232 117.648L85.5706 114.489Z" fill="#FFB0A7"/>
<path d="M144.094 189.733C144.094 189.733 120.412 193.503 120.875 196.298C121.337 199.092 123.002 201.91 123.002 201.91L144.094 201.459V189.733Z" fill="#FFB0A7"/>
<path d="M169.799 202.588L169.618 199.605L120.841 196.893L104.482 157.095L50.9438 159.771L69.2093 202.809L169.799 202.588Z" fill="#6F35A5"/>
<g opacity="0.410004">
<g opacity="0.410004">
<path opacity="0.410004" d="M80.4633 178.722C80.5829 180.712 82.4542 182.238 84.6444 182.129C86.833 182.019 88.5101 180.316 88.3888 178.324C88.2676 176.334 86.3962 174.809 84.2077 174.919C82.0192 175.029 80.3437 176.731 80.4633 178.722Z" fill="white"/>
</g>
</g>
<g opacity="0.410004">
<g opacity="0.410004">
<path opacity="0.410004" d="M78.8768 178.802C79.0445 181.59 81.6664 183.725 84.73 183.571C87.7953 183.418 90.1432 181.034 89.9755 178.246C89.8062 175.458 87.1859 173.322 84.1206 173.476C81.0554 173.629 78.7074 176.014 78.8768 178.802Z" fill="white"/>
</g>
</g>
<path d="M42.998 203.47L252.377 201.093L264.639 206.95C264.639 206.95 103.905 247.074 42.998 203.47Z" fill="#E2D3F5"/>
<path d="M206.778 62.5997C206.145 63.7188 208.217 92.6298 208.217 92.6298L223.871 91.4472L222.044 99.0801L229.692 91.2343L245.007 89.6258L244.077 61.6014L206.778 62.5997Z" fill="#E2D3F5"/>
<path d="M167.016 17.5574C167.016 17.5574 156.23 18.0482 155.871 28.5128C155.871 28.5128 156.05 34.2352 159.466 36.3601C162.881 38.4851 162.7 40.7761 162.7 40.7761H171.689C171.689 40.7761 171.332 37.8326 172.77 36.197C174.208 34.5614 177.803 31.1286 177.263 26.0601C176.725 20.9902 172.589 17.0665 167.016 17.5574Z" fill="#FFBC7A"/>
<path d="M162.529 43.3426C165.756 43.2067 169.02 43.5283 172.227 43.3592C172.688 43.3335 172.846 42.6796 172.341 42.5844C169.226 41.9985 165.664 42.3232 162.529 42.6433C162.049 42.6917 162.024 43.3637 162.529 43.3426Z" fill="#6F35A5"/>
<path d="M163.785 45.9066C165.072 45.8387 166.364 45.7903 167.652 45.8024C168.936 45.8145 170.249 46.0078 171.521 45.9232C171.989 45.8915 172.134 45.2663 171.637 45.1485C169.173 44.5625 166.173 44.9008 163.682 45.2195C163.255 45.2753 163.355 45.9293 163.785 45.9066Z" fill="#6F35A5"/>
<path d="M164.844 47.8061C165.971 47.877 167.135 48.167 168.258 48.1459C168.815 48.1338 168.917 47.4209 168.387 47.2699C167.296 46.9573 165.974 47.066 164.844 47.1068C164.345 47.1249 164.352 47.7743 164.844 47.8061Z" fill="#6F35A5"/>
<path d="M165.354 40.6621C165.603 37.7533 164.525 34.535 163.981 31.6806C163.667 31.8014 163.355 31.9207 163.041 32.0415C163.494 32.7166 164.243 34.6649 165.397 34.5954C166.589 34.5229 167.033 32.5882 167.2 31.7999H166.171C166.402 32.6985 166.432 34.8657 167.983 34.6603C169.294 34.4866 170.181 32.7136 170.583 31.741C170.228 31.6519 169.871 31.5628 169.514 31.4737C168.72 34.319 168.34 37.921 169.133 40.7875C169.276 41.304 170.176 41.2013 170.159 40.6621C170.063 37.6476 169.598 34.6966 170.583 31.741C170.794 31.1067 169.768 30.8816 169.514 31.4737C169.369 31.809 168.519 33.7179 167.717 33.4717C167.514 33.4098 167.245 31.7078 167.2 31.5431C167.081 31.0976 166.267 31.0629 166.171 31.5431C166.055 32.1276 165.789 33.7194 165.03 33.2437C164.592 32.9688 164.205 31.9887 163.929 31.5688C163.61 31.087 162.901 31.4284 162.989 31.9298C163.486 34.7842 163.62 38.1098 164.882 40.7799C164.99 41.0095 165.337 40.8645 165.354 40.6621Z" fill="#6F35A5"/>
<path d="M133.6 37.0278C138.396 35.6399 143.342 34.4437 148.025 32.7643C148.397 32.6299 148.262 32.1134 147.854 32.2055C142.974 33.308 138.183 34.9512 133.396 36.3527C132.926 36.4901 133.125 37.1652 133.6 37.0278Z" fill="#FFBC7A"/>
<path d="M139.495 24.0499C142.512 23.9941 145.654 24.1511 148.651 23.8023C149.153 23.7434 149.176 23.109 148.651 23.0743C145.639 22.8674 142.512 23.1755 139.495 23.2631C138.94 23.2797 138.937 24.0605 139.495 24.0499Z" fill="#FFBC7A"/>
<path d="M153.985 19.2794C150.589 16.5836 147.347 13.2233 143.476 11.0923C142.865 10.7555 142.297 11.5031 142.74 11.9592C145.709 15.022 149.874 17.2949 153.369 19.8397C153.798 20.1523 154.414 19.6207 153.985 19.2794Z" fill="#FFBC7A"/>
<path d="M161.638 15.1409C161.671 14.271 160.935 13.4434 160.47 12.7215C159.924 11.8682 159.451 10.882 158.695 10.1692C158.312 9.80669 157.534 10.1767 157.732 10.6781C158.097 11.6115 158.85 12.4391 159.446 13.2667C159.952 13.9705 160.437 14.9491 161.31 15.3116C161.46 15.375 161.631 15.301 161.638 15.1409Z" fill="#FFBC7A"/>
<path d="M168.808 13.385C168.959 9.22267 169.125 4.81422 168.592 0.676107C168.513 0.0584106 167.573 0.0372667 167.52 0.676107C167.171 4.83235 167.536 9.23023 167.875 13.385C167.918 13.9256 168.787 13.9362 168.808 13.385Z" fill="#FFBC7A"/>
<path d="M174.164 15.3843C175.317 13.8453 176.52 12.3049 177.397 10.6164C177.709 10.0168 176.843 9.5577 176.422 10.0984C175.237 11.6237 174.353 13.3333 173.445 15.0022C173.208 15.4402 173.862 15.789 174.164 15.3843Z" fill="#FFBC7A"/>
<path d="M178.309 18.862C180.586 17.9936 182.728 16.8609 184.893 15.7856C187.03 14.7254 189.423 13.8026 191.282 12.3648C191.666 12.0673 191.258 11.4647 190.796 11.6006C188.616 12.247 186.645 13.5187 184.662 14.5517C182.419 15.7221 180.109 16.8322 178.005 18.208C177.678 18.424 177.864 19.0311 178.309 18.862Z" fill="#FFBC7A"/>
<path d="M181.301 24.28C182.973 24.8327 185.887 24.4159 187.187 23.2802C187.646 22.8815 187.157 22.294 186.611 22.3816C185.714 22.525 184.886 22.957 183.991 23.1473C183.101 23.3361 182.188 23.327 181.301 23.5007C180.839 23.5928 180.921 24.1546 181.301 24.28Z" fill="#FFBC7A"/>
<path d="M181.993 31.8379C188.444 33.3043 195.101 34.9807 201.696 35.7494C202.498 35.8431 202.608 34.7013 201.882 34.505C195.563 32.7954 188.776 31.9088 182.282 30.8894C181.609 30.7837 181.307 31.6808 181.993 31.8379Z" fill="#FFBC7A"/>
<path d="M12.0571 64.8452C12.2713 63.5509 12.2298 62.3186 13.0285 61.1768C14.6159 58.9024 16.8709 59.4748 19.0561 60.4745C21.2812 61.494 23.375 62.1041 25.7927 61.1527C29.572 59.665 31.3438 54.4833 27.7388 52.0458C26.5715 51.2559 25.4224 52.5593 25.5802 53.556C25.796 54.9515 26.5566 56.4844 25.2431 57.6836C23.4896 59.286 21.4306 57.9403 19.6788 57.2214C17.7858 56.4452 15.7733 56.2745 13.8222 56.9919C10.4597 58.2288 8.02209 62.3745 10.6922 65.173C11.0674 65.5687 11.9674 65.3904 12.0571 64.8452Z" fill="#7E2E84"/>
<path d="M140.244 136.794C144.782 135.669 149.477 134.287 153.729 132.457C155.293 131.785 154.285 129.8 152.69 130.252C148.283 131.499 143.868 133.324 139.773 135.252C138.952 135.639 139.216 137.048 140.244 136.794Z" fill="#FBC580"/>
<path d="M271.388 147.081C272.345 150.313 273.399 153.508 274.493 156.702C274.756 157.47 275.556 157.711 276.282 157.262C279.138 155.5 281.994 153.764 284.697 151.812C285.217 151.435 285.104 150.679 284.589 150.357C281.423 148.38 277.145 145.462 273.127 145.443C272.106 145.437 271.392 146.745 272.428 147.288C274.05 148.139 275.991 148.442 277.723 149.098C279.724 149.853 281.703 150.741 283.468 151.887L283.586 150.295C280.564 151.99 277.718 153.887 274.844 155.777C275.408 155.88 275.975 155.984 276.541 156.087C275.314 152.932 274.055 149.798 272.695 146.689C272.408 146.033 271.184 146.393 271.388 147.081Z" fill="#978E40"/>
<path d="M123.965 173.43C128.654 173.747 133.584 173.874 138.267 173.454C139.987 173.298 139.776 171.164 138.107 171.104C133.494 170.941 128.662 171.308 124.093 171.865C123.176 171.977 122.902 173.357 123.965 173.43Z" fill="#7E2E84"/>
<path d="M215.342 75.5345L218.631 85.9402L223.238 85.1231L222.788 83.0284L224.095 82.314L226.564 84.5341L234.365 83.1507L235.376 80.4368L233.156 79.9852L236.022 79.1138L235.399 76.2066L232.92 76.4044L236.324 75.5602L235.55 71.9521L227.621 73.3582C227.621 73.3582 228.133 68.317 225.792 66.6783L224.002 66.997C224.002 66.997 224.606 68.5797 224.549 69.5554C224.493 70.531 222.934 75.0331 222.934 75.0331L220.5 76.0691L219.922 74.6011L215.342 75.5345Z" fill="white"/>
<path d="M54.0051 56.0543L56.6603 84.8776H115.018L118.25 95.019L121.655 83.8975L132.776 83.31L127.65 57.4936L54.0051 56.0543Z" fill="#E2D3F5"/>
<path d="M61.6653 66.7192C81.7756 65.9535 101.801 65.9867 121.86 67.6601C122.581 67.7205 122.584 66.6829 121.86 66.6331C101.834 65.2497 81.7241 64.703 61.6653 65.8342C61.0459 65.8689 61.036 66.7433 61.6653 66.7192Z" fill="white"/>
<path d="M62.8383 72.4084C82.9485 71.6427 102.972 71.6759 123.033 73.3493C123.754 73.4097 123.757 72.3721 123.033 72.3223C103.006 70.9389 82.8971 70.3922 62.8383 71.5234C62.2172 71.5581 62.2089 72.4325 62.8383 72.4084Z" fill="white"/>
<path d="M62.9484 77.1678C76.4482 77.6013 89.7936 76.6906 103.284 77.7901C104.003 77.849 104.009 76.8084 103.284 76.7631C89.8102 75.9249 76.4349 76.4474 62.9484 76.2828C62.3207 76.2753 62.3224 77.1467 62.9484 77.1678Z" fill="white"/>
</svg>
