<svg width="346" height="230" viewBox="0 0 346 230" fill="none" xmlns="http://www.w3.org/2000/svg">
<path opacity="0.2" d="M62.7022 120.499C58.7566 121.691 55.0636 124.577 54.078 128.581C52.9507 133.183 55.5503 137.821 55.926 142.546C57.1396 158.027 35.117 168.949 38.2587 184.155C39.5061 190.201 44.5482 194.649 49.5164 198.323C57.4753 204.191 66.3059 209.375 76.0852 210.838C90.9281 213.062 106.436 206.526 120.863 210.656C132.5 213.989 141.404 223.756 152.961 227.359C161.758 230.104 171.235 229.023 180.374 227.911C185.302 227.313 190.464 226.623 194.44 223.666C201.833 218.162 202.298 207.293 207.247 199.503C214.892 187.491 231.654 185.131 245.708 187.466C259.763 189.801 273.411 195.548 287.65 195.08C290.693 194.978 293.81 194.566 296.465 193.072C299.693 191.258 301.874 188.061 303.802 184.897C315.853 165.052 322.467 142.384 322.981 119.171C323.065 115.183 322.923 111.022 321.047 107.501C318.676 103.047 313.935 100.383 309.217 98.5903C297.885 94.2782 285.368 93.5729 274.264 88.7094C263.554 84.0185 254.881 75.7916 245.554 68.7413C226.969 54.7184 205.426 45.1245 182.57 40.691C177.214 39.6561 171.654 38.9168 166.332 40.1119C160.199 41.4887 154.914 45.3111 150.161 49.4261C137.517 60.3727 127.384 73.8788 115.732 85.8758C107.694 94.1492 98.9413 101.697 89.5759 108.431C85.2638 111.539 80.6807 115.229 75.8757 117.527C71.4774 119.627 67.3531 119.098 62.7022 120.499Z" fill="#6C63FF"/>
<path d="M119.062 23.2115C119.062 23.2115 107.157 39.0215 115.673 57.4497C124.19 75.8778 100.831 105.487 100.831 105.487" stroke="#535461" stroke-width="2" stroke-miterlimit="10"/>
<path d="M124.399 17.2947C123.454 21.3635 118.929 23.7875 118.929 23.7875C118.929 23.7875 115.942 19.614 116.887 15.5452C117.833 11.4764 120.275 8.5688 122.357 9.05237C124.439 9.53595 125.345 13.2259 124.399 17.2947Z" fill="#8ED16F"/>
<path d="M121.36 16.5857C121.657 15.3083 121.51 14.1824 121.031 14.071C120.553 13.9596 119.924 14.9048 119.626 16.1822C119.329 17.4596 119.476 18.5854 119.955 18.6969C120.434 18.8083 121.063 17.8631 121.36 16.5857Z" fill="#8ED16F"/>
<path opacity="0.3" d="M121.36 16.5857C121.657 15.3083 121.51 14.1824 121.031 14.071C120.553 13.9596 119.924 14.9048 119.626 16.1822C119.329 17.4596 119.476 18.5854 119.955 18.6969C120.434 18.8083 121.063 17.8631 121.36 16.5857Z" fill="black"/>
<path d="M122.342 35.3717C118.412 36.7885 113.918 34.3059 113.918 34.3059C113.918 34.3059 115.797 29.5287 119.73 28.115C123.663 26.7012 127.43 27.191 128.154 29.1807C128.878 31.1704 126.272 33.9548 122.342 35.3717Z" fill="#8ED16F"/>
<path d="M121.238 32.2346C122.471 31.7887 123.335 31.0526 123.168 30.5905C123 30.1284 121.865 30.1153 120.633 30.5612C119.4 31.0071 118.536 31.7432 118.703 32.2053C118.87 32.6674 120.005 32.6806 121.238 32.2346Z" fill="#8ED16F"/>
<path opacity="0.3" d="M121.238 32.2346C122.471 31.7887 123.335 31.0526 123.168 30.5905C123 30.1284 121.865 30.1153 120.633 30.5612C119.4 31.0071 118.536 31.7432 118.703 32.2053C118.87 32.6674 120.005 32.6806 121.238 32.2346Z" fill="black"/>
<path d="M121.427 49.7772C117.497 51.1941 113.003 48.7115 113.003 48.7115C113.003 48.7115 114.882 43.9343 118.815 42.5206C122.748 41.1068 126.515 41.5965 127.239 43.5863C127.963 45.576 125.357 48.3635 121.427 49.7772Z" fill="#8ED16F"/>
<path d="M120.369 46.8579C121.603 46.4137 122.468 45.6785 122.302 45.216C122.135 44.7534 121 44.7386 119.766 45.1829C118.532 45.6272 117.666 46.3623 117.833 46.8248C118 47.2874 119.135 47.3022 120.369 46.8579Z" fill="#8ED16F"/>
<path opacity="0.3" d="M120.369 46.8579C121.603 46.4137 122.468 45.6785 122.302 45.216C122.135 44.7534 121 44.7386 119.766 45.1829C118.532 45.6272 117.666 46.3623 117.833 46.8248C118 47.2874 119.135 47.3022 120.369 46.8579Z" fill="black"/>
<path d="M126.019 66.6776C122.089 68.0945 117.595 65.6119 117.595 65.6119C117.595 65.6119 119.474 60.8347 123.408 59.421C127.341 58.0072 131.108 58.4969 131.832 60.4867C132.555 62.4764 129.95 65.27 126.019 66.6776Z" fill="#8ED16F"/>
<path d="M124.962 63.7658C126.196 63.3216 127.061 62.5864 126.895 62.1239C126.728 61.6613 125.593 61.6465 124.359 62.0908C123.125 62.5351 122.259 63.2702 122.426 63.7327C122.592 64.1953 123.728 64.2101 124.962 63.7658Z" fill="#8ED16F"/>
<path opacity="0.3" d="M124.962 63.7658C126.196 63.3216 127.061 62.5864 126.895 62.1239C126.728 61.6613 125.593 61.6465 124.359 62.0908C123.125 62.5351 122.259 63.2702 122.426 63.7327C122.592 64.1953 123.728 64.2101 124.962 63.7658Z" fill="black"/>
<path d="M123.032 82.1334C119.102 83.5503 114.608 81.0677 114.608 81.0677C114.608 81.0677 116.487 76.2905 120.42 74.8768C124.353 73.463 128.12 73.9527 128.844 75.9425C129.568 77.9322 126.965 80.7197 123.032 82.1334Z" fill="#8ED16F"/>
<path d="M121.983 78.9591C123.215 78.5132 124.079 77.777 123.912 77.3149C123.745 76.8528 122.61 76.8397 121.377 77.2856C120.144 77.7315 119.281 78.4676 119.448 78.9298C119.615 79.3919 120.75 79.405 121.983 78.9591Z" fill="#8ED16F"/>
<path opacity="0.3" d="M121.983 78.9591C123.215 78.5132 124.079 77.777 123.912 77.3149C123.745 76.8528 122.61 76.8397 121.377 77.2856C120.144 77.7315 119.281 78.4676 119.448 78.9298C119.615 79.3919 120.75 79.405 121.983 78.9591Z" fill="black"/>
<path d="M104.598 39.4651C107.499 42.4713 112.627 42.2372 112.627 42.2372C112.627 42.2372 113.049 37.1212 110.148 34.115C107.246 31.1088 103.652 29.8706 102.118 31.3429C100.584 32.8152 101.696 36.4589 104.598 39.4651Z" fill="#8ED16F"/>
<path d="M109.132 38.3983C109.486 38.0568 109.034 37.0151 108.124 36.0715C107.213 35.1279 106.187 34.6398 105.834 34.9812C105.48 35.3226 105.932 36.3644 106.843 37.308C107.754 38.2516 108.779 38.7397 109.132 38.3983Z" fill="#8ED16F"/>
<path opacity="0.3" d="M109.132 38.3983C109.486 38.0568 109.034 37.0151 108.124 36.0715C107.213 35.1279 106.187 34.6398 105.834 34.9812C105.48 35.3226 105.932 36.3644 106.843 37.308C107.754 38.2516 108.779 38.7397 109.132 38.3983Z" fill="black"/>
<path d="M102.931 87.2033C105.833 90.2094 110.961 89.9753 110.961 89.9753C110.961 89.9753 111.383 84.8593 108.482 81.8532C105.58 78.847 101.986 77.6088 100.452 79.0811C98.9179 80.5534 100.03 84.1971 102.931 87.2033Z" fill="#8ED16F"/>
<path d="M107.462 86.1406C107.816 85.7992 107.364 84.7575 106.453 83.8139C105.542 82.8703 104.517 82.3821 104.163 82.7236C103.81 83.065 104.261 84.1067 105.172 85.0503C106.083 85.9939 107.108 86.4821 107.462 86.1406Z" fill="#8ED16F"/>
<path opacity="0.3" d="M107.462 86.1406C107.816 85.7992 107.364 84.7575 106.453 83.8139C105.542 82.8703 104.517 82.3821 104.163 82.7236C103.81 83.065 104.261 84.1067 105.172 85.0503C106.083 85.9939 107.108 86.4821 107.462 86.1406Z" fill="black"/>
<path d="M106.778 56.3378C110.517 58.2043 115.27 56.2639 115.27 56.2639C115.27 56.2639 113.961 51.3019 110.225 49.4353C106.489 47.5688 102.685 47.5873 101.733 49.5092C100.781 51.4312 103.039 54.4713 106.778 56.3378Z" fill="#8ED16F"/>
<path d="M110.686 53.8102C110.906 53.3703 110.133 52.539 108.959 51.9533C107.786 51.3677 106.656 51.2496 106.437 51.6895C106.217 52.1294 106.991 52.9607 108.164 53.5463C109.338 54.1319 110.467 54.2501 110.686 53.8102Z" fill="#8ED16F"/>
<path opacity="0.3" d="M110.686 53.8102C110.906 53.3703 110.133 52.539 108.959 51.9533C107.786 51.3677 106.656 51.2496 106.437 51.6895C106.217 52.1294 106.991 52.9607 108.164 53.5463C109.338 54.1319 110.467 54.2501 110.686 53.8102Z" fill="black"/>
<path d="M108.346 73.1458C112.085 75.0123 116.838 73.0719 116.838 73.0719C116.838 73.0719 115.529 68.1098 111.793 66.2433C108.056 64.3768 104.252 64.3953 103.301 66.3172C102.349 68.2392 104.622 71.2977 108.346 73.1458Z" fill="#8ED16F"/>
<path d="M112.256 70.6204C112.475 70.1805 111.702 69.3491 110.528 68.7635C109.355 68.1779 108.225 68.0598 108.006 68.4997C107.786 68.9395 108.56 69.7709 109.733 70.3565C110.907 70.9421 112.036 71.0603 112.256 70.6204Z" fill="#8ED16F"/>
<path opacity="0.3" d="M112.256 70.6204C112.475 70.1805 111.702 69.3491 110.528 68.7635C109.355 68.1779 108.225 68.0598 108.006 68.4997C107.786 68.9395 108.56 69.7709 109.733 70.3565C110.907 70.9421 112.036 71.0603 112.256 70.6204Z" fill="black"/>
<path d="M61.7259 57.1941C61.7259 57.1941 83.4682 78.9364 71.1941 111.2C58.92 143.464 92.2341 197.116 92.2341 197.116C92.2341 197.116 91.8768 197.064 91.2146 196.947C46.5534 189.065 24.3768 137.991 49.2023 100.05C58.421 85.9436 66.0134 69.3974 61.7259 57.1941Z" fill="#8ED16F"/>
<path d="M23 145.133C23 145.133 47.8101 141.182 50.0708 163.417C52.3316 185.652 97.7782 188.735 97.7782 188.735C97.7782 188.735 97.4702 188.938 96.9251 189.302C59.4004 213.942 23.5298 204.992 28.9353 172.284C30.9497 160.121 30.7834 147.909 23 145.133Z" fill="#8ED16F"/>
<g opacity="0.3">
<path opacity="0.3" d="M23 145.133C23 145.133 47.8101 141.182 50.0708 163.417C52.3316 185.652 97.7782 188.735 97.7782 188.735C97.7782 188.735 97.4702 188.938 96.9251 189.302C59.4004 213.942 23.5298 204.992 28.9353 172.284C30.9497 160.121 30.7834 147.909 23 145.133Z" fill="white"/>
</g>
<path d="M55.4455 144.859C59.2134 144.859 62.2679 136.89 62.2679 127.06C62.2679 117.229 59.2134 109.26 55.4455 109.26C51.6777 109.26 48.6232 117.229 48.6232 127.06C48.6232 136.89 51.6777 144.859 55.4455 144.859Z" fill="#8ED16F"/>
<path opacity="0.3" d="M55.4455 144.859C59.2134 144.859 62.2679 136.89 62.2679 127.06C62.2679 117.229 59.2134 109.26 55.4455 109.26C51.6777 109.26 48.6232 117.229 48.6232 127.06C48.6232 136.89 51.6777 144.859 55.4455 144.859Z" fill="black"/>
<path d="M54.8223 191.705C56.6181 189.909 54.8337 185.213 50.8366 181.216C46.8396 177.219 42.1435 175.434 40.3476 177.23C38.5518 179.026 40.3362 183.722 44.3333 187.719C48.3303 191.716 53.0264 193.501 54.8223 191.705Z" fill="#8ED16F"/>
<path opacity="0.3" d="M54.8223 191.705C56.6181 189.909 54.8337 185.213 50.8366 181.216C46.8396 177.219 42.1435 175.434 40.3476 177.23C38.5518 179.026 40.3362 183.722 44.3333 187.719C48.3303 191.716 53.0264 193.501 54.8223 191.705Z" fill="black"/>
<path d="M245.964 90.7639H84.463C82.5115 90.7639 80.6399 91.5391 79.2599 92.919C77.88 94.299 77.1047 96.1706 77.1047 98.1222V192.782C77.1047 194.734 77.88 196.605 79.2599 197.985C80.6399 199.365 82.5115 200.141 84.463 200.141H245.964C247.916 200.141 249.787 199.365 251.167 197.985C252.547 196.605 253.322 194.734 253.322 192.782V98.1222C253.322 96.1706 252.547 94.299 251.167 92.919C249.787 91.5391 247.916 90.7639 245.964 90.7639Z" fill="url(#paint0_linear_25_3580)"/>
<path d="M243.605 92.0513H86.8194C82.599 92.0513 79.1777 95.4726 79.1777 99.693V191.211C79.1777 195.432 82.599 198.853 86.8194 198.853H243.605C247.825 198.853 251.247 195.432 251.247 191.211V99.693C251.247 95.4726 247.825 92.0513 243.605 92.0513Z" fill="#6C63FF"/>
<path d="M251.247 110.741H79.1777V130.321H251.247V110.741Z" fill="#6C63FF"/>
<path opacity="0.3" d="M251.247 110.741H79.1777V130.321H251.247V110.741Z" fill="black"/>
<path d="M234.931 144.859H95.4958V154.352H234.931V144.859Z" fill="#D6D6E3"/>
<path d="M107.065 191.735C114.602 191.735 120.712 185.625 120.712 178.087C120.712 170.55 114.602 164.439 107.065 164.439C99.5271 164.439 93.4167 170.55 93.4167 178.087C93.4167 185.625 99.5271 191.735 107.065 191.735Z" fill="#6C63FF"/>
<path opacity="0.3" d="M107.065 191.735C114.602 191.735 120.712 185.625 120.712 178.087C120.712 170.55 114.602 164.439 107.065 164.439C99.5271 164.439 93.4167 170.55 93.4167 178.087C93.4167 185.625 99.5271 191.735 107.065 191.735Z" fill="black"/>
<path d="M241.464 65.7167C241.684 66.4132 242.152 67.0049 242.779 67.3799C245.61 69.2495 251.764 68.8522 252.503 68.8522C252.66 68.8522 252.867 69.1325 253.094 69.6037C254.182 71.846 255.867 78.4189 255.981 79.8974C256.131 81.6869 257.795 90.0616 260.518 93.1817C260.601 93.2772 260.684 93.3666 260.764 93.4497C263.434 96.1325 266.567 93.1817 266.567 93.1817L267.016 91.6202C266.89 92.2362 266.749 92.9538 266.607 93.7577C266.536 94.1612 266.465 94.5893 266.397 95.0298C265.992 97.5117 265.778 100.021 265.76 102.536C265.753 103.449 265.792 104.362 265.877 105.271C265.901 105.524 265.929 105.773 265.963 106.016C266.102 107.124 266.17 108.239 266.166 109.355C266.142 115.984 264.451 124.229 264.451 124.229L264.515 124.207C264.475 124.414 264.451 124.515 264.451 124.515L264.549 124.485C264.502 124.791 264.457 125.104 264.414 125.424C263.841 129.582 263.511 134.757 263.354 137.744C263.273 139.32 263.343 140.9 263.564 142.463L266.57 163.626V173.483C266.56 174.976 266.742 176.465 267.112 177.912C268.091 181.636 267.284 194.633 266.832 200.8C266.705 202.482 266.607 203.658 266.579 203.997V204.099L266.665 204.065C266.665 204.136 266.665 204.173 266.665 204.173C266.794 204.118 266.928 204.078 267.066 204.055C265.874 205.904 263.715 208.959 262.054 209.473C261.076 209.771 260.206 210.348 259.55 211.133L259.507 211.192L259.446 211.278C259.24 211.553 259.116 211.879 259.085 212.221C259.061 212.162 259.043 212.101 259.03 212.039C258.904 212.726 259.316 213.354 260.613 213.659C261.369 213.803 262.138 213.865 262.908 213.844C267.405 213.844 275.385 212.461 276.266 210.973V205.842L276.411 205.888V205.934L276.962 206.116L278.474 201.04C280.289 199.697 278.782 175.663 278.474 170.141C278.197 165.108 281.311 145.087 281.862 141.561L281.789 141.471L281.872 140.957C281.983 141.037 282.086 141.128 282.18 141.228C282.361 141.443 282.519 141.676 282.651 141.924C282.911 142.365 283.135 142.826 283.319 143.304C286.362 150.893 287.733 172.596 287.733 174.542V194.951C287.727 196.965 288.007 198.969 288.565 200.905C288.844 201.923 289.06 202.958 289.212 204.003C289.276 204.413 289.332 204.819 289.384 205.207C289.436 205.596 289.489 206.039 289.529 206.403C289.529 206.498 289.55 206.59 289.56 206.677C289.569 206.763 289.56 206.76 289.56 206.803C289.643 207.607 289.686 208.134 289.686 208.134C289.697 208.089 289.718 208.048 289.747 208.013L289.763 208.207C289.785 208.134 289.826 208.068 289.883 208.016C290.008 207.894 290.144 207.782 290.29 207.684V210.277L290.216 210.222V210.668C293.351 213.034 298.455 213.749 302.373 213.721C304.914 213.721 306.971 213.413 307.686 213.055C308.709 212.553 308.148 211.383 307.218 210.487C306.497 209.791 305.558 209.255 304.963 209.322C303.971 209.43 300.58 205.589 298.803 203.486L299.003 203.396L299.287 203.273V169.244C299.287 169.244 299.742 155.809 301.101 142.522C301.745 135.824 300.952 129.065 298.775 122.698L298.732 122.572L299.145 122.637C299.582 122.704 299.816 122.744 299.816 122.744C299.816 122.744 299.816 122.64 299.789 122.436H299.816C299.816 122.436 299.287 116.674 299.28 109.435C299.28 101.23 299.973 91.2259 302.841 85.5647C304.492 82.306 305.043 79.7125 304.997 77.6674C305.069 75.8678 304.551 74.094 303.522 72.616C303.09 72.0211 302.503 71.5565 301.825 71.2731L301.766 71.2392H301.735C301.24 71.0388 300.711 70.9343 300.177 70.9312H293.983C293.266 70.9318 292.561 70.7461 291.937 70.3922L289.513 69.0185C288.706 67.2536 288.589 65.0668 288.762 63.0154C288.762 62.8522 288.793 62.6889 288.808 62.5288L288.984 62.344C289.119 62.1992 289.245 62.036 289.369 61.8974C289.366 62.0189 289.357 62.1402 289.341 62.2608C289.31 62.4549 289.258 62.5688 289.175 62.5935C290.499 62.421 291.977 62.1592 292.791 61.1366C292.825 61.0965 292.855 61.0534 292.886 61.0103C293.126 60.6213 293.326 60.2084 293.481 59.7783C293.594 59.4844 293.747 59.2068 293.933 58.9528C294.137 58.6879 294.402 58.4723 294.62 58.2197L294.657 58.1766C295.436 57.2526 295.48 55.9282 295.489 54.7208C295.504 51.7885 295.418 48.5606 293.456 46.3614C291.827 44.5318 289.227 43.8388 286.76 43.7587C284.293 43.6787 281.832 44.1222 279.368 44.1345C277.692 44.1345 275.672 44.1068 274.748 45.4928C274.295 46.1735 274.239 47.0637 273.746 47.7167C273.463 48.0924 273.029 48.4158 273.004 48.884C273.001 49.1 273.056 49.3129 273.164 49.5V49.5216C273.762 50.6982 275.031 51.4312 276.355 51.6622C276.131 51.9317 275.926 52.2157 275.739 52.5123C274.931 53.805 274.504 55.2997 274.507 56.8245C274.507 57.0031 274.507 57.1787 274.526 57.3542C274.663 59.4252 275.586 61.3654 277.107 62.7783C277.082 62.9507 277.058 63.1232 277.03 63.2926L277.085 63.3419C277.26 63.5 277.442 63.6499 277.63 63.7916L277.698 63.844C277.698 63.9518 277.698 64.0596 277.698 64.152C277.698 64.3306 277.698 64.5123 277.68 64.6879C277.661 64.8635 277.68 64.9713 277.661 65.113L277.621 65.0791L274.612 62.5657L269.773 58.0873C269.773 58.0873 257.675 49.2813 257.068 53.4672C256.994 54.2106 257.2 54.9547 257.644 55.5555C259.865 58.9436 267.5 61.8265 267.5 61.8265C267.5 61.8265 272.052 66.6407 275.099 71.8306C274.991 71.8891 274.883 71.9446 274.769 71.9969C272.059 73.2567 268.104 72.7238 268.104 72.7238C263.536 73.4353 263.123 78.4405 263.148 80.4641C263.148 80.5596 263.148 80.652 263.148 80.7351C263.148 80.8183 263.148 80.8368 263.148 80.883L257.086 66.6499L257.068 66.6068C256.87 66.1434 256.559 65.7374 256.162 65.4262C255.766 65.115 255.298 64.9088 254.801 64.8265C250.747 64.1458 240.617 62.7259 241.464 65.7167ZM266.841 204.012C266.929 203.991 267.019 203.975 267.109 203.963L267.081 204.006L266.841 204.012Z" fill="url(#paint1_linear_25_3580)"/>
<path d="M297.127 201.102C297.127 201.102 302.869 208.318 304.196 208.17C305.524 208.023 308.613 210.967 306.848 211.867C305.083 212.766 294.922 213.339 289.908 209.51V203.741L297.127 201.102Z" fill="#ACA9C9"/>
<path d="M268.116 201.542C268.116 201.542 264.728 207.579 262.375 208.318C260.021 209.058 257.958 211.706 261.05 212.443C264.143 213.179 275.188 211.559 276.217 209.791V201.983L268.116 201.542Z" fill="#ACA9C9"/>
<path d="M263.862 142.235L266.788 163.112V172.817C266.779 174.29 266.957 175.757 267.318 177.185C268.273 180.859 267.488 193.679 267.044 199.762C266.899 201.745 266.788 203.014 266.788 203.014C268.701 202.13 276.802 204.927 276.802 204.927L277.621 202.14L278.274 199.922C280.042 198.598 278.582 174.89 278.274 169.429C278.074 165.699 279.737 153.607 280.803 146.359C281.111 144.311 281.36 142.663 281.511 141.671C281.607 141.055 281.659 140.714 281.659 140.714C281.984 140.978 282.254 141.304 282.454 141.671C282.707 142.107 282.925 142.562 283.104 143.033C286.067 150.521 287.416 171.927 287.416 173.834V193.965C287.41 195.951 287.682 197.928 288.226 199.839C288.591 201.232 288.857 202.649 289.024 204.08C289.233 205.679 289.332 206.966 289.332 206.966C289.479 206.082 298.609 202.106 298.609 202.106V168.533C298.609 168.533 299.049 155.288 300.377 142.174C300.947 136.208 300.372 130.188 298.683 124.438C298.316 123.185 297.95 122.122 297.632 121.281C297.093 119.849 296.708 119.057 296.708 119.057H266.634C266.129 119.153 265.71 120.169 265.332 121.713C265.085 122.747 264.87 124.016 264.682 125.409C264.124 129.508 263.804 134.612 263.65 137.563C263.572 139.123 263.643 140.688 263.862 142.235Z" fill="#618FD8"/>
<g opacity="0.1">
<path opacity="0.1" d="M298.079 202.201V168.628C298.079 168.628 298.52 155.384 299.847 142.269C301.175 129.154 296.151 119.15 296.151 119.15H296.739C296.739 119.15 301.744 129.163 300.435 142.269C299.126 155.375 298.667 168.628 298.667 168.628V202.201C298.667 202.201 289.538 206.178 289.39 207.062C289.39 207.062 289.39 206.864 289.344 206.526C291.334 205.143 298.079 202.201 298.079 202.201Z" fill="black"/>
<path opacity="0.1" d="M267.672 202.922C267.395 202.928 267.12 202.984 266.862 203.088V202.941C267.132 202.914 267.402 202.907 267.672 202.922Z" fill="black"/>
<path opacity="0.1" d="M277.76 199.996C279.528 198.672 278.068 174.964 277.76 169.503C277.452 164.042 281.148 140.791 281.148 140.791C281.341 140.94 281.512 141.116 281.656 141.314C281.114 144.789 278.083 164.541 278.351 169.503C278.659 174.952 280.119 198.659 278.351 199.996L276.879 205.001L276.343 204.822L277.76 199.996Z" fill="black"/>
</g>
<path d="M269.881 82.7094L266.801 93.6068C266.801 93.6068 263.561 96.6868 260.912 93.6068C258.263 90.5267 256.63 82.269 256.47 80.501C256.31 78.7331 253.966 69.6037 253.082 69.6037C252.198 69.6037 243.364 70.192 242.333 66.5236C241.507 63.5729 251.37 64.9836 255.318 65.6458C255.805 65.7286 256.262 65.9329 256.648 66.2399C257.034 66.5468 257.336 66.9464 257.527 67.4014L263.582 81.8624C263.582 81.8624 266.788 78.1448 269.881 82.7094Z" fill="#F7C4A7"/>
<path d="M289.76 57.3819C289.76 57.3819 285.931 68.1314 290.792 71.9599C295.652 75.7885 273.411 76.8203 273.411 76.8203L276.429 73.9497C276.429 73.9497 278.564 65.4825 277.091 58.4137L289.76 57.3819Z" fill="#F7C4A7"/>
<path opacity="0.1" d="M285.047 71.9599C285.047 71.9599 288.95 71.002 288.95 69.9733L292.409 71.9599H301.098C301.098 71.9599 307.43 75.4928 302.129 86.0975C296.829 96.7022 299.185 122.75 299.185 122.75C299.185 122.75 280.338 119.362 264.728 124.518C264.728 124.518 267.084 112.885 266.2 106.26C265.316 99.6344 267.673 90.3572 267.673 90.3572L268.997 84.7607C268.997 84.7607 268.923 79.5246 263.474 82.1827C263.474 82.1827 262.664 74.5995 268.261 73.7156C268.261 73.7156 274.729 74.5995 276.654 71.3593C276.654 71.3716 280.926 73.8757 285.047 71.9599Z" fill="black"/>
<path d="M285.047 71.6673C285.047 71.6673 288.95 70.7094 288.95 69.6807L291.485 71.1375C292.09 71.4846 292.776 71.6672 293.474 71.6673H299.551C300.187 71.6655 300.813 71.8148 301.379 72.1029C301.945 72.3911 302.435 72.8098 302.807 73.3244C304.202 75.2864 305.453 79.155 302.129 85.8049C296.829 96.4065 299.185 122.458 299.185 122.458C299.185 122.458 280.338 119.07 264.728 124.226C264.728 124.226 267.084 112.592 266.2 105.967C265.316 99.3419 267.672 90.0862 267.672 90.0862L268.997 84.4897C268.997 84.4897 268.923 79.2536 263.474 81.9117C263.474 81.9117 262.686 74.538 268.03 73.4846C268.178 73.4515 268.331 73.4412 268.483 73.4538C269.625 73.5739 274.951 73.9589 276.657 71.0729C276.654 71.0759 280.926 73.5801 285.047 71.6673Z" fill="#E14B5A"/>
<path opacity="0.1" d="M299.921 85.0657C299.921 85.0657 295.208 88.0102 287.551 85.0657C287.551 85.0657 279.158 81.9856 276.506 75.9363C273.854 69.887 289.904 76.9682 289.904 76.9682C289.904 76.9682 293.293 76.9681 294.321 76.232C295.35 75.4959 302.57 81.8254 299.921 85.0657Z" fill="black"/>
<path d="M299.921 84.4774C299.921 84.4774 295.208 87.4219 287.551 84.4774C287.551 84.4774 279.158 81.3973 276.506 75.348C273.854 69.2987 267.673 62.6735 267.673 62.6735C267.673 62.6735 256.923 58.5493 257.508 54.4281C258.094 50.307 269.878 58.9928 269.878 58.9928L274.59 63.4096L289.905 76.3675C289.905 76.3675 293.293 76.3675 294.321 75.6314C295.35 74.8953 302.57 81.2371 299.921 84.4774Z" fill="#F7C4A7"/>
<path opacity="0.1" d="M276.95 58.8542L289.612 57.8224C288.961 59.7691 288.518 61.7793 288.291 63.8193C286.819 65.3457 284.806 66.2332 282.686 66.2908C280.566 66.3484 278.509 65.5715 276.956 64.1273C277.279 62.3842 277.276 60.5965 276.95 58.8542Z" fill="black"/>
<path d="M282.62 65.849C287.092 65.849 290.718 62.2237 290.718 57.7515C290.718 53.2794 287.092 49.654 282.62 49.654C278.148 49.654 274.523 53.2794 274.523 57.7515C274.523 62.2237 278.148 65.849 282.62 65.849Z" fill="#F7C4A7"/>
<path opacity="0.1" d="M287.065 59.5102C286.59 58.7279 287.554 57.7084 287.237 56.8521C286.944 56.0636 285.78 55.9281 285.389 55.192C285.081 54.5975 285.389 53.8675 285.266 53.2115C285.09 52.3644 284.179 51.8377 283.313 51.7946C282.448 51.7515 281.613 52.0749 280.79 52.3521C279.451 52.8049 278.04 53.1529 276.635 52.9928C275.231 52.8326 273.829 52.0688 273.204 50.8152C273.102 50.6326 273.048 50.4269 273.047 50.2176C273.072 49.7556 273.497 49.4384 273.771 49.0688C274.251 48.425 274.307 47.5472 274.744 46.8757C275.637 45.5082 277.599 45.5421 279.232 45.5359C281.634 45.5359 284.025 45.0862 286.427 45.1663C288.829 45.2464 291.355 45.9271 292.948 47.732C294.857 49.9035 294.943 53.0821 294.928 55.9774C294.928 57.1694 294.879 58.4661 294.118 59.387C293.896 59.655 293.625 59.8768 293.413 60.1509C292.951 60.7669 292.827 61.5554 292.393 62.1807C291.623 63.2926 290.12 63.5636 288.78 63.7423C289.174 63.6899 288.848 61.0503 288.78 60.807C288.521 59.5934 288.241 59.618 287.065 59.5102Z" fill="black"/>
<path d="M287.065 59.2177C286.59 58.4353 287.554 57.4158 287.237 56.5596C286.944 55.7711 285.78 55.6356 285.389 54.8994C285.081 54.305 285.389 53.575 285.266 52.9189C285.09 52.0719 284.179 51.5452 283.313 51.5021C282.448 51.459 281.613 51.7824 280.79 52.0596C279.451 52.5123 278.04 52.8604 276.635 52.7002C275.231 52.5401 273.829 51.7762 273.204 50.5226C273.102 50.34 273.048 50.1344 273.047 49.9251C273.072 49.4631 273.497 49.1458 273.771 48.7762C274.251 48.1325 274.307 47.2547 274.744 46.5832C275.637 45.2156 277.599 45.2495 279.232 45.2434C281.634 45.2434 284.025 44.7937 286.427 44.8738C288.829 44.9538 291.355 45.6345 292.948 47.4395C294.857 49.6109 294.943 52.7896 294.928 55.6848C294.928 56.8768 294.879 58.1735 294.118 59.0945C293.896 59.3625 293.625 59.5842 293.413 59.8583C292.951 60.4744 292.827 61.2629 292.393 61.8881C291.623 63 290.12 63.2711 288.78 63.4497C289.174 63.3974 288.848 60.7577 288.78 60.5144C288.521 59.2854 288.241 59.3224 287.065 59.2177Z" fill="#281C1C"/>
<path opacity="0.1" d="M299.847 85.4353C299.847 85.4353 295.871 75.1263 292.778 74.8337C289.686 74.5411 298.667 74.8337 298.667 74.8337L301.612 80.1345L299.847 85.4353Z" fill="black"/>
<path d="M300.143 85.4353C300.143 85.4353 296.166 75.1263 293.074 74.8337C289.982 74.5411 298.963 74.8337 298.963 74.8337L301.908 80.1345L300.143 85.4353Z" fill="#E14B5A"/>
<path d="M289.011 204.105C289.221 205.703 289.319 206.991 289.319 206.991C289.467 206.107 298.597 202.13 298.597 202.13V199.737C298.364 199.729 298.131 199.74 297.9 199.771C296.129 200.008 294.488 200.868 292.972 201.785C291.692 202.626 290.37 203.4 289.011 204.105Z" fill="#618FD8"/>
<path opacity="0.3" d="M289.011 204.105C289.221 205.703 289.319 206.991 289.319 206.991C289.467 206.107 298.597 202.13 298.597 202.13V199.737C298.364 199.729 298.131 199.74 297.9 199.771C296.129 200.008 294.488 200.868 292.972 201.785C291.692 202.626 290.37 203.4 289.011 204.105Z" fill="black"/>
<path d="M266.788 203.014C268.701 202.13 276.802 204.927 276.802 204.927L277.621 202.14C276.207 201.853 274.803 201.496 273.423 201.071C272.779 200.884 272.149 200.652 271.538 200.375C271.13 200.157 270.711 199.961 270.281 199.79C269.225 199.426 268.125 199.58 267.041 199.762C266.899 201.745 266.788 203.014 266.788 203.014Z" fill="#618FD8"/>
<path opacity="0.3" d="M266.788 203.014C268.701 202.13 276.802 204.927 276.802 204.927L277.621 202.14C276.207 201.853 274.803 201.496 273.423 201.071C272.779 200.884 272.149 200.652 271.538 200.375C271.13 200.157 270.711 199.961 270.281 199.79C269.225 199.426 268.125 199.58 267.041 199.762C266.899 201.745 266.788 203.014 266.788 203.014Z" fill="black"/>
<path opacity="0.4" d="M306.768 211.408C306.891 211.355 307.001 211.275 307.088 211.173C307.176 211.072 307.239 210.952 307.273 210.822C307.328 211.025 307.307 211.242 307.214 211.43C307.121 211.619 306.962 211.768 306.768 211.848C305 212.732 294.842 213.32 289.828 209.492V209.051C294.842 212.88 305 212.292 306.768 211.408Z" fill="white"/>
<path opacity="0.4" d="M260.973 211.996C264.053 212.732 275.111 211.112 276.14 209.344V209.784C275.108 211.552 264.066 213.173 260.973 212.436C259.711 212.128 259.307 211.512 259.433 210.838C259.532 211.337 259.994 211.75 260.973 211.996Z" fill="white"/>
<path opacity="0.1" d="M278.936 104.726C278.936 104.726 275.696 103.694 274.812 104.726C273.928 105.758 266.373 108.176 266.373 108.176" fill="black"/>
<path d="M242.274 64.2659H258.029V63.9333H242.274V64.2659Z" fill="#8ED16F"/>
<path d="M242.274 64.5985H258.029V64.2659H242.274V64.5985Z" fill="#8ED16F"/>
<path opacity="0.1" d="M242.274 64.5985H258.029V64.2659H242.274V64.5985Z" fill="black"/>
<path d="M242.274 64.9312H258.029V64.5986H242.274V64.9312Z" fill="#8ED16F"/>
<path d="M242.274 65.2608H258.029V64.9281H242.274V65.2608Z" fill="#8ED16F"/>
<path opacity="0.1" d="M242.274 65.2608H258.029V64.9281H242.274V65.2608Z" fill="black"/>
<path d="M242.274 65.5934H258.029V65.2608H242.274V65.5934Z" fill="#8ED16F"/>
<path d="M242.274 65.923H258.029V65.5903H242.274V65.923Z" fill="#8ED16F"/>
<path opacity="0.1" d="M242.274 65.923H258.029V65.5903H242.274V65.923Z" fill="black"/>
<path d="M242.274 66.2557H258.029V65.923H242.274V66.2557Z" fill="#8ED16F"/>
<path d="M242.274 66.5852H258.029V66.2526H242.274V66.5852Z" fill="#8ED16F"/>
<path opacity="0.1" d="M242.274 66.5852H258.029V66.2526H242.274V66.5852Z" fill="black"/>
<path d="M242.274 61.6171H258.029V61.2844H242.274V61.6171Z" fill="#8ED16F"/>
<path d="M253.418 53.7414L265.531 63.8155L265.743 63.5597L253.631 53.4856L253.418 53.7414Z" fill="#8ED16F"/>
<path d="M242.374 48.4412L254.487 58.5153L254.7 58.2596L242.587 48.1854L242.374 48.4412Z" fill="#8ED16F"/>
<path d="M242.274 61.9466H258.029V61.614H242.274V61.9466Z" fill="#8ED16F"/>
<path opacity="0.1" d="M242.274 61.9466H258.029V61.614H242.274V61.9466Z" fill="black"/>
<path d="M242.274 62.2823H258.029V61.9497H242.274V62.2823Z" fill="#8ED16F"/>
<path d="M242.274 62.6119H258.029V62.2792H242.274V62.6119Z" fill="#8ED16F"/>
<path opacity="0.1" d="M242.274 62.6119H258.029V62.2792H242.274V62.6119Z" fill="black"/>
<path d="M242.274 62.9415H258.029V62.6088H242.274V62.9415Z" fill="#8ED16F"/>
<path d="M242.274 63.2741H258.029V62.9415H242.274V63.2741Z" fill="#8ED16F"/>
<path opacity="0.1" d="M242.274 63.2741H258.029V62.9415H242.274V63.2741Z" fill="black"/>
<path d="M242.274 63.6037H258.029V63.271H242.274V63.6037Z" fill="#8ED16F"/>
<path d="M242.274 63.9363H258.029V63.6037H242.274V63.9363Z" fill="#8ED16F"/>
<path opacity="0.1" d="M242.274 63.9363H258.029V63.6037H242.274V63.9363Z" fill="black"/>
<path d="M240.277 76.852L245.922 77.9002L247.965 66.8984L242.32 65.8501L240.277 76.852Z" fill="#8ED16F"/>
<path d="M245.356 72.125C245.594 70.8456 245.269 69.7122 244.63 69.5935C243.991 69.4749 243.28 70.4159 243.043 71.6954C242.805 72.9748 243.13 74.1082 243.769 74.2268C244.408 74.3455 245.119 73.4045 245.356 72.125Z" fill="#8ED16F"/>
<path opacity="0.1" d="M245.356 72.125C245.594 70.8456 245.269 69.7122 244.63 69.5935C243.991 69.4749 243.28 70.4159 243.043 71.6954C242.805 72.9748 243.13 74.1082 243.769 74.2268C244.408 74.3455 245.119 73.4045 245.356 72.125Z" fill="black"/>
<path d="M241.243 100.074L246.888 101.122L248.931 90.1202L243.286 89.072L241.243 100.074Z" fill="#8ED16F"/>
<path d="M246.319 95.3444C246.557 94.065 246.232 92.9316 245.593 92.8129C244.954 92.6943 244.243 93.6353 244.006 94.9148C243.768 96.1942 244.093 97.3276 244.732 97.4463C245.371 97.5649 246.082 96.6239 246.319 95.3444Z" fill="#8ED16F"/>
<path opacity="0.1" d="M246.319 95.3444C246.557 94.065 246.232 92.9316 245.593 92.8129C244.954 92.6943 244.243 93.6353 244.006 94.9148C243.768 96.1942 244.093 97.3276 244.732 97.4463C245.371 97.5649 246.082 96.6239 246.319 95.3444Z" fill="black"/>
<path d="M220.826 42.9951L218.094 48.0444L227.935 53.3701L230.668 48.3207L220.826 42.9951Z" fill="#8ED16F"/>
<path d="M227.413 49.5302C227.725 48.9584 227.049 47.9884 225.904 47.3638C224.759 46.7392 223.578 46.6964 223.266 47.2682C222.954 47.84 223.629 48.81 224.774 49.4346C225.92 50.0592 227.101 50.102 227.413 49.5302Z" fill="#8ED16F"/>
<path opacity="0.1" d="M227.413 49.5302C227.725 48.9584 227.049 47.9884 225.904 47.3638C224.759 46.7392 223.578 46.6964 223.266 47.2682C222.954 47.84 223.629 48.81 224.774 49.4346C225.92 50.0592 227.101 50.102 227.413 49.5302Z" fill="black"/>
<path d="M199.217 142.643L196.485 147.692L206.326 153.018L209.059 147.969L199.217 142.643Z" fill="#8ED16F"/>
<path d="M204.812 149.019C205.122 148.448 204.444 147.483 203.3 146.863C202.155 146.244 200.977 146.205 200.668 146.777C200.358 147.348 201.035 148.313 202.18 148.933C203.324 149.552 204.503 149.591 204.812 149.019Z" fill="#8ED16F"/>
<path opacity="0.1" d="M204.812 149.019C205.122 148.448 204.444 147.483 203.3 146.863C202.155 146.244 200.977 146.205 200.668 146.777C200.358 147.348 201.035 148.313 202.18 148.933C203.324 149.552 204.503 149.591 204.812 149.019Z" fill="black"/>
<path d="M185.996 60.4102L183.264 65.4595L193.105 70.7852L195.837 65.7358L185.996 60.4102Z" fill="#8ED16F"/>
<path d="M191.588 66.782C191.898 66.2105 191.221 65.2451 190.076 64.6258C188.932 64.0065 187.753 63.9677 187.444 64.5392C187.134 65.1107 187.812 66.076 188.956 66.6954C190.101 67.3147 191.279 67.3535 191.588 66.782Z" fill="#8ED16F"/>
<path opacity="0.1" d="M191.588 66.782C191.898 66.2105 191.221 65.2451 190.076 64.6258C188.932 64.0065 187.753 63.9677 187.444 64.5392C187.134 65.1107 187.812 66.076 188.956 66.6954C190.101 67.3147 191.279 67.3535 191.588 66.782Z" fill="black"/>
<path d="M202.567 42.9938L199.834 48.0431L209.676 53.3687L212.408 48.3194L202.567 42.9938Z" fill="#8ED16F"/>
<path d="M208.159 49.3656C208.468 48.7941 207.791 47.8287 206.647 47.2094C205.502 46.59 204.324 46.5512 204.014 47.1227C203.705 47.6942 204.382 48.6596 205.527 49.279C206.671 49.8983 207.85 49.9371 208.159 49.3656Z" fill="#8ED16F"/>
<path opacity="0.1" d="M208.159 49.3656C208.468 48.7941 207.791 47.8287 206.647 47.2094C205.502 46.59 204.324 46.5512 204.014 47.1227C203.705 47.6942 204.382 48.6596 205.527 49.279C206.671 49.8983 207.85 49.9371 208.159 49.3656Z" fill="black"/>
<path d="M219.111 63.544L213.403 64.168L214.62 75.2917L220.327 74.6676L219.111 63.544Z" fill="#8ED16F"/>
<path d="M217.046 71.7696C217.692 71.699 218.101 70.593 217.959 69.2994C217.818 68.0058 217.18 67.0144 216.534 67.085C215.888 67.1556 215.479 68.2616 215.62 69.5552C215.762 70.8488 216.4 71.8402 217.046 71.7696Z" fill="#8ED16F"/>
<path opacity="0.1" d="M217.046 71.7696C217.692 71.699 218.101 70.593 217.959 69.2994C217.818 68.0058 217.18 67.0144 216.534 67.085C215.888 67.1556 215.479 68.2616 215.62 69.5552C215.762 70.8488 216.4 71.8402 217.046 71.7696Z" fill="black"/>
<path d="M258.24 124.455L252.533 125.079L253.749 136.203L259.457 135.579L258.24 124.455Z" fill="#8ED16F"/>
<path d="M256.178 132.681C256.824 132.61 257.233 131.504 257.092 130.21C256.95 128.917 256.312 127.925 255.666 127.996C255.02 128.067 254.611 129.173 254.753 130.466C254.894 131.76 255.532 132.751 256.178 132.681Z" fill="#8ED16F"/>
<path opacity="0.1" d="M256.178 132.681C256.824 132.61 257.233 131.504 257.092 130.21C256.95 128.917 256.312 127.925 255.666 127.996C255.02 128.067 254.611 129.173 254.753 130.466C254.894 131.76 255.532 132.751 256.178 132.681Z" fill="black"/>
<path d="M196.763 87.1735L194.03 92.2229L203.872 97.5485L206.604 92.4992L196.763 87.1735Z" fill="#8ED16F"/>
<path d="M202.353 93.5495C202.662 92.978 201.985 92.0127 200.841 91.3933C199.696 90.774 198.518 90.7352 198.209 91.3067C197.899 91.8782 198.576 92.8436 199.721 93.4629C200.865 94.0822 202.044 94.121 202.353 93.5495Z" fill="#8ED16F"/>
<path opacity="0.1" d="M202.353 93.5495C202.662 92.978 201.985 92.0127 200.841 91.3933C199.696 90.774 198.518 90.7352 198.209 91.3067C197.899 91.8782 198.576 92.8436 199.721 93.4629C200.865 94.0822 202.044 94.121 202.353 93.5495Z" fill="black"/>
<path d="M171.929 80.0807L169.196 85.1301L179.037 90.4557L181.77 85.4064L171.929 80.0807Z" fill="#8ED16F"/>
<path d="M178.338 86.792C178.65 86.2202 177.974 85.2503 176.829 84.6256C175.684 84.001 174.503 83.9582 174.191 84.53C173.879 85.1019 174.555 86.0718 175.7 86.6964C176.845 87.3211 178.026 87.3639 178.338 86.792Z" fill="#8ED16F"/>
<path opacity="0.1" d="M178.338 86.792C178.65 86.2202 177.974 85.2503 176.829 84.6256C175.684 84.001 174.503 83.9582 174.191 84.53C173.879 85.1019 174.555 86.0718 175.7 86.6964C176.845 87.3211 178.026 87.3639 178.338 86.792Z" fill="black"/>
<path d="M163.975 199.498L161.242 204.547L171.084 209.872L173.816 204.823L163.975 199.498Z" fill="#8ED16F"/>
<path d="M169.567 205.871C169.876 205.299 169.199 204.334 168.054 203.715C166.91 203.095 165.731 203.057 165.422 203.628C165.113 204.2 165.79 205.165 166.934 205.784C168.079 206.404 169.257 206.442 169.567 205.871Z" fill="#8ED16F"/>
<path opacity="0.1" d="M169.567 205.871C169.876 205.299 169.199 204.334 168.054 203.715C166.91 203.095 165.731 203.057 165.422 203.628C165.113 204.2 165.79 205.165 166.934 205.784C168.079 206.404 169.257 206.442 169.567 205.871Z" fill="black"/>
<path d="M156.814 201.444L155.767 207.089L166.769 209.13L167.817 203.485L156.814 201.444Z" fill="#8ED16F"/>
<path opacity="0.05" d="M156.814 201.444L155.767 207.089L166.769 209.13L167.817 203.485L156.814 201.444Z" fill="black"/>
<path d="M164.097 205.788C164.216 205.149 163.275 204.439 161.995 204.202C160.716 203.964 159.583 204.29 159.464 204.929C159.345 205.568 160.287 206.278 161.566 206.515C162.846 206.753 163.979 206.427 164.097 205.788Z" fill="#8ED16F"/>
<path opacity="0.1" d="M164.097 205.788C164.216 205.149 163.275 204.439 161.995 204.202C160.716 203.964 159.583 204.29 159.464 204.929C159.345 205.568 160.287 206.278 161.566 206.515C162.846 206.753 163.979 206.427 164.097 205.788Z" fill="black"/>
<path d="M157.845 204.829L156.798 210.474L167.8 212.515L168.847 206.87L157.845 204.829Z" fill="#8ED16F"/>
<path d="M165.125 209.173C165.244 208.535 164.303 207.824 163.023 207.587C161.744 207.349 160.61 207.675 160.492 208.314C160.373 208.953 161.314 209.663 162.594 209.901C163.873 210.138 165.007 209.812 165.125 209.173Z" fill="#8ED16F"/>
<path opacity="0.1" d="M165.125 209.173C165.244 208.535 164.303 207.824 163.023 207.587C161.744 207.349 160.61 207.675 160.492 208.314C160.373 208.953 161.314 209.663 162.594 209.901C163.873 210.138 165.007 209.812 165.125 209.173Z" fill="black"/>
<path d="M175.583 214.01L172.851 219.06L182.692 224.385L185.425 219.336L175.583 214.01Z" fill="#8ED16F"/>
<path d="M181.178 220.384C181.487 219.812 180.81 218.847 179.666 218.227C178.521 217.608 177.343 217.569 177.033 218.141C176.724 218.712 177.401 219.678 178.546 220.297C179.69 220.916 180.869 220.955 181.178 220.384Z" fill="#8ED16F"/>
<path opacity="0.1" d="M181.178 220.384C181.487 219.812 180.81 218.847 179.666 218.227C178.521 217.608 177.343 217.569 177.033 218.141C176.724 218.712 177.401 219.678 178.546 220.297C179.69 220.916 180.869 220.955 181.178 220.384Z" fill="black"/>
<path d="M168.425 215.953L167.378 221.598L178.38 223.639L179.428 217.994L168.425 215.953Z" fill="#8ED16F"/>
<path opacity="0.05" d="M168.425 215.953L167.378 221.598L178.38 223.639L179.428 217.994L168.425 215.953Z" fill="black"/>
<path d="M175.705 220.297C175.824 219.658 174.883 218.948 173.603 218.71C172.324 218.473 171.19 218.799 171.072 219.437C170.953 220.076 171.894 220.787 173.174 221.024C174.453 221.262 175.587 220.936 175.705 220.297Z" fill="#8ED16F"/>
<path opacity="0.1" d="M175.705 220.297C175.824 219.658 174.883 218.948 173.603 218.71C172.324 218.473 171.19 218.799 171.072 219.437C170.953 220.076 171.894 220.787 173.174 221.024C174.453 221.262 175.587 220.936 175.705 220.297Z" fill="black"/>
<path d="M169.455 219.342L168.408 224.987L179.41 227.028L180.458 221.383L169.455 219.342Z" fill="#8ED16F"/>
<path d="M176.738 223.686C176.857 223.047 175.916 222.337 174.636 222.099C173.357 221.862 172.224 222.187 172.105 222.826C171.986 223.465 172.928 224.176 174.207 224.413C175.487 224.65 176.62 224.325 176.738 223.686Z" fill="#8ED16F"/>
<path opacity="0.1" d="M176.738 223.686C176.857 223.047 175.916 222.337 174.636 222.099C173.357 221.862 172.224 222.187 172.105 222.826C171.986 223.465 172.928 224.176 174.207 224.413C175.487 224.65 176.62 224.325 176.738 223.686Z" fill="black"/>
<path d="M193.001 204.658L190.268 209.707L200.109 215.033L202.842 209.983L193.001 204.658Z" fill="#8ED16F"/>
<path d="M198.59 211.029C198.899 210.458 198.222 209.493 197.077 208.873C195.933 208.254 194.754 208.215 194.445 208.787C194.136 209.358 194.813 210.323 195.957 210.943C197.102 211.562 198.28 211.601 198.59 211.029Z" fill="#8ED16F"/>
<path opacity="0.1" d="M198.59 211.029C198.899 210.458 198.222 209.493 197.077 208.873C195.933 208.254 194.754 208.215 194.445 208.787C194.136 209.358 194.813 210.323 195.957 210.943C197.102 211.562 198.28 211.601 198.59 211.029Z" fill="black"/>
<path d="M185.841 206.602L184.794 212.247L195.796 214.288L196.843 208.643L185.841 206.602Z" fill="#8ED16F"/>
<path opacity="0.05" d="M185.841 206.602L184.794 212.247L195.796 214.288L196.843 208.643L185.841 206.602Z" fill="black"/>
<path d="M193.121 210.946C193.239 210.307 192.298 209.597 191.019 209.359C189.739 209.122 188.606 209.448 188.487 210.087C188.369 210.725 189.31 211.436 190.59 211.673C191.869 211.911 193.002 211.585 193.121 210.946Z" fill="#8ED16F"/>
<path opacity="0.1" d="M193.121 210.946C193.239 210.307 192.298 209.597 191.019 209.359C189.739 209.122 188.606 209.448 188.487 210.087C188.369 210.725 189.31 211.436 190.59 211.673C191.869 211.911 193.002 211.585 193.121 210.946Z" fill="black"/>
<path d="M186.871 209.99L185.824 215.635L196.826 217.676L197.873 212.031L186.871 209.99Z" fill="#8ED16F"/>
<path d="M194.154 214.335C194.273 213.696 193.332 212.986 192.052 212.748C190.773 212.511 189.639 212.837 189.521 213.475C189.402 214.114 190.343 214.825 191.623 215.062C192.902 215.299 194.036 214.974 194.154 214.335Z" fill="#8ED16F"/>
<path opacity="0.1" d="M194.154 214.335C194.273 213.696 193.332 212.986 192.052 212.748C190.773 212.511 189.639 212.837 189.521 213.475C189.402 214.114 190.343 214.825 191.623 215.062C192.902 215.299 194.036 214.974 194.154 214.335Z" fill="black"/>
<path d="M295 24.0739L325.037 32.1222C329.111 33.2138 333.452 30.2724 334.713 25.5651C335.974 20.8578 333.686 16.1399 329.612 15.0483L299.575 7L295 24.0739Z" fill="#FFE1CD"/>
<path d="M22.499 58.578C22.5173 58.4324 22.5344 58.2861 22.562 58.1429C22.5779 58.0572 22.6018 57.9746 22.6207 57.8902C22.6495 57.7641 22.6758 57.6368 22.7113 57.5132C22.737 57.4226 22.7695 57.3357 22.7982 57.247C22.8362 57.1313 22.871 57.0138 22.9145 56.9006C22.9843 56.717 23.0614 56.5364 23.1446 56.3589C23.1673 56.3118 23.1923 56.2665 23.2156 56.2194C23.2762 56.0982 23.3386 55.9783 23.4053 55.8608C23.5357 55.6294 23.6777 55.4042 23.8301 55.1894C23.8631 55.1423 23.8998 55.0982 23.9347 55.0523C24.0516 54.8944 24.1746 54.7408 24.3031 54.5939C24.3545 54.5352 24.4072 54.4764 24.4604 54.4189C24.5926 54.2775 24.7297 54.1411 24.8711 54.0107C24.9145 53.9709 24.9561 53.9281 25.0002 53.8895C25.1948 53.7188 25.398 53.5597 25.6085 53.4122C25.7224 53.332 25.8386 53.2567 25.9567 53.1839C25.9947 53.16 26.0314 53.1343 26.07 53.1117C26.2346 53.015 26.4023 52.9262 26.5736 52.8442C26.6079 52.8277 26.6434 52.8142 26.6777 52.7989C26.8129 52.7371 26.9494 52.6802 27.0883 52.6282C27.144 52.6074 27.2003 52.5884 27.2566 52.5694C27.3821 52.526 27.51 52.488 27.6379 52.4538C27.693 52.4391 27.7468 52.4232 27.8019 52.4103C27.9825 52.3675 28.1642 52.3301 28.3491 52.3044C28.5314 52.2787 28.712 52.2653 28.8907 52.2579C28.9433 52.2555 28.9947 52.2555 29.0461 52.2549C29.1808 52.253 29.3136 52.2567 29.4445 52.2647C29.4923 52.2671 29.54 52.269 29.5871 52.2732C29.7579 52.2891 29.9268 52.3106 30.0914 52.343C30.1135 52.3467 30.1355 52.3528 30.1575 52.3577C30.3013 52.3877 30.4427 52.4232 30.581 52.4654C30.6349 52.4813 30.6875 52.4984 30.7401 52.5168C30.8246 52.545 30.9066 52.575 30.9886 52.608C31.0431 52.6294 31.0975 52.6514 31.1514 52.6753C31.2328 52.712 31.313 52.7512 31.3925 52.7916C31.4617 52.8271 31.5315 52.8595 31.5975 52.8981L11.1623 41.2071C11.128 41.1875 11.0943 41.1691 11.0607 41.1502C11.0264 41.1318 10.9903 41.1183 10.9566 41.1C10.8771 41.0602 10.7975 41.021 10.7155 40.9849C10.6617 40.961 10.6072 40.939 10.5527 40.917C10.4713 40.8839 10.3881 40.8539 10.3042 40.8252C10.2724 40.8148 10.2424 40.8007 10.21 40.7909C10.1892 40.7842 10.1665 40.7805 10.1445 40.7738C10.0062 40.7328 9.86544 40.6961 9.72162 40.6661C9.69959 40.6624 9.67817 40.6557 9.65614 40.6514C9.4909 40.6196 9.32199 40.5975 9.15063 40.5822C9.10412 40.5779 9.05577 40.5761 9.00865 40.5736C8.87707 40.5651 8.74426 40.5626 8.61085 40.5632C8.55883 40.5645 8.50742 40.5645 8.4554 40.5663C8.27669 40.5743 8.09615 40.5877 7.91317 40.6134C7.72834 40.6391 7.54597 40.6759 7.36604 40.7187C7.31157 40.7322 7.2571 40.7475 7.20263 40.7628C7.07411 40.797 6.94682 40.8356 6.82136 40.8778C6.76444 40.8974 6.70814 40.917 6.65184 40.9378C6.51352 40.9892 6.37705 41.0461 6.24241 41.1073C6.20752 41.1232 6.17203 41.1367 6.13837 41.1526C6.12919 41.1575 6.1194 41.1606 6.11083 41.1655C5.94865 41.2438 5.78953 41.3289 5.63408 41.4207C5.59552 41.4433 5.5588 41.4696 5.52086 41.4929C5.41927 41.5559 5.31645 41.6171 5.21792 41.685C5.20201 41.6961 5.18854 41.7101 5.17263 41.7205C4.96272 41.868 4.75953 42.0271 4.5643 42.1979C4.55329 42.2083 4.54105 42.2156 4.53003 42.2254C4.49698 42.2548 4.46822 42.2897 4.43517 42.3197C4.2938 42.45 4.15671 42.5859 4.02452 42.7285C3.9982 42.7567 3.96761 42.7817 3.94068 42.8111C3.91497 42.8405 3.89294 42.8735 3.86724 42.9029C3.73872 43.0504 3.61632 43.2034 3.49881 43.3613C3.4725 43.3962 3.4419 43.4274 3.41619 43.4635C3.40885 43.4745 3.40212 43.4868 3.39416 43.4978C3.24116 43.7138 3.1004 43.9378 2.97005 44.1691C2.95903 44.1875 2.94618 44.2046 2.93516 44.2236C2.88008 44.3234 2.83051 44.4262 2.77971 44.529C2.75646 44.5755 2.73075 44.6208 2.70872 44.6679C2.62794 44.8393 2.55266 45.0125 2.48534 45.1893C2.48228 45.1961 2.48106 45.2034 2.478 45.2095C2.43516 45.3234 2.40027 45.4397 2.36294 45.5553C2.33418 45.6441 2.30052 45.7316 2.27543 45.8215C2.23993 45.9452 2.21361 46.0718 2.18546 46.1979C2.16588 46.2824 2.14201 46.3662 2.1261 46.4519C2.09856 46.5951 2.08142 46.7408 2.06245 46.8864C2.05388 46.9568 2.0398 47.026 2.03307 47.0963C2.01165 47.313 2.00064 47.5315 2.00003 47.7518C1.99391 49.9519 3.03798 51.7432 4.62673 52.6515L25.062 64.3431C23.4739 63.4343 22.4304 61.6436 22.4353 59.4428C22.4365 59.2231 22.4475 59.004 22.469 58.7874C22.4757 58.717 22.4898 58.6478 22.499 58.578Z" stroke="#8ED16F" stroke-width="2.66667" stroke-miterlimit="10"/>
<circle cx="8" cy="171" r="7" fill="#477BFF" fill-opacity="0.37"/>
<circle cx="170" cy="7" r="7" fill="#77FF47"/>
<path d="M59 2V10.5M59 19V10.5M59 10.5H68.5H51" stroke="#77FF47"/>
<path d="M336 161V169.5M336 178V169.5M336 169.5H345.5H328" stroke="#77FF47"/>
<defs>
<linearGradient id="paint0_linear_25_3580" x1="165.214" y1="200.141" x2="165.214" y2="90.7639" gradientUnits="userSpaceOnUse">
<stop stop-color="#808080" stop-opacity="0.25"/>
<stop offset="0.54" stop-color="#808080" stop-opacity="0.12"/>
<stop offset="1" stop-color="#808080" stop-opacity="0.1"/>
</linearGradient>
<linearGradient id="paint1_linear_25_3580" x1="-197872" y1="128941" x2="-197872" y2="35016.1" gradientUnits="userSpaceOnUse">
<stop stop-color="#808080" stop-opacity="0.25"/>
<stop offset="0.54" stop-color="#808080" stop-opacity="0.12"/>
<stop offset="1" stop-color="#808080" stop-opacity="0.1"/>
</linearGradient>
</defs>
</svg>
