<svg width="323" height="240" viewBox="0 0 323 240" fill="none" xmlns="http://www.w3.org/2000/svg">
<g opacity="0.1">
<path opacity="0.1" d="M224.555 191.285C224.555 191.285 208.992 189.265 220.599 214.453C220.599 214.453 231.176 209.92 231.597 199.697C231.683 197.707 231.036 195.755 229.778 194.211C228.521 192.667 226.741 191.637 224.776 191.317L224.555 191.285Z" fill="#6C63FF"/>
<path opacity="0.1" d="M224.784 191.248C224.784 191.248 228.307 205.292 220.611 214.454" stroke="#535461" stroke-miterlimit="10"/>
<path opacity="0.1" d="M220.4 215.752C220.4 215.752 226.004 201.942 236.467 196.819C240.873 194.699 244.472 191.205 246.723 186.864C247.774 184.796 248.634 182.637 249.292 180.412" stroke="#556153" stroke-width="2" stroke-miterlimit="10"/>
<path opacity="0.1" d="M255.867 177.147C254.776 178.518 249.131 180.525 249.131 180.525C249.131 180.525 249.81 174.564 250.901 173.203C251.15 172.848 251.469 172.547 251.838 172.32C252.208 172.092 252.62 171.943 253.049 171.881C253.478 171.818 253.916 171.845 254.335 171.958C254.754 172.071 255.145 172.269 255.484 172.539C255.824 172.809 256.104 173.145 256.309 173.528C256.514 173.91 256.638 174.331 256.674 174.763C256.71 175.195 256.657 175.63 256.519 176.041C256.38 176.452 256.159 176.831 255.869 177.153L255.867 177.147Z" fill="#6C63FF"/>
<path opacity="0.1" d="M253.93 188.007C252.268 188.565 246.442 187.176 246.442 187.176C246.442 187.176 250.248 182.55 251.909 181.992C252.311 181.827 252.743 181.746 253.178 181.755C253.613 181.764 254.041 181.861 254.436 182.042C254.832 182.223 255.186 182.483 255.477 182.806C255.768 183.129 255.99 183.509 256.128 183.921C256.267 184.333 256.319 184.77 256.282 185.203C256.246 185.636 256.12 186.057 255.914 186.44C255.708 186.823 255.426 187.16 255.084 187.429C254.743 187.699 254.35 187.895 253.93 188.007Z" fill="#6C63FF"/>
<path opacity="0.1" d="M243.426 200.845C241.711 200.489 237.381 196.348 237.381 196.348C237.381 196.348 243.001 194.276 244.718 194.632C245.495 194.848 246.16 195.352 246.58 196.041C246.999 196.729 247.141 197.552 246.977 198.341C246.813 199.131 246.355 199.829 245.695 200.293C245.036 200.758 244.225 200.954 243.426 200.843V200.845Z" fill="#6C63FF"/>
<path opacity="0.1" d="M233.292 208.769C231.542 208.708 226.574 205.36 226.574 205.36C226.574 205.36 231.764 202.363 233.515 202.427C234.317 202.508 235.059 202.892 235.589 203.5C236.119 204.108 236.398 204.895 236.37 205.701C236.342 206.507 236.008 207.273 235.437 207.842C234.865 208.411 234.098 208.742 233.292 208.767V208.769Z" fill="#6C63FF"/>
<path opacity="0.1" d="M241.018 183.288C241.242 185.026 245.036 189.66 245.036 189.66C245.036 189.66 247.533 184.216 247.311 182.477C247.283 182.043 247.167 181.619 246.97 181.231C246.772 180.844 246.497 180.501 246.161 180.224C245.826 179.947 245.437 179.742 245.019 179.622C244.601 179.501 244.163 179.468 243.731 179.523C243.3 179.579 242.885 179.722 242.511 179.945C242.137 180.167 241.813 180.464 241.559 180.817C241.304 181.17 241.125 181.571 241.032 181.996C240.939 182.421 240.934 182.861 241.018 183.288Z" fill="#6C63FF"/>
<path opacity="0.1" d="M229.282 192.714C230.015 194.304 235.023 197.592 235.023 197.592C235.023 197.592 235.778 191.649 235.045 190.06C234.888 189.654 234.651 189.284 234.346 188.974C234.041 188.664 233.676 188.42 233.274 188.256C232.871 188.093 232.439 188.013 232.004 188.024C231.569 188.034 231.141 188.133 230.747 188.315C230.352 188.497 229.999 188.758 229.709 189.082C229.419 189.406 229.198 189.786 229.061 190.198C228.924 190.611 228.873 191.047 228.911 191.48C228.949 191.913 229.075 192.334 229.282 192.716V192.714Z" fill="#6C63FF"/>
<path opacity="0.1" d="M219.132 203.432C219.585 205.125 223.967 209.211 223.967 209.211C223.967 209.211 225.715 203.482 225.26 201.789C225.176 201.362 225.004 200.957 224.757 200.599C224.509 200.241 224.191 199.938 223.821 199.708C223.452 199.478 223.039 199.326 222.608 199.262C222.178 199.198 221.739 199.224 221.318 199.336C220.898 199.449 220.505 199.647 220.164 199.918C219.824 200.188 219.542 200.526 219.337 200.91C219.132 201.294 219.008 201.716 218.973 202.15C218.938 202.584 218.992 203.02 219.132 203.432Z" fill="#6C63FF"/>
<path opacity="0.25" d="M255.867 177.147C254.776 178.518 249.131 180.525 249.131 180.525C249.131 180.525 249.81 174.564 250.901 173.203C251.15 172.848 251.469 172.547 251.838 172.32C252.208 172.092 252.62 171.943 253.049 171.881C253.478 171.818 253.916 171.845 254.335 171.958C254.754 172.071 255.145 172.269 255.484 172.539C255.824 172.809 256.104 173.145 256.309 173.528C256.514 173.91 256.638 174.331 256.674 174.763C256.71 175.195 256.657 175.63 256.519 176.041C256.38 176.452 256.159 176.831 255.869 177.153L255.867 177.147Z" fill="black"/>
<path opacity="0.25" d="M253.93 188.007C252.268 188.565 246.442 187.176 246.442 187.176C246.442 187.176 250.248 182.55 251.909 181.992C252.311 181.827 252.743 181.746 253.178 181.755C253.613 181.764 254.041 181.861 254.436 182.042C254.832 182.223 255.186 182.483 255.477 182.806C255.768 183.129 255.99 183.509 256.128 183.921C256.267 184.333 256.319 184.77 256.282 185.203C256.246 185.636 256.12 186.057 255.914 186.44C255.708 186.823 255.426 187.16 255.084 187.429C254.743 187.699 254.35 187.895 253.93 188.007Z" fill="black"/>
<path opacity="0.25" d="M243.426 200.845C241.711 200.489 237.381 196.348 237.381 196.348C237.381 196.348 243.001 194.276 244.718 194.632C245.495 194.848 246.16 195.352 246.58 196.041C246.999 196.729 247.141 197.552 246.977 198.341C246.813 199.131 246.355 199.829 245.695 200.293C245.036 200.758 244.225 200.954 243.426 200.843V200.845Z" fill="black"/>
<path opacity="0.25" d="M233.292 208.769C231.542 208.708 226.574 205.36 226.574 205.36C226.574 205.36 231.764 202.363 233.515 202.427C234.317 202.508 235.059 202.892 235.589 203.5C236.119 204.108 236.398 204.895 236.37 205.701C236.342 206.507 236.008 207.273 235.437 207.842C234.865 208.411 234.098 208.742 233.292 208.767V208.769Z" fill="black"/>
<path opacity="0.25" d="M241.018 183.288C241.242 185.026 245.036 189.66 245.036 189.66C245.036 189.66 247.533 184.216 247.311 182.477C247.283 182.043 247.167 181.619 246.97 181.231C246.772 180.844 246.497 180.501 246.161 180.224C245.826 179.947 245.437 179.742 245.019 179.622C244.601 179.501 244.163 179.468 243.731 179.523C243.3 179.579 242.885 179.722 242.511 179.945C242.137 180.167 241.813 180.464 241.559 180.817C241.304 181.17 241.125 181.571 241.032 181.996C240.939 182.421 240.934 182.861 241.018 183.288Z" fill="black"/>
<path opacity="0.25" d="M229.282 192.714C230.015 194.304 235.023 197.592 235.023 197.592C235.023 197.592 235.778 191.649 235.045 190.06C234.888 189.654 234.651 189.284 234.346 188.974C234.041 188.664 233.676 188.42 233.274 188.256C232.871 188.093 232.439 188.013 232.004 188.024C231.569 188.034 231.141 188.133 230.747 188.315C230.352 188.497 229.999 188.758 229.709 189.082C229.419 189.406 229.198 189.786 229.061 190.198C228.924 190.611 228.873 191.047 228.911 191.48C228.949 191.913 229.075 192.334 229.282 192.716V192.714Z" fill="black"/>
<path opacity="0.25" d="M219.132 203.432C219.585 205.125 223.967 209.211 223.967 209.211C223.967 209.211 225.715 203.482 225.26 201.789C225.176 201.362 225.004 200.957 224.757 200.599C224.509 200.241 224.191 199.938 223.821 199.708C223.452 199.478 223.039 199.326 222.608 199.262C222.178 199.198 221.739 199.224 221.318 199.336C220.898 199.449 220.505 199.647 220.164 199.918C219.824 200.188 219.542 200.526 219.337 200.91C219.132 201.294 219.008 201.716 218.973 202.15C218.938 202.584 218.992 203.02 219.132 203.432Z" fill="black"/>
<path opacity="0.1" d="M227.863 222.035C227.863 222.035 233.467 208.225 243.931 203.102C248.335 200.98 251.931 197.486 254.18 193.145C255.232 191.078 256.092 188.918 256.749 186.693" stroke="#556153" stroke-width="2" stroke-miterlimit="10"/>
<path opacity="0.1" d="M263.32 183.427C262.23 184.798 256.584 186.805 256.584 186.805C256.584 186.805 257.264 180.843 258.355 179.482C258.896 178.88 259.647 178.508 260.454 178.44C261.261 178.373 262.063 178.616 262.697 179.12C263.331 179.624 263.749 180.351 263.865 181.152C263.981 181.954 263.787 182.769 263.322 183.433L263.32 183.427Z" fill="#6C63FF"/>
<path opacity="0.1" d="M261.387 194.286C259.726 194.844 253.9 193.455 253.9 193.455C253.9 193.455 257.705 188.829 259.366 188.271C260.147 188.064 260.977 188.162 261.688 188.544C262.399 188.927 262.938 189.566 263.195 190.331C263.452 191.097 263.409 191.931 263.073 192.666C262.737 193.4 262.134 193.979 261.387 194.286Z" fill="#6C63FF"/>
<path opacity="0.1" d="M250.883 207.132C249.169 206.776 244.839 202.635 244.839 202.635C244.839 202.635 250.458 200.563 252.175 200.918C252.952 201.135 253.617 201.639 254.037 202.327C254.456 203.016 254.598 203.839 254.434 204.628C254.27 205.418 253.812 206.116 253.153 206.58C252.493 207.045 251.682 207.241 250.883 207.13V207.132Z" fill="#6C63FF"/>
<path opacity="0.1" d="M240.748 215.046C238.997 214.985 234.029 211.637 234.029 211.637C234.029 211.637 239.219 208.644 240.97 208.706C241.773 208.787 242.514 209.171 243.044 209.779C243.575 210.387 243.854 211.174 243.826 211.98C243.797 212.786 243.464 213.552 242.892 214.121C242.32 214.691 241.554 215.021 240.748 215.046Z" fill="#6C63FF"/>
<path opacity="0.1" d="M248.473 189.574C248.698 191.313 252.491 195.947 252.491 195.947C252.491 195.947 254.989 190.502 254.766 188.764C254.739 188.33 254.623 187.906 254.425 187.518C254.227 187.131 253.952 186.788 253.617 186.511C253.281 186.234 252.892 186.029 252.475 185.909C252.057 185.788 251.618 185.754 251.187 185.81C250.755 185.866 250.34 186.009 249.966 186.232C249.593 186.454 249.268 186.751 249.014 187.104C248.76 187.457 248.58 187.858 248.487 188.283C248.394 188.708 248.389 189.148 248.473 189.574Z" fill="#6C63FF"/>
<path opacity="0.1" d="M236.74 198.985C237.473 200.575 242.48 203.863 242.48 203.863C242.48 203.863 243.235 197.92 242.502 196.33C242.117 195.62 241.477 195.083 240.71 194.828C239.944 194.573 239.109 194.619 238.375 194.957C237.642 195.296 237.065 195.9 236.761 196.649C236.457 197.397 236.449 198.233 236.74 198.987V198.985Z" fill="#6C63FF"/>
<path opacity="0.1" d="M226.59 209.715C227.043 211.408 231.424 215.494 231.424 215.494C231.424 215.494 233.173 209.765 232.718 208.072C232.458 207.308 231.917 206.672 231.205 206.292C230.494 205.913 229.664 205.818 228.885 206.026C228.106 206.235 227.435 206.733 227.009 207.418C226.583 208.103 226.433 208.924 226.59 209.715Z" fill="#6C63FF"/>
</g>
<path opacity="0.1" d="M52.3546 162.438C55.8041 177.181 63.1066 189.926 74.6474 196.104C98.6312 208.943 152.721 202.322 193.09 194.713C213.487 190.883 232.002 180.3 245.654 164.669L52.3546 162.438Z" fill="#6C63FF"/>
<path opacity="0.1" d="M264.046 93.0375H241.896C241.388 93.0375 240.901 92.8358 240.542 92.4768C240.183 92.1177 239.981 91.6308 239.981 91.123C239.981 90.6152 240.183 90.1283 240.542 89.7692C240.901 89.4102 241.388 89.2085 241.896 89.2085H245.725C245.217 89.2085 244.73 89.0068 244.371 88.6477C244.012 88.2887 243.811 87.8017 243.811 87.294C243.811 86.7862 244.012 86.2992 244.371 85.9402C244.73 85.5811 245.217 85.3794 245.725 85.3794H242.991C242.483 85.3794 241.996 85.1777 241.637 84.8187C241.278 84.4596 241.076 83.9727 241.076 83.4649C241.076 82.9571 241.278 82.4702 241.637 82.1111C241.996 81.7521 242.483 81.5504 242.991 81.5504H254.552C251.986 80.3581 248.988 79.5097 245.534 79.0646C214.012 75.0149 202.757 77.6935 198.787 80.4555C193.889 83.8534 188.424 86.3531 182.584 87.5572C163.133 91.5651 126.76 96.3937 93.7927 86.0073C77.4074 80.841 65.2288 89.5681 57.9303 104.145H267.891C267.616 99.9088 266.796 95.9983 265.29 92.5726C264.944 92.8718 264.503 93.0369 264.046 93.0375Z" fill="#6C63FF"/>
<path opacity="0.1" d="M50.4749 131.664C49.6246 140.239 49.9139 148.889 51.3353 157.388L245.805 164.5C251.218 158.273 255.763 151.341 259.316 143.894L50.4749 131.664ZM127.39 150.014H123.561C124.069 150.014 124.556 150.216 124.915 150.575C125.274 150.934 125.475 151.421 125.475 151.929C125.475 152.437 125.274 152.924 124.915 153.283C124.556 153.642 124.069 153.843 123.561 153.843H101.411C100.903 153.843 100.416 153.642 100.057 153.283C99.6983 152.924 99.4966 152.437 99.4966 151.929C99.4966 151.421 99.6983 150.934 100.057 150.575C100.416 150.216 100.903 150.014 101.411 150.014H105.24C104.732 150.014 104.245 149.813 103.886 149.454C103.527 149.094 103.326 148.608 103.326 148.1C103.326 147.592 103.527 147.105 103.886 146.746C104.245 146.387 104.732 146.185 105.24 146.185H102.506C101.998 146.185 101.511 145.984 101.152 145.624C100.793 145.265 100.591 144.778 100.591 144.271C100.591 143.763 100.793 143.276 101.152 142.917C101.511 142.558 101.998 142.356 102.506 142.356H124.656C125.163 142.356 125.65 142.558 126.009 142.917C126.369 143.276 126.57 143.763 126.57 144.271C126.57 144.778 126.369 145.265 126.009 145.624C125.65 145.984 125.163 146.185 124.656 146.185H127.39C127.898 146.185 128.385 146.387 128.744 146.746C129.103 147.105 129.304 147.592 129.304 148.1C129.304 148.608 129.103 149.094 128.744 149.454C128.385 149.813 127.898 150.014 127.39 150.014Z" fill="#6C63FF"/>
<path opacity="0.1" d="M267.901 104.278L55.5856 109.445C53.0044 116.083 51.3015 123.589 50.5067 131.368H264.181C265.576 126.798 266.608 122.125 267.267 117.393C267.903 112.821 268.157 108.397 267.901 104.278ZM93.6099 121.202H89.7809C90.2886 121.202 90.7756 121.404 91.1347 121.763C91.4937 122.122 91.6954 122.609 91.6954 123.117C91.6954 123.624 91.4937 124.111 91.1347 124.47C90.7756 124.829 90.2886 125.031 89.7809 125.031H67.6312C67.1234 125.031 66.6364 124.829 66.2774 124.47C65.9183 124.111 65.7166 123.624 65.7166 123.117C65.7166 122.609 65.9183 122.122 66.2774 121.763C66.6364 121.404 67.1234 121.202 67.6312 121.202H71.4602C70.9525 121.202 70.4655 121 70.1064 120.641C69.7474 120.282 69.5457 119.795 69.5457 119.288C69.5457 118.78 69.7474 118.293 70.1064 117.934C70.4655 117.575 70.9525 117.373 71.4602 117.373H68.726C68.2183 117.373 67.7313 117.171 67.3723 116.812C67.0132 116.453 66.8115 115.966 66.8115 115.458C66.8115 114.951 67.0132 114.464 67.3723 114.105C67.7313 113.746 68.2183 113.544 68.726 113.544H90.8758C91.3835 113.544 91.8705 113.746 92.2295 114.105C92.5886 114.464 92.7903 114.951 92.7903 115.458C92.7903 115.966 92.5886 116.453 92.2295 116.812C91.8705 117.171 91.3835 117.373 90.8758 117.373H93.6099C94.1177 117.373 94.6047 117.575 94.9637 117.934C95.3228 118.293 95.5245 118.78 95.5245 119.288C95.5245 119.795 95.3228 120.282 94.9637 120.641C94.6047 121 94.1177 121.202 93.6099 121.202Z" fill="#6C63FF"/>
<path d="M236.521 238.21C236.521 238.21 227.667 189.646 210.783 181.766C196.476 175.083 181.005 170.578 176.605 169.356C175.948 168.298 175.189 167.307 174.338 166.398C168.325 160.121 164.713 160.238 164.129 160.315C163.851 159.07 163.652 157.81 163.532 156.54C163.515 156.341 163.497 156.156 163.481 155.96L163.532 155.934C163.497 155.558 163.465 155.171 163.437 154.771C165.892 153.461 168.151 151.815 170.151 149.881C170.177 149.967 170.199 150.052 170.227 150.14C174.56 146.477 178.804 142.715 182.958 138.853C184.15 137.738 185.402 136.528 185.807 134.956C185.937 134.416 185.987 133.859 185.956 133.303C186.01 132.111 185.728 130.893 185.68 129.685C185.68 129.486 185.702 129.301 185.728 129.112C186.006 127.135 187.381 125.512 188.51 123.853C191.33 119.66 192.801 114.706 192.728 109.653C192.759 107.232 192.424 104.821 191.735 102.5C190.854 99.555 189.022 96.4612 185.972 95.8173C184.792 95.569 183.566 95.724 182.362 95.6465C177.376 95.3285 173.645 91.2749 169.668 88.3043C164.816 84.6962 159.077 82.4688 153.061 81.8583C151.183 81.6596 149.244 81.6457 147.457 82.2418C143.445 83.5771 141.009 87.7002 137.144 89.3952C134.287 90.655 130.984 90.4503 128.004 91.3961C123.567 92.807 119.801 97.3573 119.702 102.033C119.702 102.206 119.702 102.379 119.702 102.551C119.702 102.581 119.702 102.611 119.702 102.639C119.652 105.002 120.497 107.408 120.564 109.826C120.564 110.045 120.568 110.264 120.574 110.484C120.552 113.095 120.24 115.714 119.289 118.168C118.776 119.489 118.116 121.019 118.224 122.341C118.164 123.149 118.321 123.908 118.883 124.526L119.843 123.68C119.521 125.422 119.36 127.19 119.36 128.961C119.36 137.891 123.422 145.887 129.828 151.268C129.865 151.863 129.901 152.5 129.935 153.18C130.086 156.125 130.206 159.818 130.172 163.844L120.801 172.458L96.7097 183.387C96.7097 183.387 74.6772 188.041 79.4223 218.993L81.6876 238.212H101.803L101.757 238.313H131.612L131.63 238.212H202.664L202.65 238.313H205.432V238.212L236.521 238.21ZM164.305 160.808C164.914 162.068 165.394 163.386 165.736 164.742C165.033 163.437 164.514 162.041 164.192 160.593L164.222 160.647L164.305 160.808ZM130.164 164.782C130.164 165.161 130.157 165.543 130.144 165.929L130.096 165.996C130.093 165.587 130.116 165.178 130.164 164.772V164.782Z" fill="url(#paint0_linear_35_428)"/>
<path d="M172.164 169.657L168.19 207.609L146.929 214.365C146.929 214.365 119.309 209.199 126.462 194.296C131.551 183.695 131.41 164.75 130.905 154.696C130.706 150.615 130.436 147.998 130.436 147.998C130.436 147.998 166.601 116.403 163.62 144.818C163.044 150.32 163.01 154.622 163.33 157.985C164.671 171.981 172.164 169.657 172.164 169.657Z" fill="#FDC2CC"/>
<path opacity="0.03" d="M172.164 169.657L168.19 207.609L146.929 214.365C146.929 214.365 119.309 209.199 126.462 194.296C131.551 183.695 131.41 164.75 130.905 154.696C130.706 150.615 130.436 147.998 130.436 147.998C130.436 147.998 166.601 116.403 163.62 144.818C163.044 150.32 163.01 154.622 163.33 157.985C164.671 171.981 172.164 169.657 172.164 169.657Z" fill="black"/>
<path opacity="0.1" d="M163.62 144.222C163.044 149.724 163.01 154.026 163.33 157.388C158.224 160.176 152.395 161.353 146.608 160.766C140.821 160.179 135.347 157.855 130.905 154.1C130.706 150.018 130.436 147.401 130.436 147.401C130.436 147.401 166.6 115.807 163.62 144.222Z" fill="black"/>
<path d="M149.512 159.723C165.424 159.723 178.324 146.823 178.324 130.911C178.324 114.998 165.424 102.098 149.512 102.098C133.599 102.098 120.699 114.998 120.699 130.911C120.699 146.823 133.599 159.723 149.512 159.723Z" fill="#FDC2CC"/>
<path opacity="0.03" d="M149.512 159.723C165.424 159.723 178.324 146.823 178.324 130.911C178.324 114.998 165.424 102.098 149.512 102.098C133.599 102.098 120.699 114.998 120.699 130.911C120.699 146.823 133.599 159.723 149.512 159.723Z" fill="black"/>
<path d="M145.979 138.462C146.015 138.454 146.083 138.749 145.411 138.953C144.71 139.147 143.59 138.724 143.3 138.03C142.926 137.362 142.985 136.553 143.043 135.722C143.117 134.839 143.194 133.938 143.275 132.992C143.665 129.119 144.221 125.99 144.519 126C144.816 126.013 144.741 129.161 144.353 133.035C144.243 133.978 144.138 134.88 144.036 135.762C143.918 136.601 143.808 137.332 144.032 137.896C144.198 138.464 144.864 138.744 145.299 138.701C145.741 138.654 145.903 138.426 145.979 138.462Z" fill="#241352"/>
<path d="M153.838 151.684C153.561 151.726 152.915 150.772 151.434 149.565C149.996 148.366 147.538 146.911 144.723 146.419C141.911 145.943 139.554 146.565 138.211 147.283C136.823 147.996 136.262 148.741 135.978 148.601C135.75 148.511 135.846 147.474 137.156 146.39C138.407 145.324 141.113 144.34 144.652 144.936C148.197 145.562 151.04 147.503 152.422 149.025C153.854 150.581 154.06 151.672 153.838 151.684Z" fill="#241352"/>
<path d="M151.017 125.332C150.767 124.762 153.34 123.424 156.584 124.277C159.836 125.111 161.409 127.523 160.909 127.903C160.431 128.353 158.545 127.13 155.994 126.503C153.461 125.809 151.209 125.959 151.017 125.332Z" fill="#241352"/>
<path d="M132.02 122.253C131.76 121.9 134.018 120.817 137.175 121.027C140.333 121.219 142.298 122.569 141.963 122.885C141.643 123.244 139.587 122.661 136.998 122.517C134.408 122.331 132.245 122.647 132.02 122.253Z" fill="#241352"/>
<path d="M153.777 133C153.236 132.982 152.902 132.294 153.026 131.466C153.146 130.637 153.687 129.982 154.223 130C154.76 130.018 155.098 130.706 154.974 131.534C154.85 132.361 154.317 133.018 153.777 133Z" fill="#241352"/>
<path d="M135.777 131C135.236 130.982 134.902 130.294 135.026 129.466C135.146 128.637 135.687 127.982 136.223 128C136.76 128.018 137.098 128.706 136.974 129.534C136.85 130.361 136.317 131.018 135.777 131Z" fill="#241352"/>
<path opacity="0.1" d="M102.021 208.007C102.021 208.007 111.36 227.082 111.857 238.309L102.021 208.007Z" fill="black"/>
<path opacity="0.1" d="M203.758 218.938L201.076 238.311H203.758V218.938Z" fill="black"/>
<path opacity="0.1" d="M104.54 239.113L117.68 204.75C117.68 204.75 121.459 196.607 122.063 188.62C122.667 180.632 127.414 167.867 127.414 167.867C127.414 167.867 139.886 150.346 146.155 152.427C152.424 154.508 141.35 164.002 141.35 164.002C141.35 164.002 158.54 169.726 147.981 189.739C137.421 209.752 137.048 206.189 137.048 206.189L132.921 237.725L104.54 239.113Z" fill="black"/>
<path d="M104.143 239.133L117.283 204.769C117.283 204.769 121.062 196.626 121.666 188.639C122.051 183.561 124.109 176.551 125.557 172.118C126.502 169.219 127.969 166.518 129.886 164.147C133.95 159.126 141.378 150.986 145.758 152.443C152.027 154.523 140.953 164.017 140.953 164.017C140.953 164.017 158.143 169.742 147.584 189.755C137.024 209.768 136.651 206.205 136.651 206.205L132.524 237.74L104.143 239.133Z" fill="#FDC2CC"/>
<path opacity="0.15" d="M158.354 115.312C158.683 115.312 158.95 115.045 158.95 114.716C158.95 114.387 158.683 114.12 158.354 114.12C158.025 114.12 157.758 114.387 157.758 114.716C157.758 115.045 158.025 115.312 158.354 115.312Z" fill="white"/>
<path opacity="0.15" d="M155.572 116.505C155.902 116.505 156.168 116.238 156.168 115.909C156.168 115.579 155.902 115.312 155.572 115.312C155.243 115.312 154.976 115.579 154.976 115.909C154.976 116.238 155.243 116.505 155.572 116.505Z" fill="white"/>
<path opacity="0.1" d="M129.043 94.6014C131.918 93.6714 135.11 93.8721 137.868 92.6362C141.597 90.9631 143.948 86.9134 147.819 85.602C149.544 85.0178 151.415 85.0396 153.226 85.2264C159.047 85.8322 164.59 88.0226 169.253 91.5592C173.09 94.4782 176.691 98.4582 181.501 98.7702C182.664 98.8457 183.846 98.6927 184.985 98.9371C187.934 99.569 189.7 102.607 190.549 105.494C191.53 108.916 191.76 112.51 191.223 116.028C190.686 119.547 189.394 122.909 187.437 125.882C186.348 127.511 185.021 129.107 184.752 131.048C184.49 132.952 185.301 134.925 184.828 136.789C184.43 138.333 183.238 139.521 182.078 140.616C178.07 144.406 173.975 148.098 169.792 151.693C167.618 144.786 170.807 137.349 170.31 130.126C170.112 127.312 169.118 124.24 166.636 122.913C164.313 121.673 161.345 122.317 158.994 121.125C156.371 119.803 155.294 116.674 153.311 114.508C149.933 110.812 144.069 110.335 139.346 112.004C134.623 113.673 130.762 117.107 127.026 120.455L120.237 126.545C118.911 125.051 119.917 122.758 120.634 120.89C121.703 118.09 121.937 115.072 121.866 112.099C121.808 109.715 120.986 107.36 121.033 105.039C121.129 100.461 124.761 95.9863 129.043 94.6014Z" fill="black"/>
<path d="M129.043 94.0052C131.918 93.0752 135.11 93.2759 137.868 92.04C141.597 90.3669 143.948 86.3172 147.819 85.0058C149.544 84.4216 151.415 84.4434 153.226 84.6302C159.047 85.2361 164.59 87.4264 169.253 90.963C173.09 93.882 176.691 97.862 181.501 98.174C182.664 98.2495 183.846 98.0965 184.985 98.3409C187.934 98.9728 189.7 102.011 190.549 104.898C191.53 108.32 191.76 111.913 191.223 115.432C190.686 118.951 189.394 122.312 187.437 125.285C186.348 126.915 185.021 128.51 184.752 130.452C184.49 132.355 185.301 134.329 184.828 136.192C184.43 137.736 183.238 138.925 182.078 140.019C178.07 143.809 173.975 147.502 169.792 151.097C167.618 144.19 170.807 136.753 170.31 129.53C170.112 126.716 169.118 123.644 166.636 122.317C164.313 121.077 161.345 121.721 158.994 120.528C156.371 119.207 155.294 116.077 153.311 113.912C149.933 110.216 144.069 109.739 139.346 111.408C134.623 113.077 130.762 116.511 127.026 119.859L120.237 125.949C118.911 124.455 119.917 122.162 120.634 120.294C121.703 117.494 121.937 114.476 121.866 111.503C121.808 109.119 120.986 106.764 121.033 104.443C121.129 99.865 124.761 95.3901 129.043 94.0052Z" fill="#865A61"/>
<path d="M25.4796 185.811C22.871 188.09 21.878 191.638 24.3671 194.375C26.7084 196.953 31.2432 197.499 34.169 195.444C41.2327 190.486 33.8701 181.335 26.2468 183.229C24.8354 183.579 25.1874 185.41 26.5822 185.482C28.8106 185.597 31.1967 185.675 32.9784 187.095C34.8897 188.622 34.9312 191.203 33.362 192.958C29.2074 197.605 21.9893 190.762 26.3547 186.607C26.9043 186.083 26.0558 185.308 25.4796 185.811Z" fill="#7CABFF"/>
<path d="M280.943 119.639C281.9 122.869 282.954 126.065 284.049 129.259C284.311 130.028 285.111 130.268 285.837 129.819C288.693 128.055 291.549 126.321 294.254 124.369C294.774 123.993 294.659 123.236 294.144 122.914C290.978 120.937 286.702 118.02 282.684 118C281.661 117.994 280.947 119.302 281.983 119.845C283.605 120.696 285.546 120.999 287.28 121.655C289.281 122.41 291.258 123.298 293.024 124.444C293.063 123.914 293.102 123.382 293.143 122.852C290.119 124.547 287.273 126.444 284.399 128.335C284.965 128.437 285.53 128.542 286.096 128.644C284.869 125.489 283.61 122.356 282.25 119.246C281.963 118.59 280.739 118.95 280.943 119.639Z" fill="#FF7181"/>
<path d="M304.005 181.093C308.248 179.244 312.591 177.12 316.416 174.625C317.82 173.708 316.437 171.92 314.956 172.625C310.868 174.572 306.884 177.088 303.238 179.654C302.506 180.169 303.044 181.511 304.005 181.093Z" fill="#FBC580"/>
<path d="M6.26342 222.126C5.37671 217.924 4.221 213.563 2.53892 209.565C1.92122 208.095 -0.332076 208.858 0.0415359 210.34C1.0727 214.431 2.73652 218.575 4.53816 222.435C4.90015 223.21 6.46434 223.077 6.26342 222.126Z" fill="#FF957E"/>
<path d="M12.0571 136.775C12.2713 135.481 12.2298 134.249 13.0285 133.107C14.6159 130.833 16.8709 131.405 19.0561 132.405C21.2812 133.424 23.375 134.034 25.7927 133.083C29.572 131.595 31.3438 126.414 27.7388 123.976C26.5715 123.186 25.4224 124.489 25.5802 125.486C25.796 126.882 26.5566 128.415 25.2431 129.614C23.4896 131.216 21.4306 129.871 19.6788 129.152C17.7858 128.375 15.7733 128.205 13.8222 128.922C10.4597 130.159 8.02209 134.305 10.6922 137.103C11.0674 137.499 11.9674 137.321 12.0571 136.775Z" fill="#7E2E84"/>
<path d="M271.388 219.012C272.345 222.244 273.399 225.438 274.493 228.632C274.756 229.401 275.556 229.641 276.282 229.193C279.138 227.43 281.994 225.695 284.697 223.742C285.217 223.366 285.104 222.609 284.589 222.288C281.423 220.311 277.145 217.393 273.127 217.373C272.106 217.367 271.392 218.675 272.428 219.219C274.05 220.069 275.991 220.373 277.723 221.028C279.724 221.783 281.703 222.671 283.468 223.817L283.586 222.226C280.564 223.92 277.718 225.817 274.844 227.708C275.408 227.811 275.975 227.915 276.541 228.018C275.314 224.863 274.055 221.729 272.695 218.619C272.408 217.964 271.184 218.323 271.388 219.012Z" fill="#978E40"/>
<path d="M309.316 73.5726L306.265 73.6284L306.126 66.0369C307.563 65.4246 308.763 64.7271 309.726 63.9444C310.704 63.1451 311.478 62.2926 312.048 61.3868C312.633 60.4645 313.039 59.5129 313.265 58.5321C313.507 57.5347 313.619 56.5396 313.601 55.5469C313.585 54.6844 313.465 53.9053 313.241 53.2094C313.016 52.4972 312.68 51.901 312.232 51.4209C311.783 50.9244 311.206 50.5443 310.502 50.2804C309.813 50.0163 308.989 49.893 308.029 49.9105C306.987 49.9296 306.111 50.1165 305.402 50.4713C304.708 50.8259 304.147 51.3001 303.718 51.8939C303.29 52.4878 302.985 53.1771 302.804 53.9618C302.623 54.7302 302.54 55.5457 302.556 56.4081C301.953 56.4191 301.399 56.3642 300.892 56.2432C300.385 56.106 299.942 55.9106 299.563 55.657C299.2 55.3869 298.909 55.0504 298.69 54.6474C298.471 54.2445 298.356 53.7745 298.347 53.2375C298.332 52.4401 298.497 51.6964 298.843 51.0063C299.205 50.316 299.763 49.7116 300.519 49.1932C301.291 48.6744 302.26 48.266 303.427 47.968C304.593 47.6536 305.982 47.4817 307.593 47.4523C309.171 47.4234 310.632 47.6002 311.973 47.9826C313.315 48.3651 314.482 48.9379 315.472 49.7012C316.463 50.4482 317.245 51.3781 317.819 52.4908C318.392 53.6036 318.692 54.876 318.719 56.308C318.744 57.675 318.547 58.9239 318.128 60.0548C317.725 61.1854 317.117 62.2221 316.304 63.1648C315.491 64.1076 314.49 64.9724 313.3 65.7592C312.109 66.5461 310.747 67.271 309.213 67.9339L309.316 73.5726ZM304.708 80.6648C304.696 80.0139 304.768 79.4754 304.923 79.0493C305.078 78.607 305.291 78.2531 305.563 77.9876C305.851 77.7219 306.181 77.5287 306.553 77.4079C306.942 77.2869 307.356 77.2223 307.795 77.2143C308.218 77.2065 308.618 77.2562 308.994 77.3633C309.387 77.4701 309.724 77.6511 310.005 77.9064C310.303 78.1614 310.537 78.5072 310.708 78.9436C310.895 79.3634 310.994 79.8988 311.006 80.5497C311.018 81.1844 310.938 81.723 310.767 82.1657C310.612 82.608 310.391 82.9621 310.103 83.2278C309.831 83.4932 309.501 83.6865 309.112 83.8075C308.74 83.9283 308.342 83.9925 307.919 84.0003C307.48 84.0083 307.064 83.9589 306.671 83.8521C306.295 83.7451 305.958 83.564 305.66 83.309C305.379 83.0537 305.153 82.7078 304.982 82.2714C304.811 81.835 304.72 81.2995 304.708 80.6648Z" fill="#FF7181"/>
<path d="M43.6304 65.3178C42.7499 66.2742 41.8804 66.9235 41.0217 67.2657C40.1875 67.6305 39.3568 67.7946 38.5297 67.7581C37.7025 67.7215 36.8582 67.5559 35.9967 67.2613C35.1824 66.9647 34.3558 66.6568 33.5169 66.3377C32.678 66.0185 31.8166 65.7239 30.9326 65.4538C30.0957 65.1817 29.2298 65.0642 28.3349 65.1012C28.1994 65.2484 27.9226 65.4014 27.5046 65.5602C27.1336 65.7171 26.8353 65.9182 26.6095 66.1634C26.2935 66.5067 26.0858 66.9046 25.9866 67.3569C25.9099 67.7847 25.8038 68.0722 25.6684 68.2193C25.42 68.4891 25.1546 68.6298 24.872 68.6415C24.8015 68.0782 24.8733 67.5327 25.0874 67.0049C25.326 66.4996 25.6371 66.0385 26.0209 65.6216L26.5628 65.033C26.7208 64.8613 26.8798 64.7132 27.0398 64.5886C26.7875 64.7642 26.5363 64.9633 26.286 65.186C26.0151 65.4803 25.7555 65.7623 25.5071 66.0321C25.1911 66.3754 24.9486 66.7865 24.7797 67.2653C24.6333 67.7196 24.5689 68.1586 24.5865 68.5825L23.7754 68.6515L23.8724 69.2844C23.9292 69.518 23.9748 69.7638 24.0091 70.0218C24.0433 70.2799 24.0418 70.5277 24.0044 70.7651C24.0142 71.0006 23.9626 71.1797 23.8497 71.3023C23.5788 71.5966 23.2152 71.647 22.759 71.4536C22.3499 71.2582 22.035 71.0589 21.8143 70.8557L21.3699 70.3787C20.9252 67.6134 21.6172 65.2376 23.4459 63.2511C23.8974 62.7606 24.3641 62.3521 24.846 62.0255C25.3279 61.6989 25.8211 61.36 26.3255 61.0089C26.0468 61.1147 25.7578 61.2565 25.4585 61.434C25.1591 61.6115 24.8495 61.8248 24.5295 62.0739C24.2096 62.3231 23.9019 62.5835 23.6064 62.8552C23.3336 63.1024 23.0956 63.3364 22.8924 63.5571C22.1699 64.3419 21.606 65.2498 21.2004 66.281C20.8194 67.3347 20.687 68.4136 20.8035 69.5175C20.473 68.9414 20.2828 68.3359 20.2329 67.7011C20.2076 67.0888 20.2888 66.4838 20.4764 65.8863C20.6639 65.2888 20.9232 64.7119 21.254 64.1557C21.6074 63.5749 21.9873 63.0637 22.3937 62.6223C22.9129 62.0583 23.5848 61.4761 24.4092 60.8758C25.2581 60.2981 26.0678 59.9108 26.8381 59.7138L26.9999 60.2025C28.0185 59.7357 29.0273 59.5996 30.0261 59.7942C31.0721 59.9868 32.0871 60.2869 33.0712 60.6944C34.0778 61.0774 35.0599 61.4378 36.0175 61.7757C37.0222 62.1116 38.0162 62.1884 38.9994 62.0062L39.2733 61.7825C39.5216 61.5128 39.7331 61.2091 39.9079 60.8716C40.1052 60.5096 40.2668 60.1373 40.3925 59.7546C40.3248 59.8282 40.2418 59.8198 40.1437 59.7295L40.107 59.6957C39.9774 59.9841 39.8242 60.2735 39.6475 60.5639C39.5179 60.8524 39.3515 61.107 39.1483 61.3277L38.7022 61.6646C37.6189 61.7094 36.6456 61.561 35.7822 61.2192C34.9659 60.8756 34.0667 60.5235 33.0846 60.1631C33.9441 60.4106 34.8639 60.691 35.8441 61.0044C36.8713 61.3157 37.8324 61.4529 38.7273 61.4159C39.066 61.048 39.3781 60.6105 39.6638 60.1033C39.9966 59.5941 40.2578 59.0643 40.4473 58.5139C40.684 57.9615 40.8274 57.4366 40.8776 56.9391C40.9503 56.4171 40.9093 55.9942 40.7543 55.6703L40.7205 55.7071L40.6837 55.6733L40.1039 55.3434C39.4514 54.9693 38.7019 54.5285 37.8552 54.021C37.0331 53.536 36.2546 53.2497 35.5197 53.1622C35.6286 52.9454 35.6415 52.6853 35.5582 52.3821C35.4748 52.0789 35.5122 51.8414 35.6702 51.6698C35.8057 51.5226 36.0751 51.4761 36.4783 51.5302C36.9061 51.6068 37.2039 51.6771 37.3717 51.7409L37.5264 51.2037C37.0211 50.9651 36.5384 50.702 36.0783 50.4144C35.6427 50.1493 35.2165 49.8249 34.7996 49.4411C34.6524 49.3056 34.5514 49.1447 34.4965 48.9582C34.4887 48.7698 34.5638 48.5898 34.7219 48.4181C35.196 47.9031 35.9069 47.6968 36.8548 47.7991C37.8252 47.8769 38.825 48.0951 39.8542 48.4535C40.9305 48.81 41.9278 49.2524 42.8461 49.7806C43.8115 50.3068 44.5149 50.7731 44.9564 51.1795C45.9373 52.0825 46.5596 53.1537 46.8232 54.3931C47.1113 55.6551 47.1413 56.9513 46.9133 58.2818C46.7098 59.6349 46.3036 60.9373 45.6949 62.1892C45.1087 63.4166 44.4205 64.4594 43.6304 65.3178ZM16.7446 77.4702C16.9506 77.8863 17.1413 78.2205 17.3169 78.4727C17.4699 78.7495 17.4977 79.1376 17.4004 79.637L16.844 79.8723L16.569 79.2114L16.9444 78.8774C16.8728 78.8568 16.8002 78.8126 16.7266 78.7449C16.5795 78.6094 16.4784 78.4485 16.4235 78.262C16.3932 78.0981 16.3167 77.9597 16.1941 77.8469C16.096 77.7566 15.9772 77.7379 15.8379 77.7908C15.6985 77.8438 15.595 77.907 15.5273 77.9806L15.9629 78.2457C16.0629 78.3831 16.1507 78.5092 16.2262 78.624C16.3263 78.7614 16.415 78.9111 16.4925 79.073C16.4189 79.0053 16.3566 78.9253 16.3056 78.833C16.2566 78.7879 16.1953 78.7315 16.1217 78.6637C15.8029 78.3702 15.3786 78.0929 14.8488 77.8317L15.0035 77.2946C15.0615 76.9855 15.144 76.699 15.251 76.4351C15.3355 76.1957 15.419 75.9327 15.5015 75.6462L15.6428 75.6404C15.7272 75.401 15.7862 75.1155 15.8197 74.7838L15.923 73.8595C15.9584 73.575 16.006 73.3017 16.066 73.0397C16.1259 72.7778 16.2462 72.5487 16.4268 72.3525C17.0126 72.2575 17.5817 72.3283 18.1341 72.5649C18.709 72.7771 19.205 73.075 19.6219 73.4588C19.6503 73.5756 19.6929 73.7507 19.7498 73.9843C19.8537 74.2159 19.9576 74.4475 20.0616 74.6791C20.1655 74.9107 20.2572 75.131 20.3366 75.3401C20.4386 75.5246 20.5264 75.6507 20.6 75.7184C20.6736 75.7861 20.782 75.8406 20.9252 75.8819L20.6999 76.422L20.3583 76.7192C20.1337 76.4218 19.9439 76.1112 19.789 75.7873C19.6114 75.488 19.4801 75.1632 19.3948 74.8128C19.4349 75.2122 19.5437 75.5616 19.7212 75.8609C19.8762 76.1848 20.0321 76.5322 20.189 76.9031L19.5765 77.4946L19.6501 77.5624L19.1789 78.148C18.9757 78.3687 18.7367 78.5791 18.4619 78.7792C18.1871 78.9793 17.9368 79.202 17.7111 79.4472L17.6714 79.3427C17.7087 79.1053 17.6528 78.8953 17.5038 78.7127C17.3792 78.5527 17.3007 78.3673 17.2684 78.1563L16.7446 77.4702ZM35.3877 66.2249C35.0011 66.005 34.4949 65.7429 33.869 65.4385C33.2675 65.1567 32.6313 64.8881 31.9602 64.6328C31.3136 64.4001 30.6567 64.2031 29.9895 64.042C29.394 63.9015 28.8852 63.8636 28.4633 63.9282C28.8626 63.8881 29.3601 63.9383 29.9557 64.0788C30.6003 64.2644 31.2469 64.4972 31.8954 64.777C32.5665 65.0323 33.2027 65.3009 33.8042 65.5827C34.4527 65.8626 34.9805 66.0766 35.3877 66.2249ZM30.0483 59.4748C29.1702 59.346 28.263 59.3717 27.3268 59.552C28.2385 59.3492 29.1447 59.2999 30.0454 59.4042C30.9461 59.5085 31.8272 59.7079 32.6887 60.0025C31.784 59.8041 30.9039 59.6282 30.0483 59.4748ZM37.5082 62.7402C37.2933 62.6783 37.0672 62.6287 36.8297 62.5913C37.0446 62.6532 37.2595 62.7151 37.4743 62.777C37.6402 62.7937 37.806 62.8104 37.9718 62.8272C37.806 62.8104 37.6515 62.7814 37.5082 62.7402Z" fill="#FF7181"/>
<path d="M127.67 28.894C128.683 29.7081 129.39 30.532 129.789 31.3657C130.209 32.1735 130.429 32.9912 130.448 33.819C130.467 34.6467 130.359 35.5003 130.123 36.3796C129.881 37.212 129.63 38.0575 129.368 38.9159C129.106 39.7744 128.87 40.6537 128.66 41.5539C128.445 42.4072 128.386 43.2791 128.483 44.1694C128.639 44.2947 128.81 44.5605 128.997 44.9669C129.178 45.3265 129.399 45.6107 129.659 45.8194C130.023 46.1116 130.434 46.2921 130.892 46.3606C131.323 46.4083 131.617 46.4948 131.773 46.6201C132.059 46.8497 132.218 47.1051 132.248 47.3863C131.691 47.4945 131.142 47.4596 130.601 47.2815C130.081 47.0774 129.6 46.798 129.158 46.4431L128.534 45.9421C128.352 45.796 128.194 45.6473 128.059 45.4961C128.251 45.7359 128.466 45.9732 128.705 46.208C129.017 46.4584 129.316 46.6985 129.602 46.9281C129.966 47.2204 130.392 47.4347 130.881 47.571C131.344 47.6864 131.787 47.7211 132.209 47.6751L132.332 48.4796L132.957 48.3403C133.186 48.2679 133.428 48.2059 133.683 48.1543C133.939 48.1028 134.186 48.0877 134.425 48.109C134.66 48.0834 134.842 48.1228 134.972 48.2272C135.284 48.4777 135.358 48.837 135.196 49.3052C135.029 49.7266 134.851 50.0542 134.663 50.2881L134.217 50.7635C131.488 51.3932 129.071 50.8627 126.966 49.1718C126.446 48.7543 126.007 48.3162 125.649 47.8574C125.291 47.3985 124.919 46.9293 124.535 46.4496C124.659 46.7205 124.82 46.9994 125.018 47.2861C125.215 47.5728 125.448 47.8674 125.719 48.1698C125.989 48.4723 126.269 48.7618 126.56 49.0383C126.825 49.2939 127.075 49.5156 127.309 49.7035C128.14 50.3715 129.084 50.8731 130.14 51.2084C131.217 51.5176 132.302 51.577 133.396 51.3866C132.843 51.7551 132.252 51.9856 131.622 52.0781C131.013 52.1445 130.404 52.1043 129.795 51.9573C129.186 51.8103 128.593 51.5905 128.016 51.2979C127.413 50.9843 126.877 50.6397 126.409 50.2639C125.812 49.7838 125.186 49.1527 124.531 48.3705C123.898 47.5624 123.457 46.7806 123.208 46.0253L123.685 45.831C123.151 44.8461 122.947 43.8488 123.074 42.8391C123.196 41.7826 123.427 40.7497 123.767 39.7404C124.082 38.7103 124.375 37.7061 124.648 36.728C124.915 35.703 124.925 34.7061 124.677 33.7373L124.436 33.4791C124.15 33.2495 123.833 33.0589 123.484 32.9072C123.11 32.7347 122.727 32.5986 122.337 32.4989C122.415 32.5615 122.412 32.6448 122.329 32.7488L122.298 32.7878C122.594 32.8977 122.893 33.031 123.195 33.1878C123.491 33.2977 123.756 33.4466 123.99 33.6344L124.356 34.0568C124.474 35.1347 124.391 36.1158 124.109 37.0002C123.821 37.8378 123.53 38.7586 123.236 39.7628C123.426 38.8886 123.643 37.952 123.89 36.9529C124.132 35.907 124.204 34.9389 124.107 34.0485C123.717 33.7354 123.259 33.4534 122.734 33.2025C122.204 32.9047 121.657 32.6798 121.095 32.5277C120.528 32.3288 119.995 32.221 119.495 32.2044C118.97 32.1669 118.55 32.2363 118.238 32.4127L118.277 32.444L118.245 32.483L117.955 33.0837C117.626 33.7598 117.237 34.5373 116.787 35.4162C116.359 36.2691 116.125 37.0651 116.087 37.8043C115.864 37.7101 115.604 37.7148 115.307 37.8184C115.01 37.9219 114.77 37.9006 114.588 37.7545C114.432 37.6292 114.368 37.3636 114.395 36.9576C114.442 36.5256 114.492 36.2238 114.545 36.0521L113.998 35.9339C113.794 36.4541 113.564 36.9534 113.308 37.4318C113.073 37.8842 112.778 38.3314 112.423 38.7731C112.298 38.9291 112.144 39.0407 111.962 39.108C111.774 39.1285 111.59 39.0656 111.408 38.9195C110.862 38.4811 110.608 37.7857 110.647 36.8331C110.659 35.8596 110.809 34.8474 111.098 33.7964C111.381 32.6985 111.755 31.6737 112.221 30.722C112.681 29.7234 113.099 28.9902 113.474 28.5224C114.309 27.4829 115.336 26.7899 116.555 26.4436C117.795 26.0712 119.086 25.954 120.429 26.092C121.793 26.204 123.119 26.5216 124.409 27.0447C125.673 27.547 126.76 28.1634 127.67 28.894ZM141.604 54.9011C142.005 54.6676 142.326 54.4548 142.566 54.2627C142.831 54.0914 143.217 54.0375 143.722 54.101L143.994 54.6403L143.353 54.9592L142.994 54.6071C142.979 54.68 142.939 54.7554 142.877 54.8333C142.752 54.9893 142.598 55.1009 142.415 55.1682C142.254 55.2095 142.121 55.2952 142.017 55.4251C141.933 55.529 141.922 55.6488 141.985 55.7842C142.047 55.9197 142.117 56.0187 142.195 56.0814L142.43 55.6289C142.56 55.5199 142.68 55.4238 142.79 55.3407C142.92 55.2317 143.064 55.133 143.22 55.0448C143.157 55.1228 143.082 55.1903 142.993 55.2474C142.951 55.2994 142.899 55.3644 142.837 55.4423C142.565 55.7802 142.317 56.2222 142.092 56.7683L141.546 56.6501C141.233 56.6131 140.942 56.55 140.671 56.461C140.427 56.3928 140.159 56.3272 139.868 56.2642L139.852 56.1236C139.608 56.0554 139.319 56.0158 138.986 56.0048L138.057 55.9639C137.77 55.9477 137.494 55.9185 137.229 55.8763C136.964 55.8342 136.727 55.7296 136.519 55.5626C136.385 54.9845 136.417 54.4119 136.616 53.8449C136.789 53.257 137.053 52.7421 137.408 52.3003C137.522 52.2641 137.694 52.2098 137.924 52.1374C138.148 52.0181 138.372 51.8988 138.596 51.7795C138.82 51.6602 139.034 51.5539 139.237 51.4606C139.414 51.3464 139.534 51.2503 139.597 51.1724C139.659 51.0944 139.706 50.9826 139.738 50.8369L140.292 51.0254L140.611 51.3462C140.33 51.5903 140.033 51.8005 139.72 51.9769C139.433 52.1742 139.118 52.3271 138.774 52.4358C139.17 52.3689 139.511 52.2368 139.798 52.0395C140.111 51.8632 140.447 51.6842 140.806 51.5027L141.438 52.074L141.5 51.996L142.116 52.4267C142.35 52.6146 142.576 52.8389 142.794 53.0996C143.012 53.3604 143.251 53.5951 143.511 53.8038L143.41 53.8505C143.17 53.8292 142.964 53.8991 142.792 54.0601C142.641 54.1952 142.461 54.2859 142.253 54.3323L141.604 54.9011ZM129.13 37.057C128.936 37.4575 128.709 37.9802 128.447 38.6252C128.206 39.2442 127.981 39.8971 127.772 40.5838C127.583 41.2446 127.431 41.9133 127.315 42.5898C127.215 43.1935 127.211 43.7036 127.304 44.1203C127.237 43.7245 127.254 43.2248 127.354 42.6211C127.496 41.9654 127.684 41.3047 127.92 40.6388C128.129 39.952 128.355 39.2992 128.595 38.6801C128.831 38.0143 129.009 37.4732 129.13 37.057ZM122.754 42.8385C122.685 43.7233 122.771 44.6267 123.014 45.5486C122.75 44.6527 122.64 43.7519 122.684 42.8461C122.727 41.9404 122.867 41.0479 123.103 40.1686C122.966 41.0845 122.849 41.9745 122.754 42.8385ZM125.51 35.1758C125.463 35.3943 125.428 35.6233 125.407 35.8627C125.454 35.6442 125.502 35.4256 125.549 35.2071C125.554 35.0405 125.56 34.8739 125.566 34.7073C125.56 34.8739 125.541 35.0301 125.51 35.1758Z" fill="#FF7181"/>
<path d="M224.015 31.1612C224.4 32.4029 224.524 33.4809 224.389 34.3953C224.286 35.2999 224.011 36.1006 223.564 36.7976C223.117 37.4946 222.55 38.1416 221.862 38.7386C221.197 39.294 220.516 39.8542 219.818 40.4194C219.121 40.9846 218.434 41.5817 217.756 42.2105C217.101 42.7977 216.564 43.4875 216.147 44.28C216.206 44.471 216.2 44.7872 216.127 45.2285C216.076 45.6281 216.101 45.987 216.199 46.3054C216.337 46.7511 216.577 47.1305 216.919 47.4434C217.25 47.7245 217.445 47.9606 217.505 48.1516C217.613 48.5018 217.602 48.8021 217.47 49.0523C216.947 48.8305 216.512 48.4945 216.163 48.0443C215.846 47.5842 215.603 47.0836 215.435 46.5424L215.198 45.7783C215.129 45.5554 215.081 45.3435 215.053 45.1426C215.079 45.4489 215.125 45.7662 215.192 46.0944C215.31 46.4765 215.424 46.8426 215.532 47.1928C215.67 47.6385 215.904 48.0547 216.233 48.4411C216.553 48.7958 216.9 49.072 217.276 49.2697L216.928 50.0056L217.524 50.2396C217.754 50.3077 217.99 50.3917 218.23 50.4917C218.471 50.5917 218.684 50.7174 218.871 50.8689C219.079 50.9788 219.208 51.1133 219.258 51.2725C219.376 51.6545 219.237 51.9942 218.841 52.2916C218.466 52.5473 218.136 52.7196 217.849 52.8085L217.214 52.9532C214.599 51.9493 212.892 50.1579 212.092 47.579C211.895 46.9422 211.776 46.3335 211.735 45.7528C211.695 45.172 211.649 44.5754 211.599 43.9628C211.551 44.257 211.528 44.5781 211.531 44.9261C211.535 45.2741 211.564 45.649 211.618 46.0508C211.673 46.4526 211.744 46.8494 211.83 47.2414C211.907 47.6015 211.99 47.9248 212.079 48.2113C212.395 49.2301 212.897 50.1738 213.585 51.0423C214.305 51.9009 215.171 52.557 216.185 53.0106C215.52 53.0072 214.901 52.8676 214.327 52.5919C213.785 52.3064 213.303 51.9325 212.88 51.4702C212.458 51.008 212.089 50.4941 211.774 49.9287C211.449 49.3314 211.198 48.7463 211.02 48.1732C210.793 47.4409 210.627 46.5676 210.522 45.5532C210.448 44.529 210.52 43.6343 210.736 42.8692L211.24 42.9747C211.348 41.8594 211.737 40.9187 212.407 40.1526C213.099 39.3448 213.868 38.6177 214.714 37.9713C215.551 37.2931 216.356 36.6247 217.129 35.9662C217.924 35.266 218.489 34.445 218.825 33.5032L218.769 33.1541C218.661 32.8039 218.504 32.4685 218.3 32.1479C218.086 31.7955 217.845 31.4688 217.578 31.168C217.607 31.2635 217.558 31.331 217.431 31.3705L217.383 31.3853C217.568 31.6422 217.741 31.92 217.903 32.2186C218.088 32.4755 218.224 32.7473 218.313 33.0338L218.381 33.5887C217.876 34.5481 217.258 35.3153 216.529 35.8904C215.822 36.4237 215.066 37.0246 214.261 37.6929C214.907 37.0739 215.611 36.4193 216.375 35.7289C217.16 34.9969 217.761 34.2346 218.178 33.4421C218.03 32.9646 217.808 32.4749 217.513 31.9732C217.24 31.4297 216.913 30.9378 216.532 30.4975C216.173 30.0155 215.791 29.6279 215.386 29.3347C214.972 29.0097 214.585 28.8329 214.227 28.8042L214.242 28.852L214.194 28.8668L213.618 29.2026C212.967 29.579 212.209 30.0058 211.345 30.4832C210.513 30.9506 209.875 31.4802 209.43 32.0718C209.297 31.8686 209.079 31.727 208.775 31.6468C208.47 31.5666 208.284 31.415 208.215 31.1922C208.156 31.0011 208.251 30.7448 208.5 30.4232C208.781 30.0918 208.991 29.8695 209.131 29.7565L208.744 29.353C208.284 29.6701 207.814 29.9554 207.334 30.2089C206.886 30.4525 206.391 30.6582 205.85 30.8261C205.659 30.8853 205.469 30.8919 205.28 30.8457C205.114 30.7578 204.996 30.6025 204.927 30.3796C204.719 29.711 204.898 28.9926 205.462 28.2243C206.017 27.4241 206.707 26.669 207.534 25.9589C208.383 25.2071 209.266 24.5668 210.184 24.0379C211.124 23.4672 211.88 23.0931 212.454 22.9154C213.727 22.5205 214.966 22.5202 216.17 22.9146C217.406 23.2991 218.542 23.924 219.578 24.7893C220.646 25.6447 221.569 26.6499 222.346 27.8049C223.113 28.9281 223.669 30.0469 224.015 31.1612ZM221.024 60.5139C221.487 60.5448 221.872 60.5476 222.178 60.5224C222.495 60.5291 222.844 60.6999 223.227 61.0348L223.151 61.6341L222.442 61.5401L222.341 61.0477C222.287 61.0993 222.213 61.1399 222.117 61.1695C221.926 61.2288 221.736 61.2353 221.548 61.1892C221.391 61.1332 221.232 61.1298 221.073 61.1792C220.946 61.2187 220.87 61.312 220.846 61.4591C220.822 61.6062 220.825 61.7275 220.854 61.823L221.302 61.5794C221.471 61.5619 221.624 61.5493 221.762 61.5416C221.931 61.5241 222.105 61.5225 222.284 61.5368C222.188 61.5664 222.088 61.5801 221.982 61.5779C221.918 61.5976 221.839 61.6223 221.743 61.6519C221.329 61.7803 220.877 62.008 220.385 62.335L219.998 61.9315C219.76 61.7261 219.553 61.5109 219.379 61.2858C219.214 61.0926 219.029 60.8884 218.822 60.6731L218.888 60.548C218.724 60.3548 218.506 60.1604 218.236 59.9649L217.489 59.4115C217.261 59.238 217.048 59.0596 216.852 58.8762C216.655 58.6928 216.518 58.4738 216.439 58.2191C216.651 57.6647 216.998 57.2082 217.48 56.8493C217.952 56.4586 218.458 56.1793 219 56.0115C219.115 56.0455 219.288 56.0966 219.518 56.1647C219.771 56.1911 220.023 56.2176 220.276 56.244C220.528 56.2704 220.765 56.3017 220.985 56.338C221.196 56.3424 221.349 56.3298 221.445 56.3002C221.54 56.2706 221.642 56.2042 221.75 56.101L222.104 56.5671L222.189 57.0117C221.819 57.0567 221.455 57.0648 221.097 57.0362C220.749 57.0394 220.402 56.9899 220.057 56.8878C220.422 57.0536 220.779 57.1349 221.127 57.1317C221.485 57.1603 221.864 57.1999 222.263 57.2505L222.467 58.0772L222.563 58.0476L222.832 58.7491C222.921 59.0357 222.983 59.348 223.018 59.6861C223.053 60.0242 223.12 60.3525 223.219 60.6709L223.109 60.6527C222.922 60.5012 222.712 60.4441 222.48 60.4813C222.279 60.5087 222.079 60.4834 221.88 60.4054L221.024 60.5139ZM220.66 38.745C220.276 38.9688 219.795 39.275 219.217 39.6635C218.672 40.0421 218.12 40.4575 217.562 40.9096C217.036 41.3519 216.536 41.8211 216.062 42.3172C215.641 42.7617 215.353 43.1826 215.197 43.58C215.363 43.2144 215.656 42.8094 216.077 42.3649C216.561 41.9007 217.087 41.4584 217.654 41.0381C218.212 40.5859 218.764 40.1705 219.31 39.7919C219.877 39.3716 220.327 39.0226 220.66 38.745ZM212.142 39.9731C211.589 40.6678 211.156 41.4653 210.842 42.3654C211.124 41.4751 211.537 40.6667 212.079 39.9401C212.622 39.2135 213.237 38.5517 213.924 37.9547C213.298 38.6373 212.704 39.3101 212.142 39.9731ZM218.711 35.1614C218.55 35.3161 218.393 35.4868 218.242 35.6734C218.403 35.5186 218.565 35.3639 218.726 35.2091C218.824 35.0741 218.922 34.9391 219.019 34.8041C218.922 34.9391 218.819 35.0582 218.711 35.1614Z" fill="#FF7181"/>
<defs>
<linearGradient id="paint0_linear_35_428" x1="157.635" y1="238.309" x2="157.635" y2="81.7251" gradientUnits="userSpaceOnUse">
<stop stop-color="#808080" stop-opacity="0.25"/>
<stop offset="0.54" stop-color="#808080" stop-opacity="0.12"/>
<stop offset="1" stop-color="#808080" stop-opacity="0.1"/>
</linearGradient>
</defs>
</svg>
