<svg width="14" height="18" viewBox="0 0 14 18" fill="none" xmlns="http://www.w3.org/2000/svg">
<g clip-path="url(#clip0_24_3577)">
<path d="M6.98633 1.25208C3.28648 1.25208 0.28717 5.00121 0.28717 9.62603C0.28717 11.4402 0.748842 13.1195 1.53312 14.4907L5.02839 17.6362C5.64778 17.8725 6.30509 18 6.98633 18C10.6862 18 13.6855 14.2509 13.6855 9.62603C13.6855 5.00121 10.6862 1.25208 6.98633 1.25208Z" fill="#965B27"/>
<path d="M2.8195 16.0152L11.4862 13.0244V1.06913C11.4862 0.754809 11.2824 0.5 11.0309 0.5H1.98841C1.73693 0.5 1.53308 0.754809 1.53308 1.06913V14.4907C1.8743 15.0873 2.27683 15.6253 2.72885 16.0908C2.74958 16.055 2.78017 16.0269 2.8195 16.0152Z" fill="#FFE8C2"/>
<path d="M1.98841 0.5C1.73696 0.5 1.53308 0.754809 1.53308 1.06913V14.4907C1.8743 15.0873 2.27683 15.6253 2.72885 16.0908C2.7496 16.055 2.78017 16.0269 2.8195 16.0152L6.6086 14.7076C6.54705 14.6837 6.50964 14.6734 6.50964 14.6734C5.74711 14.4848 5.72223 13.2201 5.72223 13.2201C5.72223 13.2201 5.72223 9.04578 5.72223 8.33227C5.72223 7.61877 6.35887 7.34951 6.35887 7.34951L5.39142 2.58072C4.31022 1.94748 5.02086 0.5 5.02086 0.5L1.98841 0.5Z" fill="#FFD185"/>
<path d="M6.50966 2.17004C5.36574 2.17004 4.43512 3.33335 4.43512 4.76322C4.43512 5.66929 4.80907 6.46783 5.37391 6.93169H7.64541C8.21028 6.46787 8.58423 5.66929 8.58423 4.76322C8.58423 3.33332 7.65359 2.17004 6.50966 2.17004Z" fill="#FFDD40"/>
<path d="M6.32848 4.20397L5.63209 2.9356C5.38824 2.9356 5.39111 2.5993 5.39144 2.58081C4.81687 3.04241 4.43512 3.84792 4.43512 4.76332C4.43512 5.66939 4.80907 6.46793 5.37391 6.93178H6.32845V4.20397H6.32848Z" fill="#FFB332"/>
<path d="M7.34743 6.6012H5.67186C5.5187 6.6012 5.39153 6.74619 5.37329 6.93171C5.69991 7.20006 6.09041 7.35647 6.50964 7.35647C6.92888 7.35647 7.31937 7.20006 7.64599 6.93171C7.62776 6.74619 7.50058 6.6012 7.34743 6.6012Z" fill="#C7874E"/>
<path d="M6.27927 6.6012H5.67186C5.5187 6.6012 5.39153 6.74619 5.37329 6.93171C5.6604 7.16762 5.99689 7.31688 6.35884 7.34956C6.11354 7.10268 6.1857 6.84261 6.25548 6.70343C6.27121 6.67212 6.27875 6.63681 6.27927 6.6012Z" fill="#AF713B"/>
<path d="M9.62683 8.77735H3.39246C3.29416 8.77735 3.21448 8.67771 3.21448 8.55487C3.21448 8.432 3.29416 8.3324 3.39246 8.3324H9.62683C9.72513 8.3324 9.80481 8.432 9.80481 8.55487C9.80484 8.67771 9.72513 8.77735 9.62683 8.77735Z" fill="#F4BC6A"/>
<path d="M9.62683 9.66589H3.39246C3.29416 9.66589 3.21448 9.56629 3.21448 9.44342C3.21448 9.32055 3.29416 9.22095 3.39246 9.22095H9.62683C9.72513 9.22095 9.80481 9.32055 9.80481 9.44342C9.80484 9.56626 9.72513 9.66589 9.62683 9.66589Z" fill="#F4BC6A"/>
<path d="M9.62683 10.5544H3.39246C3.29416 10.5544 3.21448 10.4548 3.21448 10.332C3.21448 10.2091 3.29416 10.1095 3.39246 10.1095H9.62683C9.72513 10.1095 9.80481 10.2091 9.80481 10.332C9.80484 10.4548 9.72513 10.5544 9.62683 10.5544Z" fill="#F4BC6A"/>
<path d="M9.62683 11.443H3.39246C3.29416 11.443 3.21448 11.3434 3.21448 11.2205C3.21448 11.0976 3.29416 10.998 3.39246 10.998H9.62683C9.72513 10.998 9.80481 11.0976 9.80481 11.2205C9.80484 11.3434 9.72513 11.443 9.62683 11.443Z" fill="#F4BC6A"/>
<path d="M9.62683 12.3316H3.39246C3.29416 12.3316 3.21448 12.232 3.21448 12.1091C3.21448 11.9862 3.29416 11.8866 3.39246 11.8866H9.62683C9.72513 11.8866 9.80481 11.9862 9.80481 12.1091C9.80484 12.232 9.72513 12.3316 9.62683 12.3316Z" fill="#F4BC6A"/>
<path d="M6.77406 13.2201H3.39246C3.29416 13.2201 3.21448 13.1205 3.21448 12.9977C3.21448 12.8748 3.29416 12.7751 3.39246 12.7751H6.77406C6.87236 12.7751 6.95204 12.8747 6.95204 12.9977C6.95204 13.1205 6.87236 13.2201 6.77406 13.2201Z" fill="#F4BC6A"/>
<path d="M7.54982 11.1094L7.31267 13.0227C7.28664 13.2328 7.48094 13.3729 7.61343 13.2396L8.8197 12.0258L8.7979 11.7751L7.73344 11.0068L7.54982 11.1094Z" fill="white"/>
<path d="M7.66983 12.7477C7.66983 12.7477 8.0048 11.998 8.09366 11.8143C8.18253 11.6306 8.39609 11.7201 8.39609 11.7201L8.42212 11.5038L7.73344 11.0068L7.54982 11.1094L7.31267 13.0227C7.28664 13.2327 7.48097 13.3729 7.61342 13.2396L7.76578 13.0863C7.57356 12.972 7.66983 12.7477 7.66983 12.7477Z" fill="#FFF3E1"/>
<path d="M10.6967 4.41485L11.8853 5.27263C11.8998 5.28312 11.9119 5.29686 11.9216 5.31255L12.1736 4.76872C12.3754 4.3319 12.2545 3.76817 11.9051 3.51596C11.5556 3.26375 11.1046 3.41482 10.9029 3.85164L10.6509 4.39547C10.6666 4.39811 10.6822 4.40436 10.6967 4.41485Z" fill="#FF4155"/>
<path d="M7.96063 11.3949L7.97337 11.4152C7.99202 11.4286 8.01439 11.4297 8.03452 11.4201C8.10088 11.3884 8.17758 11.3928 8.24391 11.4407C8.31025 11.4885 8.35162 11.5694 8.36286 11.657C8.36625 11.6836 8.3782 11.7073 8.39685 11.7208L8.41796 11.7229L10.9829 6.16977L10.5262 5.84021L7.96063 11.3949Z" fill="#FFC839"/>
<path d="M7.5498 11.1094C7.56851 11.1229 7.5909 11.1239 7.61106 11.1143C7.67739 11.0827 7.75409 11.0871 7.8204 11.1349C7.88673 11.1828 7.92811 11.2636 7.93934 11.3513C7.94276 11.3779 7.95468 11.4016 7.97333 11.415L7.97339 11.4151L10.5428 5.85209L10.1192 5.54639L7.5498 11.1094Z" fill="#FFB332"/>
<path d="M8.39612 11.7201C8.41477 11.7336 8.43713 11.7347 8.45726 11.7251C8.52365 11.6934 8.6004 11.6978 8.66677 11.7457C8.73299 11.7935 8.77434 11.8743 8.78558 11.9619C8.78899 11.9886 8.80097 12.0123 8.8197 12.0258L11.3911 6.46439L10.9676 6.15845L8.39612 11.7201Z" fill="#FFDD40"/>
<path d="M11.9085 5.22223L10.7199 4.36446C10.6603 4.32146 10.5834 4.3472 10.549 4.42171L10.1042 5.38486C10.0698 5.45934 10.0904 5.55548 10.15 5.59848L11.3386 6.45626C11.3982 6.49925 11.4751 6.47352 11.5095 6.399L11.9543 5.43585C11.9887 5.36138 11.9681 5.26523 11.9085 5.22223Z" fill="#E0F5FC"/>
<path d="M10.7199 4.36446C10.6603 4.32146 10.5834 4.3472 10.549 4.42171L10.1042 5.38486C10.0698 5.45937 10.0904 5.55549 10.15 5.59852L10.8232 6.08438C10.8234 6.06972 10.822 6.05492 10.8184 6.04067C10.7659 5.83552 10.8509 5.74153 10.9231 5.69972C10.9643 5.6758 10.9891 5.62128 10.9818 5.56512C10.9613 5.40776 11.0382 5.32556 11.1034 5.28488C11.1434 5.2599 11.1689 5.20678 11.1627 5.15134C11.1432 4.97737 11.2577 4.88659 11.3224 4.84974C11.3343 4.84294 11.3447 4.83316 11.3536 4.82171L10.7199 4.36446Z" fill="#C5EBFC"/>
<path d="M10.2315 5.10925L10.4215 4.69791L11.8268 5.71209L11.6368 6.12343L10.2315 5.10925Z" fill="#C5EBFC"/>
<path d="M10.4216 4.69751L10.2316 5.10886L10.9712 5.64264C10.9811 5.61937 10.9853 5.59243 10.9817 5.56502C10.9612 5.40766 11.0381 5.32546 11.1033 5.28478C11.1246 5.27149 11.1416 5.25006 11.1521 5.2247L10.4216 4.69751Z" fill="#9BD8F9"/>
<path d="M7.83472 12.3255C7.70221 12.2298 7.55565 12.1924 7.41384 12.2065L7.31267 13.0227C7.28664 13.2327 7.48094 13.3729 7.6134 13.2396L8.12774 12.722C8.06665 12.5613 7.96736 12.4212 7.83472 12.3255Z" fill="#72597C"/>
<path d="M7.66984 12.7477C7.66984 12.7477 7.75627 12.5543 7.85296 12.3399C7.84683 12.3351 7.84098 12.33 7.83469 12.3255C7.70218 12.2298 7.55562 12.1924 7.41384 12.2065L7.31267 13.0227C7.28664 13.2327 7.48095 13.3729 7.6134 13.2396L7.76576 13.0863C7.57356 12.972 7.66984 12.7477 7.66984 12.7477Z" fill="#543E5B"/>
<path d="M13.7129 14.7064C13.7129 13.4432 12.7499 12.5216 11.7716 12.858L11.7715 12.8576L2.81957 15.9468C2.76407 15.9633 2.72557 16.0121 2.70831 16.07C3.38275 16.7704 4.16891 17.3083 5.02843 17.6362L12.1791 16.6237C13.0347 16.4998 13.7129 15.7653 13.7129 14.7064Z" fill="#FFF3E1"/>
<path d="M6.50972 14.6735L2.81957 15.9469C2.76407 15.9634 2.72557 16.0122 2.70831 16.0701C3.38275 16.7705 4.16891 17.3084 5.02843 17.6363L7.54985 17.2792C8.31966 15.1733 6.50972 14.6735 6.50972 14.6735Z" fill="#FFE8C2"/>
<path d="M11.7441 4.44006C11.8857 4.44006 12.0004 4.2966 12.0004 4.11963C12.0004 3.94266 11.8857 3.79919 11.7441 3.79919C11.6025 3.79919 11.4877 3.94266 11.4877 4.11963C11.4877 4.2966 11.6025 4.44006 11.7441 4.44006Z" fill="#FF7186"/>
</g>
<defs>
<clipPath id="clip0_24_3577">
<rect width="14" height="17.5" fill="white" transform="translate(0 0.5)"/>
</clipPath>
</defs>
</svg>
