<svg width="17" height="22" viewBox="0 0 17 22" fill="none" xmlns="http://www.w3.org/2000/svg">
<g clip-path="url(#clip0_24_3482)">
<path d="M11.4883 2.74036H3.38672V19.0099H11.4883C11.7633 19.0099 11.9863 18.7311 11.9863 18.3873V3.36292C11.9863 3.0191 11.7633 2.74036 11.4883 2.74036Z" fill="url(#paint0_linear_24_3482)"/>
<path d="M15.4727 9.00745H12.9824V8.38489C12.9824 8.15529 12.8813 7.94433 12.7194 7.836C12.5574 7.72768 12.3609 7.73955 12.2081 7.86688L9.21984 10.3571C9.08129 10.4726 8.99805 10.667 8.99805 10.8751C8.99805 11.0833 9.08125 11.2777 9.21984 11.3931L12.2081 13.8834C12.3613 14.011 12.5579 14.0223 12.7194 13.9142C12.8813 13.8059 12.9824 13.595 12.9824 13.3654V12.7428H15.4727C15.7477 12.7428 15.9707 12.4641 15.9707 12.1202V9.63001C15.9707 9.28619 15.7477 9.00745 15.4727 9.00745ZM7.79513 0.367663C7.66527 0.250622 7.49833 0.218788 7.34642 0.282082L1.36986 2.77232C1.16649 2.85707 1.0293 3.09497 1.0293 3.36292V18.3873C1.0293 18.6553 1.16646 18.8932 1.36986 18.9779L7.34642 21.4682C7.49962 21.532 7.6665 21.4985 7.79513 21.3826C7.92499 21.2656 8.00195 21.0777 8.00195 20.8776V0.872682C8.00195 0.672592 7.92499 0.484662 7.79513 0.367663ZM5.51172 11.4977C5.23666 11.4977 5.01367 11.2189 5.01367 10.8751C5.01367 10.5313 5.23666 10.2526 5.51172 10.2526C5.78677 10.2526 6.00977 10.5313 6.00977 10.8751C6.00977 11.2189 5.78677 11.4977 5.51172 11.4977Z" fill="url(#paint1_linear_24_3482)"/>
</g>
<defs>
<linearGradient id="paint0_linear_24_3482" x1="7.68652" y1="19.0099" x2="7.68652" y2="2.74036" gradientUnits="userSpaceOnUse">
<stop stop-color="#FFE59A"/>
<stop offset="1" stop-color="#FFFFD5"/>
</linearGradient>
<linearGradient id="paint1_linear_24_3482" x1="8.5" y1="21.5001" x2="8.5" y2="0.250125" gradientUnits="userSpaceOnUse">
<stop stop-color="#FD5900"/>
<stop offset="1" stop-color="#FFDE00"/>
</linearGradient>
<clipPath id="clip0_24_3482">
<rect width="17" height="21.25" fill="white" transform="translate(0 0.250122)"/>
</clipPath>
</defs>
</svg>
