<svg width="25" height="28" viewBox="0 0 25 28" fill="none" xmlns="http://www.w3.org/2000/svg">
<mask id="mask0_138_81" style="mask-type:alpha" maskUnits="userSpaceOnUse" x="0" y="0" width="25" height="28">
<path fill-rule="evenodd" clip-rule="evenodd" d="M0 0H25V27.5H0V0Z" fill="white"/>
</mask>
<g mask="url(#mask0_138_81)">
<path fill-rule="evenodd" clip-rule="evenodd" d="M14.2895 18.2748C15.7578 18.2748 16.953 19.519 16.953 21.0484V24.9819C16.953 25.3106 17.2042 25.574 17.5261 25.5817H19.8506C21.6823 25.5817 23.1713 24.0395 23.1713 22.1443V10.9883C23.1628 10.3361 22.8664 9.72234 22.3579 9.31441L14.3176 2.59062C13.2383 1.6942 11.7285 1.6942 10.6456 2.59318L2.66014 9.31185C2.13209 9.73257 1.83574 10.3464 1.82965 11.0101V22.1443C1.82965 24.0395 3.31869 25.5817 5.15041 25.5817H7.49677C7.82727 25.5817 8.09556 25.3067 8.09556 24.9691C8.09556 24.895 8.1041 24.8208 8.11873 24.7505V21.0484C8.11873 19.528 9.30655 18.285 10.7639 18.2748H14.2895ZM19.8499 27.5003H17.5036C16.1597 27.4671 15.1231 26.3609 15.1231 24.9824V21.0489C15.1231 20.577 14.7487 20.1934 14.2889 20.1934H10.7694C10.3194 20.196 9.94741 20.5809 9.94741 21.0489V24.9696C9.94741 25.0655 9.93522 25.1576 9.90961 25.2446C9.7779 26.5105 8.74618 27.5003 7.49617 27.5003H5.14981C2.30953 27.5003 -0.000244141 25.0975 -0.000244141 22.1448V11.0016C0.0119511 9.7305 0.570493 8.56681 1.53514 7.80083L9.50473 1.09367C11.2596 -0.36413 13.7048 -0.36413 15.456 1.09111L23.4829 7.80466C24.4256 8.55786 24.9841 9.71899 25 10.9747V22.1448C25 25.0975 22.6902 27.5003 19.8499 27.5003V27.5003Z" fill="#232440"/>
</g>
</svg>
