<svg width="50" height="81" viewBox="0 0 50 81" fill="none" xmlns="http://www.w3.org/2000/svg">
<path d="M43.5073 40.2339C43.5073 59.2058 28.0728 74.6404 9.10149 74.6404L-106 74.6404L-106 74.1115L9.10149 74.1115C27.781 74.1115 42.9785 58.9141 42.9785 40.2339C42.9785 21.5538 27.781 6.35697 9.10149 6.35697L-106 6.35698L-106 5.82813L9.10149 5.82813C28.0728 5.82813 43.5073 21.262 43.5073 40.2339Z" fill="black"/>
<path d="M37.6797 40.2339C37.6797 55.9921 24.8601 68.8123 9.10202 68.8123L-106 68.8123L-106 68.2834L9.10202 68.2834C24.5684 68.2834 37.1508 55.7003 37.1508 40.2339C37.1508 24.7676 24.5684 12.1851 9.10202 12.1851L-106 12.1851L-106 11.6563L9.10202 11.6563C24.8601 11.6563 37.6797 24.4758 37.6797 40.2339Z" fill="black"/>
<path d="M31.8516 40.234C31.8516 52.7783 21.6458 62.9841 9.10143 62.9841L-106 62.9841L-106 62.4553L9.10143 62.4553C21.354 62.4553 31.3227 52.4866 31.3227 40.234C31.3227 27.9821 21.354 18.0134 9.10143 18.0134L-106 18.0134L-106 17.4845L9.10143 17.4845C21.6458 17.4845 31.8516 27.6903 31.8516 40.234Z" fill="black"/>
<path d="M49.3357 40.234C49.3357 62.4191 31.2867 80.468 9.1017 80.468L-106 80.468L-106 79.9392L9.1017 79.9392C30.995 79.9392 48.8068 62.1273 48.8068 40.234C48.8068 18.3407 30.995 0.528878 9.10169 0.528879L-106 0.528884L-106 3.73075e-05L9.10169 3.22763e-05C31.2867 3.13065e-05 49.3357 18.049 49.3357 40.234Z" fill="black"/>
</svg>
