<svg width="20" height="20" viewBox="0 0 20 20" fill="none" xmlns="http://www.w3.org/2000/svg">
<g id="Hide - Bold 20px">
<g id="Hide">
<path id="Hide_2" fill-rule="evenodd" clip-rule="evenodd" d="M8.24265 12.4872C8.74223 12.811 9.35109 13.0067 9.99898 13.0067C11.7163 13.0067 13.1135 11.6591 13.1135 10.0028C13.1135 9.37793 12.9106 8.7907 12.5749 8.30887L11.7241 9.12949C11.8646 9.38546 11.9426 9.6866 11.9426 10.0028C11.9426 11.0342 11.0684 11.8774 9.99898 11.8774C9.67113 11.8774 9.3589 11.8021 9.09349 11.6666L8.24265 12.4872ZM15.143 5.83198C16.2749 6.82576 17.235 8.16585 17.9532 9.77697C18.0156 9.92001 18.0156 10.0856 17.9532 10.2212C16.2827 13.9704 13.3086 16.2139 9.99894 16.2139H9.99114C8.4846 16.2139 7.0405 15.7396 5.76814 14.8738L4.2538 16.3344C4.13671 16.4473 3.98839 16.5 3.84008 16.5C3.69177 16.5 3.53565 16.4473 3.42637 16.3344C3.23122 16.1462 3.2 15.845 3.35612 15.6267L3.37953 15.5966L14.9245 4.46178C14.9401 4.44672 14.9557 4.43166 14.9635 4.41661C14.9791 4.40155 14.9947 4.38649 15.0025 4.37143L15.7363 3.66375C15.9705 3.44542 16.3373 3.44542 16.5637 3.66375C16.7979 3.88208 16.7979 4.24345 16.5637 4.46178L15.143 5.83198ZM6.87869 10.0058C6.87869 10.2015 6.90211 10.3972 6.93333 10.5779L4.04515 13.3635C3.26456 12.4902 2.58544 11.4362 2.04684 10.2241C1.98439 10.0886 1.98439 9.92295 2.04684 9.7799C3.7173 6.03066 6.69135 3.79467 9.99325 3.79467H10.0011C11.1173 3.79467 12.2023 4.05064 13.2015 4.53247L10.5943 7.04702C10.407 7.01691 10.204 6.99432 10.0011 6.99432C8.27595 6.99432 6.87869 8.34194 6.87869 10.0058Z" fill="#7F7F92"/>
</g>
</g>
</svg>
