<svg width="104" height="104" viewBox="0 0 104 104" fill="none" xmlns="http://www.w3.org/2000/svg">
<g filter="url(#filter0_d_153_2051)">
<circle cx="52" cy="48" r="32" fill="white"/>
</g>
<circle cx="52" cy="48" r="24" fill="#3DAB25"/>
<g clip-path="url(#clip0_153_2051)">
<path d="M41.78 52.3531C41.7931 52.5181 41.9127 52.655 42.0747 52.6899L43.3816 52.9719C43.4277 53.1946 43.4862 53.4144 43.5571 53.6289L42.5679 54.5251C42.4453 54.6361 42.41 54.8146 42.4813 54.9643C42.662 55.3445 42.8634 55.6959 43.0798 56.0086C43.1735 56.1444 43.3453 56.2029 43.5031 56.1523L44.7733 55.7431C44.9251 55.9134 45.0868 56.075 45.257 56.2269L44.8479 57.497C44.7972 57.6541 44.8554 57.8263 44.9915 57.9204C45.3043 58.1368 45.6556 58.3381 46.0359 58.5189C46.1859 58.5901 46.364 58.5545 46.475 58.4323L47.3713 57.443C47.5861 57.5135 47.8059 57.5724 48.0286 57.6185L48.3106 58.9254C48.3455 59.087 48.4824 59.2066 48.647 59.2201C48.8465 59.2359 49.0464 59.2501 49.25 59.2501C49.4536 59.2501 49.6535 59.2359 49.853 59.2201C50.018 59.207 50.1549 59.0874 50.1898 58.9254L50.4718 57.6185C50.6945 57.5724 50.9146 57.5139 51.1291 57.443L52.0254 58.4323C52.1367 58.5549 52.3153 58.5905 52.4645 58.5189C52.8448 58.3381 53.1961 58.1364 53.5089 57.9204C53.645 57.8263 53.7031 57.6541 53.6525 57.497L53.2434 56.2269C53.4136 56.075 53.5752 55.9134 53.7271 55.7435L54.9972 56.1526C55.1544 56.2036 55.3265 56.1451 55.4206 56.009C55.637 55.6963 55.8384 55.3449 56.0191 54.9646C56.0904 54.815 56.0551 54.6365 55.9325 54.5255L54.9432 53.6293C55.0138 53.4144 55.0726 53.1946 55.1188 52.9719L56.4256 52.6899C56.5872 52.655 56.7069 52.5181 56.7204 52.3535C56.7358 52.1536 56.75 51.9538 56.75 51.7501C56.75 51.5465 56.7357 51.3466 56.72 51.1471C56.7069 50.9821 56.5872 50.8453 56.4252 50.8104L55.1184 50.5284C55.0722 50.3056 55.0138 50.0855 54.9429 49.871L55.9321 48.9748C56.0548 48.8638 56.09 48.6853 56.0187 48.5356C55.838 48.1554 55.6362 47.804 55.4202 47.4913C55.3261 47.3551 55.154 47.2966 54.9969 47.3476L53.7267 47.7568C53.5749 47.5865 53.4132 47.4249 53.243 47.273L53.6521 46.0029C53.7027 45.8458 53.6446 45.6736 53.5085 45.5795C53.1957 45.3631 52.8444 45.1618 52.4641 44.981C52.3141 44.9094 52.136 44.945 52.025 45.0676L51.1287 46.0569C50.9139 45.9864 50.6941 45.9275 50.4714 45.8814L50.1894 44.5745C50.1545 44.4129 50.0176 44.2933 49.853 44.2798C49.4536 44.2475 49.046 44.2483 48.6466 44.2798C48.4816 44.2929 48.3447 44.4125 48.3099 44.5745L48.0279 45.8814C47.8051 45.9275 47.5854 45.986 47.3709 46.0569L46.4746 45.0676C46.3636 44.945 46.1855 44.9098 46.0355 44.981C45.6553 45.1618 45.3039 45.3631 44.9911 45.5795C44.855 45.6736 44.7969 45.8458 44.8475 46.0029L45.2566 47.273C45.0864 47.4249 44.9247 47.5865 44.7729 47.7568L43.5031 47.3476C43.3456 47.2966 43.1735 47.3551 43.0798 47.4913C42.8634 47.804 42.662 48.1554 42.4813 48.5356C42.41 48.6853 42.4453 48.8638 42.5679 48.9748L43.5571 49.871C43.4866 50.0859 43.4277 50.3056 43.3816 50.5284L42.0747 50.8104C41.9131 50.8453 41.7935 50.9821 41.78 51.1468C41.7642 51.3466 41.75 51.5465 41.75 51.7501C41.75 51.9538 41.7642 52.1536 41.78 52.3531ZM42.5079 51.4843L43.7836 51.2086C43.9344 51.176 44.0499 51.0545 44.0746 50.9023C44.1309 50.5565 44.2216 50.2171 44.3443 49.8931C44.399 49.7491 44.3596 49.586 44.2453 49.4825L43.2819 48.6095C43.3659 48.4486 43.4536 48.2945 43.5444 48.1486L44.7804 48.5469C44.9266 48.5938 45.0879 48.5469 45.1858 48.4276C45.407 48.1569 45.6568 47.9075 45.9275 47.6859C46.0468 47.5884 46.0944 47.4275 46.0468 47.2805L45.6485 46.0445C45.7944 45.9534 45.9481 45.8656 46.1094 45.782L46.9824 46.7458C47.0862 46.8601 47.2498 46.8995 47.3934 46.8448C47.7166 46.7221 48.056 46.6314 48.4021 46.5751C48.5544 46.5504 48.6759 46.4349 48.7085 46.2841L48.9838 45.0084C49.1604 44.999 49.34 44.9986 49.5159 45.0084L49.7915 46.2841C49.8241 46.4349 49.9456 46.5504 50.0979 46.5751C50.4436 46.6314 50.783 46.7221 51.107 46.8448C51.2502 46.8995 51.4138 46.8605 51.5176 46.7458L52.3906 45.7824C52.5515 45.8664 52.7056 45.9541 52.8515 46.0449L52.4532 47.2809C52.406 47.4279 52.4532 47.5884 52.5725 47.6863C52.8433 47.9075 53.0926 48.1573 53.3143 48.428C53.4121 48.5476 53.573 48.5953 53.7196 48.5473L54.9556 48.149C55.0468 48.2949 55.1345 48.4486 55.2181 48.6095L54.2544 49.4825C54.14 49.586 54.1006 49.7491 54.1554 49.8935C54.278 50.2168 54.3687 50.5561 54.425 50.9023C54.4497 51.0545 54.5653 51.176 54.716 51.2086L55.9918 51.4839C55.9966 51.572 56 51.6609 56 51.7501C56 51.8394 55.997 51.9283 55.9921 52.016L54.7164 52.2916C54.5656 52.3243 54.4501 52.4458 54.4254 52.598C54.3691 52.9438 54.2784 53.2831 54.1558 53.6071C54.101 53.7511 54.1404 53.9143 54.2548 54.0178L55.2181 54.8908C55.1341 55.0516 55.0464 55.2058 54.9556 55.3516L53.7196 54.9534C53.5722 54.9054 53.4121 54.953 53.3143 55.0726C53.0934 55.3426 52.8436 55.5924 52.5725 55.8144C52.4532 55.9119 52.406 56.0728 52.4532 56.2194L52.8515 57.4554C52.7056 57.5465 52.5519 57.6343 52.391 57.7179L51.518 56.7541C51.4145 56.6398 51.2514 56.6011 51.107 56.6551C50.7837 56.7778 50.4444 56.8685 50.0982 56.9248C49.946 56.9495 49.8245 57.065 49.7919 57.2158L49.5166 58.4915C49.34 58.5009 49.1604 58.5013 48.9845 58.4915L48.7089 57.2158C48.6762 57.065 48.5547 56.9495 48.4025 56.9248C48.0567 56.8685 47.7174 56.7778 47.3934 56.6551C47.2498 56.6004 47.0863 56.6394 46.9827 56.7541L46.1098 57.7175C45.9489 57.6335 45.7948 57.5458 45.6489 57.455L46.0471 56.219C46.0944 56.072 46.0471 55.9115 45.9279 55.8136C45.6571 55.5924 45.4078 55.3426 45.1861 55.0719C45.0882 54.9523 44.927 54.905 44.7807 54.9526L43.5447 55.3509C43.4536 55.205 43.3659 55.0513 43.2822 54.89L44.246 54.017C44.3604 53.9135 44.3997 53.7504 44.345 53.606C44.2224 53.2828 44.1316 52.9434 44.0754 52.5973C44.0506 52.445 43.9351 52.3235 43.7844 52.2909L42.5079 52.0164C42.5034 51.9283 42.5 51.8394 42.5 51.7501C42.5 51.6609 42.503 51.572 42.5079 51.4843Z" fill="white"/>
<path d="M61.3321 42.0884C61.4731 42.0442 61.5751 41.9208 61.592 41.7738C61.6145 41.5844 61.625 41.4131 61.625 41.2503C61.625 41.0876 61.6145 40.9162 61.5924 40.7268C61.5755 40.5798 61.4735 40.4564 61.3325 40.4122L60.2926 40.0856C60.2615 40.0004 60.227 39.9168 60.1891 39.8351L60.6931 38.8694C60.7614 38.7386 60.7464 38.5796 60.6549 38.4633C60.4377 38.1888 60.188 37.9391 59.9127 37.7212C59.7965 37.6293 59.6375 37.6147 59.5066 37.6826L58.5402 38.1866C58.4585 38.1491 58.3749 38.1146 58.2897 38.0834L57.9631 37.0436C57.9189 36.9026 57.7955 36.8006 57.6485 36.7837C57.269 36.7394 56.9806 36.7394 56.6011 36.7837C56.4541 36.8006 56.3307 36.9026 56.2865 37.0436L55.9599 38.0834C55.8748 38.1146 55.7911 38.1491 55.7094 38.1869L54.7438 37.6829C54.6129 37.6151 54.4543 37.6297 54.3376 37.7212C54.0631 37.9383 53.8134 38.1881 53.5955 38.4633C53.5036 38.5796 53.4886 38.7382 53.5569 38.8694L54.0605 39.8351C54.023 39.9168 53.9885 40.0004 53.9574 40.0856L52.9175 40.4122C52.7765 40.4564 52.6745 40.5798 52.6576 40.7268C52.6355 40.9162 52.625 41.0876 52.625 41.2503C52.625 41.4131 52.6355 41.5844 52.6576 41.7738C52.6745 41.9208 52.7765 42.0442 52.9175 42.0884L53.9574 42.4151C53.9885 42.5002 54.023 42.5838 54.0609 42.6656L53.5569 43.6312C53.4886 43.7621 53.5036 43.9211 53.5951 44.0373C53.8123 44.3118 54.062 44.5616 54.3373 44.7794C54.4531 44.8713 54.6125 44.8859 54.7434 44.8181L55.709 44.3144C55.7907 44.3519 55.8744 44.3864 55.9595 44.4176L56.2861 45.4574C56.3304 45.5984 56.4538 45.7004 56.6008 45.7173C56.7909 45.7398 56.9623 45.7503 57.125 45.7503C57.2877 45.7503 57.4591 45.7398 57.6485 45.7177C57.7955 45.7008 57.9189 45.5988 57.9631 45.4578L58.2897 44.4179C58.3749 44.3868 58.4585 44.3523 58.5402 44.3144L59.5059 44.8184C59.6367 44.8867 59.7957 44.8721 59.912 44.7802C60.1865 44.5631 60.4362 44.3133 60.6541 44.0381C60.746 43.9218 60.761 43.7632 60.6927 43.6319L60.1887 42.6663C60.2266 42.5846 60.2611 42.5009 60.2922 42.4158L61.3321 42.0884ZM59.8846 41.7569C59.7661 41.7944 59.6739 41.8878 59.6379 42.0071C59.5869 42.1766 59.5194 42.3397 59.4376 42.4923C59.3787 42.6018 59.3776 42.7334 59.4354 42.8433L59.9113 43.7553C59.8224 43.8539 59.7283 43.9481 59.63 44.0366L58.718 43.5607C58.6078 43.5029 58.4761 43.5044 58.367 43.5629C58.2144 43.6447 58.0513 43.7122 57.8818 43.7632C57.7629 43.7988 57.6691 43.8914 57.6316 44.0099L57.3226 44.9939C57.1858 45.0022 57.0646 45.0022 56.9274 44.9939L56.6184 44.0099C56.5809 43.8914 56.4875 43.7992 56.3682 43.7632C56.1984 43.7122 56.0352 43.6447 55.8834 43.5629C55.7739 43.5041 55.6422 43.5029 55.532 43.5607L54.62 44.0366C54.5214 43.9477 54.4272 43.8536 54.3387 43.7553L54.8146 42.8433C54.872 42.7334 54.8713 42.6014 54.8124 42.4923C54.7306 42.3397 54.6631 42.1766 54.6121 42.0071C54.5765 41.8882 54.4839 41.7944 54.3654 41.7569L53.3814 41.4479C53.3769 41.3793 53.375 41.3137 53.375 41.2503C53.375 41.1869 53.3769 41.1213 53.3814 41.0527L54.3654 40.7437C54.4839 40.7062 54.5761 40.6128 54.6121 40.4936C54.6631 40.3237 54.7306 40.1606 54.8124 40.0087C54.8713 39.8992 54.8724 39.7676 54.8146 39.6573L54.3387 38.7453C54.4276 38.6467 54.5217 38.5526 54.62 38.4641L55.532 38.9399C55.6419 38.9973 55.7739 38.9962 55.883 38.9377C56.0356 38.8559 56.1987 38.7884 56.3682 38.7374C56.4871 38.7018 56.5809 38.6092 56.6184 38.4907L56.9274 37.5067C57.0642 37.4984 57.1854 37.4984 57.3226 37.5067L57.6316 38.4907C57.6691 38.6092 57.7625 38.7014 57.8818 38.7374C58.0516 38.7884 58.2148 38.8559 58.3666 38.9377C58.4761 38.9966 58.6078 38.9977 58.718 38.9399L59.63 38.4641C59.7286 38.5529 59.8228 38.6471 59.9113 38.7453L59.4354 39.6573C59.378 39.7672 59.3787 39.8992 59.4376 40.0083C59.5194 40.1609 59.5869 40.3241 59.6379 40.4936C59.6735 40.6124 59.7661 40.7062 59.8846 40.7437L60.8686 41.0527C60.8731 41.1213 60.875 41.1869 60.875 41.2503C60.875 41.3137 60.8731 41.3793 60.8686 41.4479L59.8846 41.7569Z" fill="white"/>
<path d="M63.9733 49.1112L63.329 48.8825C63.2922 48.7778 63.2503 48.6755 63.2026 48.5761L63.4955 47.9592C63.5566 47.831 63.5398 47.6795 63.452 47.5677C63.2645 47.3281 63.0477 47.111 62.8074 46.9227C62.6953 46.835 62.543 46.8185 62.4155 46.8792L61.7983 47.1721C61.6993 47.1248 61.5969 47.0825 61.4922 47.0461L61.2631 46.4018C61.2155 46.268 61.0959 46.1723 60.9549 46.1551C60.6208 46.115 60.3789 46.115 60.0447 46.1551C59.9037 46.172 59.7841 46.2676 59.7365 46.4018L59.5078 47.0461C59.4031 47.0828 59.3007 47.1248 59.2014 47.1725L58.5845 46.8796C58.457 46.8188 58.3051 46.8357 58.193 46.9231C57.9534 47.1106 57.7362 47.3273 57.548 47.5677C57.4606 47.6795 57.4438 47.8313 57.5045 47.9596L57.7974 48.5768C57.7501 48.6758 57.7078 48.7782 57.6714 48.8828L57.0271 49.112C56.8932 49.1596 56.7976 49.2792 56.7804 49.4202C56.7598 49.5863 56.75 49.7352 56.75 49.8747C56.75 50.0142 56.7598 50.1627 56.78 50.3296C56.7969 50.4706 56.8925 50.5902 57.0267 50.6378L57.671 50.8666C57.7078 50.9712 57.7497 51.0736 57.7974 51.173L57.5045 51.7898C57.4434 51.9181 57.4602 52.0696 57.548 52.1813C57.7355 52.421 57.9523 52.6381 58.1926 52.8263C58.3044 52.9137 58.4566 52.9306 58.5845 52.8698L59.2017 52.577C59.3007 52.6242 59.4031 52.6666 59.5078 52.703L59.7369 53.3472C59.7845 53.4811 59.9041 53.5767 60.0451 53.594C60.212 53.615 60.3605 53.6247 60.5 53.6247C60.6395 53.6247 60.788 53.615 60.9549 53.5947C61.0959 53.5778 61.2155 53.4822 61.2631 53.348L61.4919 52.7037C61.5965 52.667 61.6989 52.625 61.7983 52.5773L62.4151 52.8702C62.543 52.9313 62.6953 52.9148 62.8066 52.8267C63.0463 52.6392 63.2634 52.4225 63.4516 52.1821C63.539 52.0703 63.5559 51.9185 63.4951 51.7902L63.2023 51.173C63.2495 51.074 63.2919 50.9716 63.3282 50.867L63.9725 50.6378C64.1064 50.5902 64.202 50.4706 64.2192 50.3296C64.2402 50.1627 64.25 50.0142 64.25 49.8747C64.25 49.7352 64.2402 49.5867 64.22 49.4198C64.2031 49.2785 64.1075 49.1592 63.9733 49.1112ZM63.4963 50.0116L62.9019 50.2227C62.7867 50.2636 62.6986 50.3581 62.666 50.4758C62.6169 50.654 62.5468 50.8238 62.4579 50.981C62.3979 51.0871 62.3934 51.2161 62.4455 51.3263L62.7147 51.8937C62.6525 51.962 62.5872 52.0272 62.5194 52.0891L61.952 51.8198C61.8425 51.7677 61.7131 51.7722 61.6066 51.8322C61.4491 51.9215 61.2792 51.9912 61.1019 52.0403C60.9841 52.073 60.8896 52.1611 60.8484 52.2762L60.6373 52.8706C60.5465 52.8755 60.4543 52.8755 60.3635 52.8706L60.1524 52.2762C60.1115 52.1611 60.017 52.073 59.8992 52.0403C59.7211 51.9912 59.5512 51.9211 59.3941 51.8322C59.288 51.7726 59.1594 51.7681 59.0488 51.8198L58.4814 52.0891C58.4131 52.0268 58.3479 51.9616 58.286 51.8937L58.5552 51.3263C58.6077 51.2161 58.6029 51.0871 58.5429 50.981C58.4536 50.8235 58.3839 50.6536 58.3348 50.4762C58.3021 50.3585 58.214 50.264 58.0989 50.2227L57.5045 50.0116C57.5015 49.9662 57.5 49.9208 57.5 49.8747C57.5 49.8286 57.5015 49.7828 57.5037 49.7378L58.0981 49.5263C58.2133 49.4855 58.3014 49.391 58.3336 49.2732C58.3831 49.0947 58.4532 48.9252 58.5421 48.7681C58.6021 48.662 58.6066 48.533 58.5545 48.4227L58.2853 47.8553C58.3475 47.7871 58.4128 47.7218 58.4806 47.66L59.048 47.9292C59.1582 47.9817 59.2873 47.9772 59.3934 47.9168C59.5509 47.8276 59.7208 47.7578 59.8981 47.7087C60.0159 47.6761 60.1104 47.588 60.1516 47.4728L60.3627 46.8785C60.4535 46.8736 60.5457 46.8736 60.6365 46.8785L60.8476 47.4728C60.8885 47.588 60.983 47.6761 61.1008 47.7087C61.2789 47.7578 61.4488 47.828 61.6059 47.9168C61.7124 47.9772 61.841 47.9817 61.9512 47.9292L62.5186 47.66C62.5869 47.7222 62.6521 47.7875 62.714 47.8553L62.4448 48.4227C62.3923 48.533 62.3971 48.662 62.4571 48.7681C62.5464 48.9256 62.6161 49.0955 62.6652 49.2728C62.6979 49.3906 62.786 49.4851 62.9011 49.5263L63.4955 49.7375C63.4985 49.7832 63.5 49.8286 63.5 49.8747C63.5 49.9208 63.4985 49.9662 63.4963 50.0116Z" fill="white"/>
<path d="M49.25 55.875C51.5244 55.875 53.375 54.0244 53.375 51.75C53.375 49.4756 51.5244 47.625 49.25 47.625C46.9756 47.625 45.125 49.4756 45.125 51.75C45.125 54.0244 46.9756 55.875 49.25 55.875ZM49.25 48.375C51.1108 48.375 52.625 49.8893 52.625 51.75C52.625 53.6108 51.1108 55.125 49.25 55.125C47.3893 55.125 45.875 53.6108 45.875 51.75C45.875 49.8893 47.3893 48.375 49.25 48.375Z" fill="white"/>
<path d="M41.7582 45.5096L42.3342 45.99C44.0513 43.9309 46.5717 42.75 49.2499 42.75C49.4408 42.75 49.6313 42.7609 49.8218 42.7729L49.3598 43.2349L49.8901 43.7651L51.0151 42.6401C51.1617 42.4935 51.1617 42.2565 51.0151 42.1099L49.8901 40.9849L49.3598 41.5151L49.8694 42.0247C49.6632 42.0116 49.4566 42 49.2499 42C46.3489 42 43.6182 43.2791 41.7582 45.5096Z" fill="white"/>
<path d="M57.125 39.375C56.0911 39.375 55.25 40.2161 55.25 41.25C55.25 42.2839 56.0911 43.125 57.125 43.125C58.1589 43.125 59 42.2839 59 41.25C59 40.2161 58.1589 39.375 57.125 39.375ZM57.125 42.375C56.5048 42.375 56 41.8702 56 41.25C56 40.6298 56.5048 40.125 57.125 40.125C57.7452 40.125 58.25 40.6298 58.25 41.25C58.25 41.8702 57.7452 42.375 57.125 42.375Z" fill="white"/>
<path d="M60.5 48.375C59.6727 48.375 59 49.0477 59 49.875C59 50.7023 59.6727 51.375 60.5 51.375C61.3273 51.375 62 50.7023 62 49.875C62 49.0477 61.3273 48.375 60.5 48.375ZM60.5 50.625C60.0864 50.625 59.75 50.2886 59.75 49.875C59.75 49.4614 60.0864 49.125 60.5 49.125C60.9136 49.125 61.25 49.4614 61.25 49.875C61.25 50.2886 60.9136 50.625 60.5 50.625Z" fill="white"/>
<path d="M63.9486 37.8825L62.0736 37.5075C61.8696 37.4663 61.6727 37.5987 61.6322 37.8015L61.2572 39.6765L61.9926 39.8239L62.1947 38.8144C62.5581 39.5704 62.7501 40.4037 62.7501 41.25C62.7501 42.543 62.3233 43.7588 61.5163 44.7657L62.1017 45.2348C63.0036 44.1094 63.5001 42.6945 63.5001 41.25C63.5001 40.2679 63.2732 39.2997 62.8416 38.4259L63.8016 38.6179L63.9486 37.8825Z" fill="white"/>
</g>
<defs>
<filter id="filter0_d_153_2051" x="0" y="0" width="104" height="104" filterUnits="userSpaceOnUse" color-interpolation-filters="sRGB">
<feFlood flood-opacity="0" result="BackgroundImageFix"/>
<feColorMatrix in="SourceAlpha" type="matrix" values="0 0 0 0 0 0 0 0 0 0 0 0 0 0 0 0 0 0 127 0" result="hardAlpha"/>
<feOffset dy="4"/>
<feGaussianBlur stdDeviation="10"/>
<feColorMatrix type="matrix" values="0 0 0 0 0.619608 0 0 0 0 0.619608 0 0 0 0 0.619608 0 0 0 0.25 0"/>
<feBlend mode="normal" in2="BackgroundImageFix" result="effect1_dropShadow_153_2051"/>
<feBlend mode="normal" in="SourceGraphic" in2="effect1_dropShadow_153_2051" result="shape"/>
</filter>
<clipPath id="clip0_153_2051">
<rect width="24" height="24" fill="white" transform="translate(40 36)"/>
</clipPath>
</defs>
</svg>
