<svg width="35" height="36" viewBox="0 0 35 36" fill="none" xmlns="http://www.w3.org/2000/svg">
<path d="M27.7596 9.4624H8.292C7.89378 9.4624 7.57098 9.77578 7.57098 10.1624V12.2624H28.4806V10.1624C28.4806 9.77578 28.1578 9.4624 27.7596 9.4624Z" fill="#FEBC11"/>
<path d="M7.57098 12.2622H28.4806V12.9622H7.57098V12.2622Z" fill="#78B9EB"/>
<path d="M7.57098 12.9624H28.4806V22.7624C28.4806 23.149 28.1578 23.4624 27.7596 23.4624H8.292C7.89378 23.4624 7.57098 23.149 7.57098 22.7624V12.9624Z" fill="#FEBC11"/>
<path d="M22.3595 22.755C22.2188 22.6182 21.9905 22.6181 21.8496 22.7547C21.8495 22.7548 21.8494 22.7549 21.8493 22.755L18.3863 26.1174V16.4623C18.3863 16.269 18.2249 16.1123 18.0258 16.1123C17.8267 16.1123 17.6653 16.269 17.6653 16.4623V26.1174L14.2022 22.755C14.0613 22.6182 13.8329 22.6182 13.6921 22.755C13.5512 22.8917 13.5512 23.1134 13.6921 23.2502L17.7705 27.2094C17.9111 27.3463 18.1394 27.3466 18.2804 27.21C18.2806 27.2098 18.2808 27.2096 18.281 27.2094L22.3595 23.2502C22.5003 23.1136 22.5005 22.892 22.3597 22.7552C22.3596 22.7551 22.3596 22.755 22.3595 22.755Z" fill="#665AF0"/>
<path d="M26.9276 8.30469H7.46007C6.86275 8.30469 6.37854 8.77478 6.37854 9.35469V21.9547C6.37854 22.5346 6.86275 23.0047 7.46007 23.0047H11.0652C11.2643 23.0047 11.4257 22.848 11.4257 22.6547C11.4257 22.4614 11.2643 22.3047 11.0652 22.3047H7.46007C7.26098 22.3047 7.09956 22.148 7.09956 21.9547V12.5047H27.2881V21.9547C27.2881 22.148 27.1267 22.3047 26.9276 22.3047H23.3225C23.1234 22.3047 22.962 22.4614 22.962 22.6547C22.962 22.848 23.1234 23.0047 23.3225 23.0047H26.9276C27.5249 23.0047 28.0091 22.5346 28.0091 21.9547V9.35469C28.0091 8.77478 27.5249 8.30469 26.9276 8.30469ZM7.46007 9.00469H26.9276C27.1267 9.00469 27.2881 9.1614 27.2881 9.35469V11.1047H7.09956V9.35469C7.09956 9.1614 7.26098 9.00469 7.46007 9.00469Z" fill="#665AF0"/>
<path d="M17.6653 14.7122H9.73411C9.53501 14.7122 9.3736 14.5555 9.3736 14.3622C9.3736 14.1689 9.53501 14.0122 9.73411 14.0122H17.6653C17.8644 14.0122 18.0258 14.1689 18.0258 14.3622C18.0258 14.5555 17.8644 14.7122 17.6653 14.7122Z" fill="#665AF0"/>
<rect y="0.712891" width="35" height="35" rx="5" fill="#549BFF" fill-opacity="0.04"/>
<rect x="0.15" y="0.862891" width="34.7" height="34.7" rx="4.85" stroke="black" stroke-opacity="0.11" stroke-width="0.3"/>
</svg>
