<svg width="27" height="26" viewBox="0 0 27 26" fill="none" xmlns="http://www.w3.org/2000/svg">
<g clip-path="url(#clip0_138_116)">
<path d="M16.4294 11.2734C13.9653 11.2734 11.9606 13.2781 11.9606 15.7422C11.9606 18.2063 13.9653 20.2109 16.4294 20.2109C18.8935 20.2109 20.8981 18.2063 20.8981 15.7422C20.8981 13.2781 18.8935 11.2734 16.4294 11.2734ZM16.4294 19.1953C14.5253 19.1953 12.9763 17.6463 12.9763 15.7422C12.9763 13.8381 14.5253 12.2891 16.4294 12.2891C18.3335 12.2891 19.8825 13.8381 19.8825 15.7422C19.8825 17.6463 18.3335 19.1953 16.4294 19.1953Z" fill="black"/>
<path d="M26.1826 23.0604L24.1675 21.0453L22.1524 19.0301C22.711 18.0615 23.031 16.9385 23.031 15.7422C23.031 13.9765 22.3341 12.3708 21.2012 11.185V5.48378H21.2001C21.2001 5.35167 21.1497 5.22194 21.0527 5.12474L16.0767 0.148773C15.9795 0.0515747 15.8496 0.00138855 15.7175 0.00138855L15.7177 0H2.21045C1.37038 0 0.687012 0.683365 0.687012 1.52344V24.4766C0.687012 25.3166 1.37038 26 2.21045 26H19.678C20.5179 26 21.2014 25.3166 21.2014 24.4766V22.9496L23.7475 25.4958C24.0831 25.8314 24.524 25.9992 24.9652 25.9992C25.4062 25.9992 25.8471 25.8314 26.1828 25.4958C26.854 24.8243 26.854 23.7319 26.1826 23.0604ZM16.4294 21.3281C13.3494 21.3281 10.8435 18.8222 10.8435 15.7422C10.8435 12.6622 13.3494 10.1562 16.4294 10.1562C19.5094 10.1562 22.0153 12.6622 22.0153 15.7422C22.0153 18.8222 19.5094 21.3281 16.4294 21.3281ZM16.2255 1.7339L19.4675 4.97617H16.7333C16.4532 4.97617 16.2255 4.74825 16.2255 4.46835V1.7339ZM20.1858 24.4766C20.1858 24.7567 19.9579 24.9844 19.678 24.9844H2.21045C1.93036 24.9844 1.70264 24.7567 1.70264 24.4766V1.52344C1.70264 1.24335 1.93036 1.01562 2.21045 1.01562H15.2099V4.46815C15.2099 5.30823 15.8932 5.99159 16.7333 5.99159H20.1856V10.3167C19.1188 9.57564 17.8241 9.14062 16.4294 9.14062C12.7892 9.14062 9.82784 12.102 9.82784 15.7422C9.82784 16.4529 9.9413 17.1379 10.1502 17.78H3.94475C3.66446 17.78 3.43694 18.0073 3.43694 18.2878C3.43694 18.5681 3.66446 18.7956 3.94475 18.7956H10.4293C10.4771 18.7956 10.5235 18.7885 10.5673 18.776C11.6679 20.8937 13.8824 22.3438 16.4294 22.3438C17.6255 22.3438 18.7485 22.0238 19.7171 21.4652L20.1858 21.9339V24.4766Z" fill="black"/>
<path d="M8.51488 14.2588H3.94476C3.66447 14.2588 3.43695 14.4861 3.43695 14.7666C3.43695 15.0471 3.66447 15.2744 3.94476 15.2744H8.51488C8.79536 15.2744 9.02269 15.0471 9.02269 14.7666C9.02269 14.4861 8.79536 14.2588 8.51488 14.2588Z" fill="black"/>
<path d="M8.8158 10.7383H3.94476C3.66447 10.7383 3.43695 10.9656 3.43695 11.2461C3.43695 11.5264 3.66447 11.7539 3.94476 11.7539H8.8158C9.09628 11.7539 9.32361 11.5264 9.32361 11.2461C9.32361 10.9656 9.09628 10.7383 8.8158 10.7383Z" fill="black"/>
<path d="M10.3354 21.3008C10.2018 21.3008 10.0708 21.3549 9.97641 21.4496C9.88199 21.544 9.82764 21.6749 9.82764 21.8086C9.82764 21.9421 9.88199 22.0732 9.97641 22.1674C10.0708 22.2621 10.2018 22.3164 10.3354 22.3164C10.4689 22.3164 10.6001 22.2621 10.6949 22.1674C10.7893 22.0732 10.8433 21.9421 10.8433 21.8086C10.8433 21.6749 10.7893 21.544 10.6949 21.4496C10.6001 21.3549 10.4689 21.3008 10.3354 21.3008Z" fill="black"/>
<path d="M8.24986 21.3008H3.94476C3.66447 21.3008 3.43695 21.5281 3.43695 21.8086C3.43695 22.0889 3.66447 22.3164 3.94476 22.3164H8.24986C8.53015 22.3164 8.75768 22.0889 8.75768 21.8086C8.75768 21.5281 8.53035 21.3008 8.24986 21.3008Z" fill="black"/>
<path d="M3.94458 8.23291C4.07867 8.23291 4.2092 8.17856 4.30362 8.08414C4.39864 7.98912 4.45239 7.8588 4.45239 7.7251C4.45239 7.5916 4.39864 7.46068 4.30362 7.36566C4.2092 7.27124 4.07808 7.21729 3.94458 7.21729C3.81108 7.21729 3.68056 7.27124 3.58554 7.36566C3.49112 7.46008 3.43677 7.591 3.43677 7.7251C3.43677 7.8588 3.49112 7.98972 3.58554 8.08414C3.68016 8.17856 3.81108 8.23291 3.94458 8.23291Z" fill="black"/>
<path d="M13.687 7.21729H6.09717C5.81688 7.21729 5.58936 7.44461 5.58936 7.7251C5.58936 8.00539 5.81688 8.23291 6.09717 8.23291H13.687C13.9675 8.23291 14.1948 8.00539 14.1948 7.7251C14.1948 7.44461 13.9675 7.21729 13.687 7.21729Z" fill="black"/>
<path d="M3.94476 4.71191H13.687C13.9675 4.71191 14.1948 4.48459 14.1948 4.2041C14.1948 3.92361 13.9675 3.69629 13.687 3.69629H3.94476C3.66447 3.69629 3.43695 3.92361 3.43695 4.2041C3.43695 4.48459 3.66447 4.71191 3.94476 4.71191Z" fill="black"/>
<g clip-path="url(#clip1_138_116)">
<path d="M16.7925 15.0781V15.9353L17.3613 16.5041C17.4223 16.5651 17.4223 16.6641 17.3613 16.7251C17.3003 16.7861 17.2013 16.7861 17.1403 16.7251L16.5257 16.1105C16.4964 16.0812 16.48 16.0414 16.48 16V15.0781C16.48 14.9918 16.5499 14.9219 16.6362 14.9219C16.7225 14.9219 16.7925 14.9918 16.7925 15.0781V15.0781ZM17.2508 14H16.0216C15.6944 14 15.3715 14.115 15.1132 14.3397V14.1562C15.1132 14.07 15.0432 14 14.9569 14C14.8706 14 14.8007 14.07 14.8007 14.1562V14.7708C14.8007 14.8571 14.8712 14.9271 14.9569 14.9271H15.5715C15.6578 14.9271 15.7278 14.8571 15.7278 14.7708C15.7278 14.6845 15.6578 14.6146 15.5715 14.6146H15.2759C15.4737 14.4239 15.7407 14.3125 16.0216 14.3125H17.2508C17.8424 14.3125 18.3237 14.7938 18.3237 15.3854V16.6146C18.3237 17.2062 17.8424 17.6875 17.2508 17.6875H16.0216C15.43 17.6875 14.9487 17.2062 14.9487 16.6146V16C14.9487 15.9137 14.8788 15.8438 14.7925 15.8438C14.7062 15.8438 14.6362 15.9137 14.6362 16V16.6146C14.6362 17.3785 15.2577 18 16.0216 18H17.2508C18.0147 18 18.6362 17.3785 18.6362 16.6146V15.3854C18.6362 14.6215 18.0147 14 17.2508 14V14Z" fill="black"/>
</g>
</g>
<defs>
<clipPath id="clip0_138_116">
<rect width="26" height="26" fill="white" transform="translate(0.63623)"/>
</clipPath>
<clipPath id="clip1_138_116">
<rect width="4" height="4" fill="white" transform="translate(14.6362 14)"/>
</clipPath>
</defs>
</svg>
