<svg width="35" height="36" viewBox="0 0 35 36" fill="none" xmlns="http://www.w3.org/2000/svg">
<rect y="0.712891" width="35" height="35" rx="5" fill="#FFEE54" fill-opacity="0.51"/>
<rect x="0.15" y="0.862891" width="34.7" height="34.7" rx="4.85" stroke="black" stroke-opacity="0.11" stroke-width="0.3"/>
<path d="M26.8586 18.6086C26.8586 18.8633 26.8586 19.1463 26.8295 19.401C26.742 20.5331 26.4505 21.5803 25.9841 22.5708C25.8092 22.967 25.576 23.335 25.3427 23.7029C23.5937 26.3915 20.5328 28.1462 17.0346 28.1462C15.5479 28.1462 14.1195 27.8066 12.8368 27.2406C9.51353 25.7123 7.21057 22.401 7.21057 18.6086C7.21057 14.8445 9.42608 11.6181 12.6619 10.0615C12.3995 10.3728 12.1663 10.7408 11.9622 11.0804C11.9331 11.1087 11.9331 11.137 11.9039 11.1653C11.7873 11.2785 11.6416 11.3634 11.525 11.4766L11.0877 11.9011L11.0003 11.986C10.9711 12.0143 10.942 12.0426 10.9128 12.0992C10.8545 12.1558 10.7962 12.2124 10.767 12.269C10.6796 12.3823 10.563 12.4955 10.4755 12.637C10.0674 13.1464 9.71759 13.7407 9.45523 14.3351L9.36777 14.5049C9.33862 14.5898 9.30947 14.6464 9.28032 14.7313C9.28032 14.7596 9.25117 14.8162 9.25117 14.8445C9.22202 14.9577 9.16372 15.0709 9.13456 15.1841C9.10541 15.269 9.07626 15.3256 9.07626 15.4105C9.07626 15.4388 9.04711 15.4954 9.04711 15.5237C9.01796 15.6086 9.01796 15.6652 8.98881 15.7501C8.9305 15.9766 8.8722 16.2313 8.84305 16.486C8.84305 16.5426 8.8139 16.5992 8.8139 16.6841C8.8139 16.7407 8.8139 16.769 8.78475 16.8256C8.78475 16.9105 8.78475 16.9671 8.7556 17.052V17.6746C8.7556 20.2784 9.97995 22.5991 11.9039 24.1274C13.3907 25.3161 15.2855 26.0236 17.3261 26.0236C19.1918 26.0236 20.9409 25.4293 22.3402 24.4387C23.3604 23.7029 24.235 22.7689 24.8472 21.6935C24.9346 21.552 24.9929 21.4105 25.0804 21.2689C25.576 20.2784 25.8675 19.1463 25.8966 17.986V17.7029C25.8966 17.4199 25.8966 17.1652 25.8675 16.9105C25.8966 16.9105 25.8966 16.9388 25.8966 16.9388C26.0424 17.052 26.159 17.1652 26.2756 17.2784C26.3922 17.0803 26.5088 16.8822 26.6546 16.7124C26.742 17.0803 26.8003 17.4482 26.8295 17.8162C26.8586 18.0426 26.8586 18.3256 26.8586 18.6086Z" fill="#EA2227"/>
<path d="M25.8973 17.6465V17.9295C25.8973 19.6276 25.1685 21.0427 25.081 21.2125C25.0227 21.354 24.9353 21.4955 24.8478 21.637C24.2356 22.7125 23.3611 23.6747 22.3408 24.3823C20.9415 25.3728 19.1924 25.9671 17.3267 25.9671C15.257 25.9671 13.3621 25.2596 11.9046 24.071C9.98058 22.5427 8.75623 20.222 8.75623 17.6182V16.9956C8.75623 16.9107 8.75623 16.8541 8.78538 16.7692C8.78538 16.7126 8.78538 16.6843 8.81453 16.6277C8.81453 16.5711 8.84368 16.5145 8.84368 16.4296C8.87283 16.1748 8.93113 15.9484 8.98944 15.6937C9.01859 15.6088 9.01859 15.5522 9.04774 15.4673C9.04774 15.439 9.07689 15.3824 9.07689 15.3541C9.10604 15.2692 9.10604 15.2126 9.13519 15.1277C9.16435 15.0145 9.22265 14.9013 9.2518 14.7881C9.2518 14.7598 9.28095 14.7032 9.28095 14.6749C9.3101 14.59 9.33925 14.5334 9.36841 14.4485L9.45586 14.2786C9.71822 13.6843 10.068 13.09 10.4762 12.5806C10.5636 12.4674 10.6802 12.3542 10.7677 12.2126C10.826 12.156 10.8551 12.0994 10.9134 12.0428C10.9426 12.0145 10.9717 11.9862 11.0009 11.9296L11.0883 11.8447L11.5256 11.4202C11.6422 11.307 11.788 11.1938 11.9046 11.1089C11.8754 11.1372 11.8754 11.1655 11.8463 11.1938C11.8171 11.2221 11.8171 11.2504 11.788 11.307C11.2924 12.2975 10.9717 13.4296 10.8551 14.6749C10.826 15.0145 10.7968 15.3541 10.7968 15.6937C10.7968 20.0521 13.4205 23.5898 16.6854 23.5898H17.0061C17.4725 23.5898 17.9389 23.5332 18.3762 23.42C20.5917 22.8257 22.195 20.8729 22.195 18.5522V18.4107C22.1659 17.0239 21.5537 15.8069 20.5917 14.9013C21.2622 14.9296 21.9035 15.0145 22.5448 15.156C23.74 15.4673 24.8478 16.005 25.7806 16.7409C25.8098 16.7409 25.8098 16.7692 25.8389 16.7692C25.8681 17.1088 25.8973 17.3635 25.8973 17.6465Z" fill="#F69220"/>
<path d="M25.9246 17.6465V17.9295C25.9246 19.7125 25.1084 21.2408 25.1084 21.2408C25.0501 21.3823 24.9627 21.5238 24.8752 21.6653C24.263 22.7408 23.3885 23.703 22.339 24.4389C20.8523 25.4577 19.1324 26.0238 17.2958 26.0238C15.3135 26.0238 13.3604 25.3445 11.8445 24.1276C9.83307 22.5427 8.69617 20.1653 8.69617 17.6465C8.69617 15.1277 9.86222 12.7504 11.8737 11.1655L11.9611 11.1089C11.932 11.1372 11.932 11.1655 11.9028 11.1938C11.8737 11.2221 11.8737 11.2504 11.8445 11.2787C9.89137 12.8636 8.75447 15.1843 8.75447 17.6465C8.75447 20.137 9.89137 22.4861 11.8737 24.0709C13.3895 25.2879 15.3135 25.9388 17.2958 25.9388C19.1032 25.9388 20.8232 25.4011 22.2807 24.3823C23.301 23.6747 24.1756 22.7125 24.7877 21.637C24.8752 21.4955 24.9335 21.354 25.021 21.2125C25.021 21.1842 25.8372 19.6842 25.8372 17.9295V17.6465C25.8372 17.3918 25.8372 17.1088 25.808 16.8541V16.8258C25.8372 16.8258 25.8372 16.8541 25.8663 16.8541L25.8955 16.8824C25.9246 17.1371 25.9246 17.3918 25.9246 17.6465Z" fill="#F69220"/>
<path d="M23.5938 12.4668C23.5938 12.4668 16.5975 11.1932 13.3033 17.1082C13.3033 17.1082 13.8864 13.0045 18.9004 11.1649L17.9093 9.3536C17.9093 9.3536 19.9207 7.59889 23.448 8.05172L23.5938 12.4668Z" fill="#EA2227"/>
<path d="M14.9053 15.6083C14.9053 15.6083 17.7038 12.0707 24.088 12.9763L24.0005 10.9103C24.0005 10.9103 26.6824 10.8254 28.8396 12.6367L26.1869 16.5423C26.1869 16.5423 24.3503 14.4763 20.5606 14.4197C19.0156 14.3914 17.1208 14.5895 14.9053 15.6083Z" fill="#F69220"/>
<path d="M12.1381 18.8349C12.1381 18.8349 8.93148 12.0708 16.3651 7.7124L18.1433 10.8822C18.1433 10.8822 16.9481 11.2784 15.6655 12.3539C14.2662 13.5142 12.7503 15.4953 12.1381 18.8349Z" fill="#F69220"/>
<path d="M16.3631 16.9956C16.3631 16.9956 15.751 17.1371 15.7801 16.8258C15.7801 16.7126 15.8384 16.6843 15.8967 16.7126C15.8967 16.656 15.7801 16.5145 16.0425 16.4296C16.1299 16.3164 16.2174 16.2032 16.2465 16.1466C16.2757 16.0617 16.334 15.9768 16.5672 16.0051C16.8004 16.0617 17.0628 16.2881 17.0919 16.3447C17.2377 16.3447 17.3834 16.373 17.3251 16.4013C17.2668 16.4296 17.2377 16.4862 17.2668 16.4862C17.2668 16.4862 17.3543 16.5428 17.1211 16.5428C17.1211 16.5994 17.1794 16.5994 17.2085 16.6277C17.2377 16.656 17.2085 16.6843 17.2085 16.6843C17.2085 16.6843 17.2377 16.7975 17.1211 16.7692C17.0045 16.7126 17.0045 16.6843 16.9462 16.6843C16.917 16.6843 16.8296 16.7126 16.8296 16.7409C16.8296 16.7692 16.9753 16.8541 16.8004 16.8824C16.7713 16.9107 16.8587 16.939 16.8004 16.9673C16.7421 16.9956 16.4798 17.1937 16.3631 17.222C16.2465 17.222 16.2174 17.1937 16.2174 17.1371C16.2174 17.0805 16.2757 17.0522 16.3631 17.0522C16.3923 17.0239 16.3923 16.9956 16.3631 16.9956Z" fill="#EC1C24"/>
<path d="M16.3068 17.6179C16.2485 17.6179 16.0736 17.5047 16.1611 17.4481C16.2485 17.3915 16.6566 17.1367 16.7441 17.1084C16.8316 17.0801 16.9482 17.1933 16.8315 17.2782C16.7441 17.3632 16.3068 17.6179 16.3068 17.6179Z" fill="#EC1C24"/>
<path d="M16.9476 17.3375C16.9476 17.2809 17.0059 17.0262 17.0059 16.9696C17.0059 16.913 17.21 16.913 17.1517 17.1111C17.1225 17.3375 16.9476 17.3941 16.9476 17.3375Z" fill="#EC1C24"/>
<path d="M17.2103 16.885C17.2103 16.885 18.318 16.8284 18.4055 16.885C18.4929 16.9416 18.8719 17.5077 18.7844 18.0171C18.697 18.5265 18.5221 18.668 17.8224 18.7246C17.8224 18.5548 17.7933 18.1303 17.7058 18.0171C17.6475 17.9039 17.3852 17.6492 17.2686 17.6492C17.2686 17.7624 17.2394 18.1303 17.2394 18.1303C17.2394 18.1303 16.8896 18.1586 16.8313 18.0737V17.536C16.8313 17.536 17.152 17.2529 17.1811 17.1963C17.2394 17.2246 17.2394 17.3944 17.6475 17.3661C17.6767 17.3095 17.2103 17.3661 17.2103 16.885Z" fill="#EC1C24"/>
<path d="M16.8015 17.3643C16.8015 17.3643 16.4516 17.6473 16.3642 17.7039C16.335 17.7888 16.2767 18.1001 16.7431 18.1001C16.7723 17.902 16.8015 17.3643 16.8015 17.3643Z" fill="#EC1C24"/>
<path d="M15.9573 17.7881C15.8407 17.7881 15.7532 17.7598 15.7824 17.6749C15.7824 17.59 15.9573 17.5051 16.0447 17.5334C16.1322 17.5617 16.3071 17.59 16.3071 17.9579C16.3654 18.0428 16.5986 18.1843 16.861 18.2126C17.1233 18.2409 17.2983 18.1843 17.2983 18.2692V18.7787C17.2983 18.7787 16.9776 18.7787 16.1614 18.2126C16.103 18.1277 16.0447 18.0711 16.0447 17.9296C16.0447 17.873 15.9864 17.7881 15.9573 17.7881Z" fill="#EC1C24"/>
<path d="M15.6926 17.8452C15.5469 17.8452 15.1679 18.1565 15.4594 18.298C15.5469 18.2414 15.6052 18.1565 15.6052 18.1565C15.6052 18.1565 15.5469 18.3263 15.6926 18.3829C15.8384 18.4395 15.7801 18.298 15.8676 18.298C15.9259 18.3829 15.9259 18.4112 16.0133 18.4112C16.1008 18.4112 16.1008 18.1848 16.0133 18.0716C15.9259 17.9301 15.8384 17.8735 15.6926 17.8452Z" fill="#EC1C24"/>
<path d="M17.3535 17.9023V18.8929C17.3535 18.8929 17.7033 18.7797 17.7325 18.6948C17.7325 18.525 17.6742 17.9023 17.3535 17.9023Z" fill="#EC1C24"/>
<path d="M16.5394 18.5527C16.5394 18.5527 16.9475 18.8075 17.1807 18.9207C17.1516 18.9773 16.9766 19.1754 16.9183 19.1754C16.86 19.1471 16.5685 18.7508 16.5394 18.5527Z" fill="#EC1C24"/>
<path d="M14.585 18.9209H15.1097V19.119H14.6141L14.585 18.9209Z" fill="#EC1C24"/>
<path d="M20.5608 18.8354H18.2578L18.6368 19.1185H20.5608V18.8354Z" fill="#EC1C24"/>
<path d="M17.8226 18.8065C17.8518 18.7782 18.1141 18.9763 18.0558 19.0046C17.9684 19.0329 17.2687 19.3442 17.2104 19.3159C17.1521 19.2876 17.1521 19.1178 17.2396 19.0895C17.2979 19.0612 17.706 18.948 17.8226 18.8065Z" fill="#EC1C24"/>
<path d="M17.0336 19.2879C16.9462 19.2313 16.4797 19.6841 16.6838 19.7124C16.8878 19.7407 17.3834 19.8256 17.5 19.8822C17.6166 19.8256 17.7332 19.7407 17.7041 19.6841C17.7915 19.6841 17.9081 19.7973 18.0248 19.769C18.1414 19.7124 18.6952 19.3162 18.7244 19.2596C18.6078 19.1747 18.3746 19.0332 18.258 19.0332C18.1705 19.0332 17.4126 19.4577 17.0336 19.2879Z" fill="#EC1C24"/>
<path d="M16.7999 19.825C16.8582 19.825 17.4412 20.0514 17.587 20.0231C17.7328 19.9948 17.7619 19.8533 17.8494 19.8533C17.9368 19.8533 17.966 19.9382 18.1117 19.8533C18.2575 19.7684 18.4907 19.5703 18.549 19.5137C18.549 19.5986 18.549 19.8533 18.0243 20.0797C17.4995 20.3061 16.246 20.6457 16.2169 20.8155C16.2752 20.8438 16.4209 20.7872 16.5375 20.7306C16.5959 20.7872 16.7125 20.9287 16.6833 21.2118C16.6542 21.4665 16.4501 21.9193 16.4501 22.0325V22.7683C16.4501 22.8249 16.5667 23.1363 16.3918 23.108C16.246 23.0797 16.1294 23.0797 16.0711 23.0797C16.0128 23.0797 15.8962 23.1929 15.7796 23.1646C15.663 23.1363 15.4881 23.108 15.4881 23.0514C15.4881 22.9947 15.6047 22.9947 15.7213 22.9664C15.8379 22.9381 15.8962 22.8249 16.1003 22.74C16.1003 22.5985 16.042 21.6363 16.042 21.4382C16.042 21.2401 15.9837 20.8155 16.0711 20.6457C16.1003 20.4759 16.5667 19.825 16.7999 19.825Z" fill="#EC1C24"/>
<path d="M17.5579 20.4197C17.5579 20.4763 17.9077 21.3536 18.0826 21.3819C18.2283 21.4102 19.7151 21.0989 20.0066 21.1838C20.094 21.297 20.2689 21.4951 20.2689 21.6367C20.2689 21.6367 20.2981 21.9197 20.2689 21.948C20.3272 21.948 20.4439 21.9197 20.473 21.8348C20.5022 21.7499 20.473 21.3819 20.5022 21.297C20.5022 21.2404 20.6771 20.8725 20.4439 20.9008C20.2106 20.9008 19.511 20.9008 19.2778 20.8442C19.0446 20.7876 18.549 20.7027 18.4324 20.7593C18.3158 20.8159 18.17 21.014 18.17 21.0706C18.1117 21.0706 18.1117 21.0423 18.1409 20.8725C18.1992 20.731 18.3741 20.2782 18.3449 20.0518C18.17 20.0518 17.5579 20.4197 17.5579 20.4197Z" fill="#EC1C24"/>
<path d="M16.7134 19.0356C16.7426 19.0639 16.7426 19.1488 16.8009 19.1771L15.6057 19.0922C15.6057 19.0922 15.4599 19.0073 15.5182 18.979L16.7134 19.0356Z" fill="#EC1C24"/>
<path d="M15.4013 18.9198H16.5965C16.5965 18.9198 16.5091 18.7783 16.4799 18.6934C16.2759 18.6934 15.3722 18.7217 15.3722 18.7217C15.3722 18.7217 15.2556 18.7217 15.2556 18.9481C15.2264 19.0047 15.343 19.0896 15.4013 18.9198Z" fill="#EC1C24"/>
<path d="M14.2646 19.1198H14.4978C14.4978 19.1198 14.5852 19.0915 14.4978 19.0066C14.4103 18.9217 14.2646 18.8651 14.3812 18.6953C14.2646 18.667 14.0897 18.6387 14.1188 19.0066H14.0022C14.0022 19.0066 13.9731 18.8085 13.6815 18.8085C13.4192 18.8085 12.7195 19.0915 12.7195 19.0915C12.7195 19.0915 13.4775 19.2896 13.6815 19.2896C13.8856 19.2896 14.0022 19.1198 14.0022 19.1198H14.0897C14.0897 19.1198 14.1188 19.2613 14.1771 19.3179V19.5444C14.1771 19.5444 14.0605 19.5727 14.0897 19.7142C14.1188 19.8274 14.2063 19.8274 14.2063 19.8274C14.2354 19.8274 14.2646 19.7991 14.352 19.7991C14.4103 19.7425 14.3812 19.601 14.2646 19.5444V19.3745C14.2646 19.3745 14.352 19.3179 14.352 19.2613C14.352 19.2047 14.2646 19.2047 14.2646 19.1198Z" fill="#EC1C24"/>
<path d="M15.6933 20.2502C15.7808 20.1936 15.8099 20.0804 15.8099 20.0804V19.4012C15.8099 19.2314 15.5184 19.1182 15.4893 19.1182H15.4601C15.431 19.1465 15.3435 19.2031 15.2852 19.2031C15.1977 19.2031 15.1686 19.2031 15.0811 19.1182C14.8479 19.1182 14.7313 19.4012 14.7022 19.4012C14.7022 19.4578 14.673 19.9389 14.7022 20.0238C14.7313 20.1087 14.7896 20.1653 14.8188 20.1936C14.7605 20.3634 14.5273 21.2691 14.8479 21.3823V21.5238H15.6642V21.354C15.9557 21.2408 15.7516 20.4766 15.6933 20.2502ZM14.7896 19.4012C14.8188 19.3729 14.9062 19.1465 15.0811 19.1465C15.1686 19.2314 15.2269 19.2314 15.3144 19.2314C15.4018 19.2314 15.4601 19.1748 15.5184 19.1465C15.6059 19.1748 15.7808 19.2597 15.7808 19.3729V20.0521C15.7808 20.0804 15.7516 20.137 15.6933 20.1653H15.5476V19.8823H14.9937V20.1653H14.8771C14.8479 20.137 14.7896 20.0804 14.7896 20.0238C14.7605 19.9672 14.7605 19.6276 14.7896 19.4012ZM15.3435 21.2691H15.1977C15.1686 21.2691 15.1394 21.2408 15.1394 21.2125C15.1394 21.1842 15.1686 21.1559 15.1977 21.1559H15.3435C15.3727 21.1559 15.4018 21.1842 15.4018 21.2125C15.4018 21.2408 15.3727 21.2691 15.3435 21.2691ZM15.635 21.3257L15.256 20.9012L14.9062 21.3257C14.673 21.2408 14.8188 20.5332 14.9062 20.2219H15.6642C15.7225 20.5332 15.8682 21.2125 15.635 21.3257Z" fill="#EC1C24"/>
<path d="M15.5182 20.536C15.6056 20.4228 15.489 20.3379 15.489 20.3379H15.0226C14.8769 20.3379 14.9352 20.536 14.9352 20.536L15.2267 20.7907C15.2267 20.7907 15.4307 20.6775 15.5182 20.536Z" fill="#EC1C24"/>
<path d="M15.3433 20.8168L15.6348 21.1564C15.6348 21.1564 15.6057 20.7602 15.6057 20.647C15.5182 20.647 15.3433 20.8168 15.3433 20.8168Z" fill="#EC1C24"/>
<path d="M14.9039 20.647C14.9039 20.7885 14.8748 21.1564 14.8748 21.1564L15.1663 20.8168C15.1663 20.8168 14.9914 20.647 14.9039 20.647Z" fill="#EC1C24"/>
<path d="M15.461 19.7973H15.5193V19.7407C15.5193 19.7124 15.4902 19.6841 15.461 19.6841H15.0238C14.9946 19.6841 14.9655 19.7124 14.9655 19.7407V19.7973H15.0238H15.461Z" fill="#EC1C24"/>
<path d="M14.8196 21.5801H14.7613V21.6367C14.7613 21.665 14.7904 21.6933 14.8196 21.6933H15.665C15.6941 21.6933 15.7233 21.665 15.7233 21.6367V21.5801H15.665H14.8196Z" fill="#EC1C24"/>
</svg>
