<svg width="50" height="47" viewBox="0 0 50 47" fill="none" xmlns="http://www.w3.org/2000/svg">
<rect width="50" height="47" rx="10" fill="white"/>
<path d="M39.0937 34.524C40.746 31.6218 40.0738 27.952 37.5 25.824V21.749H38.125C38.4702 21.749 38.75 21.4692 38.75 21.124V19.249H39.375C39.7202 19.2482 39.9994 18.9677 39.9985 18.6225C39.9981 18.4188 39.8983 18.2281 39.7312 18.1115L25.3562 8.11149C25.142 7.96284 24.858 7.96284 24.6438 8.11149L10.2688 18.1115C9.9857 18.3091 9.91645 18.6987 10.114 18.9817C10.2306 19.1488 10.4213 19.2485 10.625 19.249H11.25V21.124C11.25 21.4692 11.5299 21.749 11.8751 21.749H12.5001V31.749H11.875C11.5298 31.749 11.25 32.0289 11.25 32.374V34.3615C10.5027 34.6257 10.0022 35.3313 10 36.124V37.374C10 37.7191 10.2798 37.999 10.625 37.999H39.375C39.7202 37.999 40.0001 37.7191 40.0001 37.374V36.124C39.9981 35.469 39.6546 34.8624 39.0937 34.524ZM37.5 20.499H32.5V19.249H37.5V20.499ZM36.25 21.749V25.0052C35.471 24.6052 34.6222 24.359 33.75 24.2803V21.749H36.25ZM25 9.38649L37.3813 17.999H12.6187L25 9.38649ZM18.125 31.749H17.5V21.749H18.125C18.4702 21.749 18.75 21.4692 18.75 21.124V19.249H21.25V21.124C21.25 21.4692 21.5298 21.749 21.875 21.749H22.5V31.749H21.875C21.5298 31.749 21.25 32.0289 21.25 32.374V34.249H18.75V32.374C18.75 32.0288 18.4702 31.749 18.125 31.749ZM22.5 32.999H26.5188C26.6418 33.4309 26.8071 33.8496 27.0125 34.249H22.5V32.999H22.5ZM23.75 31.749V21.749H26.25V31.749H23.75ZM26.875 20.499H22.5V19.249H27.5V20.499H26.875ZM27.5 21.749H28.125C28.4702 21.749 28.7501 21.4692 28.7501 21.124V19.249H31.2501V21.124C31.2501 21.4692 31.5299 21.749 31.8751 21.749H32.5V24.2803C30.4882 24.4653 28.6596 25.5259 27.5 27.1802V21.749ZM12.5 19.249H17.5V20.499H12.5V19.249ZM16.25 21.749V31.749H13.75V21.749H16.25ZM12.5 32.999H17.5V34.249H12.5V32.999ZM11.25 36.749V36.124C11.25 35.7788 11.5298 35.499 11.875 35.499H27.825C28.2194 35.9742 28.6755 36.3946 29.1812 36.749H11.25V36.749ZM38.75 36.749H37.0625C37.5494 36.409 37.9905 36.0078 38.375 35.5553C38.6014 35.6541 38.7484 35.877 38.75 36.124V36.749ZM33.125 36.749C30.0184 36.749 27.5 34.2306 27.5 31.124C27.5 28.0174 30.0184 25.499 33.125 25.499C36.2316 25.499 38.75 28.0174 38.75 31.124C38.75 34.2306 36.2316 36.749 33.125 36.749Z" fill="#232440"/>
<path d="M32.275 15.6177L25.4 10.6177L24.6313 11.6302L29.95 15.4989H18.75V16.7489H31.875C32.1568 16.7627 32.4129 16.586 32.5 16.3177C32.5847 16.0602 32.4939 15.7775 32.275 15.6177Z" fill="#232440"/>
<path d="M34.375 27.999H33.75V26.749H32.5V27.999H31.875C31.1846 27.999 30.625 28.5586 30.625 29.249V30.499C30.625 31.1893 31.1846 31.7489 31.875 31.7489H34.375V32.9989H31.875V32.3739H30.625V32.9989C30.625 33.6893 31.1846 34.2489 31.875 34.2489H32.5V35.4989H33.75V34.2489H34.375C35.0654 34.2489 35.625 33.6893 35.625 32.9989V31.7489C35.625 31.0586 35.0654 30.499 34.375 30.499H31.875V29.249H34.375V29.874H35.625V29.249C35.625 28.5586 35.0654 27.999 34.375 27.999Z" fill="#232440"/>
</svg>
