<svg width="50" height="47" viewBox="0 0 50 47" fill="none" xmlns="http://www.w3.org/2000/svg">
<rect width="50" height="47" rx="10" fill="white"/>
<path d="M22.6563 12.2812C22.2854 12.2812 21.9229 12.3912 21.6146 12.5972C21.3062 12.8033 21.0659 13.0961 20.924 13.4387C20.7821 13.7813 20.7449 14.1583 20.8173 14.522C20.8896 14.8858 21.0682 15.2199 21.3304 15.4821C21.5926 15.7443 21.9267 15.9229 22.2905 15.9952C22.6542 16.0676 23.0312 16.0304 23.3738 15.8885C23.7164 15.7466 24.0092 15.5063 24.2153 15.1979C24.4213 14.8896 24.5313 14.5271 24.5313 14.1562C24.5307 13.6591 24.333 13.1826 23.9815 12.831C23.63 12.4795 23.1534 12.2818 22.6563 12.2812ZM22.6563 15.0938C22.4708 15.0938 22.2896 15.0388 22.1354 14.9358C21.9812 14.8327 21.8611 14.6863 21.7901 14.515C21.7192 14.3437 21.7006 14.1552 21.7368 13.9734C21.7729 13.7915 21.8622 13.6244 21.9933 13.4933C22.1245 13.3622 22.2915 13.2729 22.4734 13.2368C22.6552 13.2006 22.8437 13.2192 23.015 13.2901C23.1863 13.3611 23.3327 13.4812 23.4358 13.6354C23.5388 13.7896 23.5938 13.9708 23.5938 14.1562C23.5935 14.4048 23.4946 14.6431 23.3188 14.8188C23.1431 14.9946 22.9048 15.0935 22.6563 15.0938Z" fill="black"/>
<path d="M36.7188 16.9688H34.041L22.9047 10.0088C22.8302 9.96219 22.7441 9.9375 22.6562 9.9375C22.5684 9.9375 22.4823 9.96219 22.4078 10.0088L11.1578 17.04C11.0906 17.0822 11.0352 17.1409 10.9968 17.2104C10.9585 17.2799 10.9385 17.3581 10.9387 17.4375H10.9375V19.3125C10.9375 19.4368 10.9869 19.5561 11.0748 19.644C11.1627 19.7319 11.2819 19.7813 11.4062 19.7813H12.8125V21.1875C12.8125 21.3118 12.8619 21.4311 12.9498 21.519C13.0377 21.6069 13.1569 21.6563 13.2812 21.6563H13.75V27.75H13.2812C13.1569 27.75 13.0377 27.7994 12.9498 27.8873C12.8619 27.9752 12.8125 28.0944 12.8125 28.2188V29.625H12.3438C12.2194 29.625 12.1002 29.6744 12.0123 29.7623C11.9244 29.8502 11.875 29.9694 11.875 30.0938V31.5H11.4062C11.2819 31.5 11.1627 31.5494 11.0748 31.6373C10.9869 31.7252 10.9375 31.8444 10.9375 31.9688V33.8438C10.9375 33.9681 10.9869 34.0873 11.0748 34.1752C11.1627 34.2631 11.2819 34.3125 11.4062 34.3125H25.9375V35.7188C25.9382 36.3401 26.1854 36.9359 26.6247 37.3753C27.0641 37.8146 27.6599 38.0618 28.2812 38.0625H36.7188C37.3401 38.0618 37.9359 37.8146 38.3753 37.3753C38.8146 36.9359 39.0618 36.3401 39.0625 35.7188V19.3125C39.0618 18.6911 38.8146 18.0954 38.3753 17.656C37.9359 17.2166 37.3401 16.9694 36.7188 16.9688ZM30.1562 17.9063H34.8438V18.375C34.8436 18.4993 34.7942 18.6184 34.7063 18.7063C34.6184 18.7942 34.4993 18.8436 34.375 18.8438H30.625C30.5007 18.8436 30.3816 18.7942 30.2937 18.7063C30.2058 18.6184 30.1564 18.4993 30.1562 18.375V17.9063ZM22.6562 10.959L32.2718 16.9688H13.041L22.6562 10.959ZM11.875 17.9063H26.4075C26.1986 18.1834 26.0542 18.5037 25.9847 18.8438H11.875V17.9063ZM17.5 29.625V28.2188C17.5 28.0944 17.4506 27.9752 17.3627 27.8873C17.2748 27.7994 17.1556 27.75 17.0312 27.75H16.5625V21.6563H17.0312C17.1556 21.6563 17.2748 21.6069 17.3627 21.519C17.4506 21.4311 17.5 21.3118 17.5 21.1875V19.7813H20.3125V21.1875C20.3125 21.3118 20.3619 21.4311 20.4498 21.519C20.5377 21.6069 20.6569 21.6563 20.7812 21.6563H21.25V27.75H20.7812C20.6569 27.75 20.5377 27.7994 20.4498 27.8873C20.3619 27.9752 20.3125 28.0944 20.3125 28.2188V29.625H17.5ZM23.125 27.75H22.1875V21.6563H23.125V27.75ZM21.25 20.7188V19.7813H24.0625V20.7188H21.25ZM21.25 28.6875H24.0625V29.625H21.25V28.6875ZM24.5312 27.75H24.0625V21.6563H24.5312C24.6556 21.6563 24.7748 21.6069 24.8627 21.519C24.9506 21.4311 25 21.3118 25 21.1875V19.7813H25.9375V29.625H25V28.2188C25 28.0944 24.9506 27.9752 24.8627 27.8873C24.7748 27.7994 24.6556 27.75 24.5312 27.75ZM16.5625 19.7813V20.7188H13.75V19.7813H16.5625ZM14.6875 21.6563H15.625V27.75H14.6875V21.6563ZM13.75 28.6875H16.5625V29.625H13.75V28.6875ZM12.8125 30.5625H25.9375V31.5H12.8125V30.5625ZM11.875 33.375V32.4375H25.9375V33.375H11.875ZM38.125 35.7188C38.1246 36.0916 37.9763 36.449 37.7126 36.7126C37.449 36.9763 37.0916 37.1246 36.7188 37.125H28.2812C27.9084 37.1246 27.551 36.9763 27.2874 36.7126C27.0237 36.449 26.8754 36.0916 26.875 35.7188V19.3125C26.8754 18.9397 27.0237 18.5822 27.2874 18.3186C27.551 18.055 27.9084 17.9067 28.2812 17.9063H29.2188V18.375C29.2192 18.7478 29.3675 19.1053 29.6311 19.3689C29.8947 19.6325 30.2522 19.7808 30.625 19.7813H34.375C34.7478 19.7808 35.1053 19.6325 35.3689 19.3689C35.6325 19.1053 35.7808 18.7478 35.7812 18.375V17.9063H36.7188C37.0916 17.9067 37.449 18.055 37.7126 18.3186C37.9763 18.5822 38.1246 18.9397 38.125 19.3125V35.7188Z" fill="#232440"/>
<path d="M32.5 22.5938C31.5729 22.5938 30.6666 22.8687 29.8958 23.3837C29.1249 23.8988 28.5241 24.6309 28.1693 25.4874C27.8145 26.3439 27.7217 27.2864 27.9026 28.1957C28.0834 29.105 28.5299 29.9402 29.1854 30.5958C29.841 31.2514 30.6762 31.6978 31.5855 31.8787C32.4948 32.0595 33.4373 31.9667 34.2938 31.6119C35.1504 31.2571 35.8824 30.6563 36.3975 29.8855C36.9126 29.1146 37.1875 28.2083 37.1875 27.2812C37.1861 26.0385 36.6918 24.847 35.813 23.9682C34.9342 23.0895 33.7428 22.5952 32.5 22.5938ZM32.5 31.0312C31.7583 31.0312 31.0333 30.8113 30.4166 30.3993C29.7999 29.9872 29.3193 29.4015 29.0355 28.7163C28.7516 28.0311 28.6774 27.2771 28.8221 26.5497C28.9668 25.8222 29.3239 25.154 29.8484 24.6296C30.3728 24.1052 31.041 23.748 31.7684 23.6033C32.4958 23.4586 33.2498 23.5329 33.9351 23.8167C34.6203 24.1005 35.206 24.5812 35.618 25.1979C36.0301 25.8145 36.25 26.5396 36.25 27.2812C36.2489 28.2755 35.8534 29.2286 35.1504 29.9317C34.4474 30.6347 33.4942 31.0301 32.5 31.0312Z" fill="black"/>
<path d="M32.5 25.875C32.6243 25.8751 32.7434 25.9246 32.8313 26.0124C32.9192 26.1003 32.9686 26.2195 32.9688 26.3438H33.9062C33.9059 26.0531 33.8156 25.7696 33.6477 25.5323C33.4799 25.2949 33.2427 25.1153 32.9688 25.0181V24.4688H32.0312V25.0181C31.7186 25.1288 31.4552 25.3464 31.2875 25.6325C31.1197 25.9186 31.0585 26.2547 31.1146 26.5816C31.1707 26.9084 31.3404 27.2049 31.594 27.4187C31.8475 27.6325 32.1684 27.7499 32.5 27.75C32.5927 27.75 32.6833 27.7775 32.7604 27.829C32.8375 27.8805 32.8976 27.9537 32.9331 28.0394C32.9685 28.125 32.9778 28.2193 32.9597 28.3102C32.9417 28.4011 32.897 28.4847 32.8315 28.5502C32.7659 28.6158 32.6824 28.6604 32.5914 28.6785C32.5005 28.6966 32.4063 28.6873 32.3206 28.6518C32.235 28.6163 32.1618 28.5563 32.1102 28.4792C32.0587 28.4021 32.0312 28.3115 32.0312 28.2188H31.0938C31.0941 28.5094 31.1844 28.7929 31.3523 29.0302C31.5201 29.2676 31.7573 29.4472 32.0312 29.5444V30.0938H32.9688V29.5444C33.2814 29.4337 33.5448 29.2161 33.7125 28.93C33.8803 28.6439 33.9415 28.3078 33.8854 27.9809C33.8293 27.6541 33.6596 27.3576 33.406 27.1438C33.1525 26.93 32.8316 26.8126 32.5 26.8125C32.3757 26.8125 32.2565 26.7631 32.1685 26.6752C32.0806 26.5873 32.0312 26.4681 32.0312 26.3438C32.0312 26.2194 32.0806 26.1002 32.1685 26.0123C32.2565 25.9244 32.3757 25.875 32.5 25.875Z" fill="black"/>
<path d="M33.9062 35.25H31.0938V36.1875H33.9062V35.25Z" fill="black"/>
</svg>
