<svg width="29" height="30" viewBox="0 0 29 30" fill="none" xmlns="http://www.w3.org/2000/svg">
<g filter="url(#filter0_d_87_236)">
<path d="M24.5714 18.5453C24.5714 18.2125 24.3016 17.9427 23.9687 17.9427H19.7629C19.8524 15.7667 20.4031 13.5595 20.9374 11.419C21.5388 9.00988 22.1607 6.51877 22.1607 4.0007C22.1607 2.33911 20.8089 0.987305 19.1473 0.987305H7.01339C5.35181 0.987305 4 2.33911 4 4.0007C4 4.33354 4.26984 4.60338 4.60268 4.60338H8.80885C8.71937 6.77925 8.16841 8.98658 7.63403 11.1271C7.0326 13.5362 6.41071 16.0273 6.41071 18.5453C6.41071 20.2069 7.76252 21.5587 9.42411 21.5587H21.5581C23.2196 21.5587 24.5714 20.2069 24.5714 18.5453ZM5.30862 3.39802C5.55736 2.69646 6.22766 2.19266 7.01339 2.19266C7.79912 2.19266 8.46942 2.69646 8.71817 3.39802H5.30862ZM7.61607 18.5453C7.61607 16.1754 8.21971 13.7574 8.80347 11.419C9.4049 9.00988 10.0268 6.51877 10.0268 4.0007C10.0268 3.32284 9.80167 2.69666 9.42246 2.19266H19.1473C20.1443 2.19266 20.9554 3.00375 20.9554 4.0007C20.9554 6.37059 20.3517 8.78862 19.768 11.1271C19.2145 13.3438 18.6442 15.63 18.5566 17.9427H11.8348C11.502 17.9427 11.2321 18.2125 11.2321 18.5453C11.2321 19.5423 10.4211 20.3534 9.42411 20.3534C8.42716 20.3534 7.61607 19.5423 7.61607 18.5453ZM21.558 20.3534H11.8326C12.0965 20.0027 12.2862 19.5932 12.377 19.148H23.2624C23.0136 19.8495 22.3437 20.3534 21.558 20.3534Z" fill="#232440"/>
<path d="M11.8349 7.01395H18.9463C19.2791 7.01395 19.5489 6.74411 19.5489 6.41127C19.5489 6.07843 19.2791 5.80859 18.9463 5.80859H11.8349C11.502 5.80859 11.2322 6.07843 11.2322 6.41127C11.2322 6.74411 11.502 7.01395 11.8349 7.01395Z" fill="#232440"/>
<path d="M11.2692 9.42459H18.4634C18.7962 9.42459 19.066 9.15476 19.066 8.82192C19.066 8.48908 18.7962 8.21924 18.4634 8.21924H11.2692C10.9363 8.21924 10.6665 8.48908 10.6665 8.82192C10.6665 9.15476 10.9363 9.42459 11.2692 9.42459Z" fill="#232440"/>
<path d="M10.7042 11.8357H17.867C18.1998 11.8357 18.4697 11.5659 18.4697 11.233C18.4697 10.9002 18.1998 10.6304 17.867 10.6304H10.7042C10.3714 10.6304 10.1016 10.9002 10.1016 11.233C10.1016 11.5659 10.3714 11.8357 10.7042 11.8357V11.8357Z" fill="#232440"/>
<path d="M10.108 14.2464H17.3023C17.6351 14.2464 17.9049 13.9765 17.9049 13.6437C17.9049 13.3109 17.6351 13.041 17.3023 13.041H10.108C9.77521 13.041 9.50537 13.3109 9.50537 13.6437C9.50537 13.9765 9.77521 14.2464 10.108 14.2464Z" fill="#232440"/>
</g>
<defs>
<filter id="filter0_d_87_236" x="0" y="0.987305" width="28.5714" height="28.5713" filterUnits="userSpaceOnUse" color-interpolation-filters="sRGB">
<feFlood flood-opacity="0" result="BackgroundImageFix"/>
<feColorMatrix in="SourceAlpha" type="matrix" values="0 0 0 0 0 0 0 0 0 0 0 0 0 0 0 0 0 0 127 0" result="hardAlpha"/>
<feOffset dy="4"/>
<feGaussianBlur stdDeviation="2"/>
<feComposite in2="hardAlpha" operator="out"/>
<feColorMatrix type="matrix" values="0 0 0 0 0 0 0 0 0 0 0 0 0 0 0 0 0 0 0.25 0"/>
<feBlend mode="normal" in2="BackgroundImageFix" result="effect1_dropShadow_87_236"/>
<feBlend mode="normal" in="SourceGraphic" in2="effect1_dropShadow_87_236" result="shape"/>
</filter>
</defs>
</svg>
