<svg width="20" height="25" viewBox="0 0 20 25" fill="none" xmlns="http://www.w3.org/2000/svg">
<path d="M9.37436 6.76953C9.56851 6.76953 9.72592 6.61213 9.72592 6.41797C9.72592 6.22381 9.56851 6.06641 9.37436 6.06641H4.73511C4.54095 6.06641 4.38354 6.22381 4.38354 6.41797C4.38354 6.61213 4.54095 6.76953 4.73511 6.76953H9.37436Z" fill="black"/>
<path d="M2.78979 8.80859C2.78979 9.00275 2.9472 9.16016 3.14136 9.16016H10.9681C11.1623 9.16016 11.3197 9.00275 11.3197 8.80859C11.3197 8.61444 11.1623 8.45703 10.9681 8.45703H3.14136C2.9472 8.45703 2.78979 8.61444 2.78979 8.80859Z" fill="black"/>
<path d="M3.14136 10.8008H10.9681C11.1623 10.8008 11.3197 10.6434 11.3197 10.4492C11.3197 10.2551 11.1623 10.0977 10.9681 10.0977H3.14136C2.9472 10.0977 2.78979 10.2551 2.78979 10.4492C2.78979 10.6434 2.9472 10.8008 3.14136 10.8008Z" fill="black"/>
<path d="M3.14136 14.082H5.81187C6.00602 14.082 6.16343 13.9246 6.16343 13.7305C6.16343 13.5363 6.00602 13.3789 5.81187 13.3789H3.14136C2.9472 13.3789 2.78979 13.5363 2.78979 13.7305C2.78979 13.9246 2.9472 14.082 3.14136 14.082Z" fill="black"/>
<path d="M18.9598 16.2374C19.154 16.2374 19.3114 16.08 19.3114 15.8859V14.306C19.3114 14.09 19.2017 13.893 19.018 13.7792L17.3272 12.7319V1.05078C17.3272 0.779375 17.1064 0.558594 16.835 0.558594H3.70973C3.43833 0.558594 3.21755 0.779375 3.21755 1.05078V2.16739H2.10094C1.82953 2.16739 1.60875 2.38817 1.60875 2.65958V3.77619H0.492187C0.220781 3.77619 0 3.99697 0 4.26837V22.22C0 22.4914 0.220781 22.7122 0.492187 22.7122H3.09319C3.28734 22.7122 3.44475 22.5548 3.44475 22.3606C3.44475 22.1665 3.28734 22.0091 3.09319 22.0091H0.703125V4.47931H13.4065V10.9467L11.2695 12.2703C11.3012 12.2175 11.3197 12.1559 11.3197 12.0898C11.3197 11.8957 11.1624 11.7383 10.9682 11.7383H3.14142C2.94727 11.7383 2.78986 11.8957 2.78986 12.0898C2.78986 12.284 2.94727 12.4414 3.14142 12.4414H10.9682C10.9774 12.4414 10.9864 12.4407 10.9955 12.44L9.47962 13.3789H6.93694C6.74278 13.3789 6.58537 13.5363 6.58537 13.7305C6.58537 13.9246 6.74278 14.082 6.93694 14.082H8.58183C8.55473 14.1522 8.53997 14.2278 8.53997 14.306V15.0195H3.14142C2.94727 15.0195 2.78986 15.1769 2.78986 15.3711C2.78986 15.5653 2.94727 15.7227 3.14142 15.7227H8.53992V16.6602H3.14142C2.94727 16.6602 2.78986 16.8176 2.78986 17.0117C2.78986 17.2059 2.94727 17.3633 3.14142 17.3633H8.53992V18.192C8.53992 18.2284 8.54048 18.2646 8.54142 18.3008H3.14142C2.94727 18.3008 2.78986 18.4582 2.78986 18.6523C2.78986 18.8465 2.94727 19.0039 3.14142 19.0039H8.61759C8.79966 19.9464 9.29592 20.8068 10.0398 21.4407L10.7067 22.0091H4.73381C4.53966 22.0091 4.38225 22.1665 4.38225 22.3606C4.38225 22.5548 4.53966 22.7122 4.73381 22.7122H11.5318L13.5238 24.4097C13.6402 24.509 13.7829 24.5585 13.9257 24.5585C14.0684 24.5585 14.2112 24.5089 14.3276 24.4097L17.8116 21.4407C18.7647 20.6284 19.3114 19.4443 19.3114 18.192V17.5265C19.3114 17.3323 19.154 17.1749 18.9598 17.1749C18.7656 17.1749 18.6082 17.3323 18.6082 17.5265V18.192C18.6082 19.238 18.1516 20.2271 17.3555 20.9055L13.9256 23.8284L10.4958 20.9055C9.69966 20.2271 9.24305 19.238 9.24305 18.192V14.3525L13.9256 11.4522L18.6082 14.3525V15.8858C18.6082 16.0801 18.7657 16.2374 18.9598 16.2374V16.2374ZM14.1097 10.7623V4.26837C14.1097 3.99697 13.8889 3.77619 13.6175 3.77619H2.31187V2.87052H15.0153V5.33984C15.0153 5.534 15.1727 5.69141 15.3669 5.69141C15.5611 5.69141 15.7185 5.534 15.7185 5.33984V2.65958C15.7185 2.38817 15.4977 2.16739 15.2263 2.16739H3.92067V1.26172H16.6241V12.2965L15.7185 11.7355V6.98047C15.7185 6.78631 15.5611 6.62891 15.3669 6.62891C15.1727 6.62891 15.0153 6.78631 15.0153 6.98047V11.3L14.2519 10.8272C14.2066 10.7991 14.1588 10.7778 14.1097 10.7623V10.7623Z" fill="black"/>
<path d="M10.7053 16.9991C10.7053 18.7748 12.1499 20.2194 13.9256 20.2194C15.7013 20.2194 17.1459 18.7748 17.1459 16.9991C17.1459 15.2234 15.7013 13.7788 13.9256 13.7788C12.1499 13.7788 10.7053 15.2234 10.7053 16.9991ZM16.4428 16.9991C16.4428 18.3871 15.3136 19.5163 13.9256 19.5163C12.5377 19.5163 11.4084 18.3871 11.4084 16.9991C11.4084 15.6111 12.5377 14.4819 13.9256 14.4819C15.3136 14.4819 16.4428 15.6112 16.4428 16.9991Z" fill="black"/>
<path d="M13.2036 16.6521C13.0664 16.5148 12.8438 16.5148 12.7065 16.6521C12.5692 16.7894 12.5692 17.012 12.7065 17.1492L13.5548 17.9975C13.6235 18.0662 13.7135 18.1005 13.8035 18.1005C13.8934 18.1005 13.9834 18.0662 14.0521 17.9975L15.367 16.6826C15.5043 16.5454 15.5043 16.3227 15.367 16.1855C15.2296 16.0482 15.0071 16.0482 14.8698 16.1855L13.8035 17.2518L13.2036 16.6521Z" fill="black"/>
</svg>
