<svg width="41" height="39" viewBox="0 0 41 39" fill="none" xmlns="http://www.w3.org/2000/svg">
<rect width="40.1081" height="38.6757" rx="5" fill="white"/>
<path d="M30.6168 20.4902C30.6168 20.8056 30.6168 21.156 30.5818 21.4713C30.4767 22.8729 30.1263 24.1694 29.5656 25.3958C29.3554 25.8864 29.0751 26.3419 28.7948 26.7974C26.6924 30.1262 23.0132 32.2987 18.8084 32.2987C17.0214 32.2987 15.3044 31.8782 13.7627 31.1774C9.76815 29.2852 7 25.1856 7 20.4902C7 15.8299 9.66303 11.8354 13.5524 9.9082C13.2371 10.2936 12.9568 10.7492 12.7115 11.1696C12.6765 11.2047 12.6765 11.2397 12.6414 11.2748C12.5013 11.4149 12.3261 11.52 12.1859 11.6602L11.6603 12.1858L11.5552 12.2909C11.5201 12.326 11.4851 12.361 11.4501 12.4311C11.38 12.5012 11.3099 12.5712 11.2749 12.6413C11.1697 12.7815 11.0296 12.9216 10.9245 13.0968C10.4339 13.7275 10.0134 14.4634 9.69807 15.1992L9.59295 15.4095C9.55791 15.5146 9.52287 15.5847 9.48783 15.6898C9.48783 15.7248 9.45279 15.7949 9.45279 15.8299C9.41775 15.9701 9.34767 16.1103 9.31263 16.2504C9.27759 16.3555 9.24255 16.4256 9.24255 16.5307C9.24255 16.5658 9.20751 16.6359 9.20751 16.6709C9.17247 16.776 9.17247 16.8461 9.13743 16.9512C9.06735 17.2315 8.99727 17.5469 8.96223 17.8622C8.96223 17.9323 8.92719 18.0024 8.92719 18.1075C8.92719 18.1776 8.92719 18.2126 8.89215 18.2827C8.89215 18.3878 8.89215 18.4579 8.85711 18.563V19.3339C8.85711 22.5576 10.3288 25.4308 12.6414 27.323C14.4284 28.7947 16.706 29.6707 19.1588 29.6707C21.4014 29.6707 23.5038 28.9348 25.1857 27.7084C26.4121 26.7974 27.4633 25.6411 28.1991 24.3096C28.3042 24.1344 28.3743 23.9592 28.4794 23.784C29.0751 22.5576 29.4255 21.156 29.4605 19.7194V19.369C29.4605 19.0186 29.4605 18.7032 29.4255 18.3878C29.4605 18.3878 29.4605 18.4229 29.4605 18.4229C29.6357 18.563 29.7759 18.7032 29.916 18.8434C30.0562 18.5981 30.1964 18.3528 30.3716 18.1426C30.4767 18.5981 30.5468 19.0536 30.5818 19.5091C30.6168 19.7894 30.6168 20.1398 30.6168 20.4902Z" fill="#EA2227"/>
<path d="M29.4613 19.2988V19.6492C29.4613 21.7516 28.5853 23.5036 28.4802 23.7138C28.4101 23.889 28.305 24.0642 28.1999 24.2394C27.464 25.5709 26.4128 26.7623 25.1865 27.6383C23.5045 28.8647 21.4022 29.6005 19.1596 29.6005C16.6718 29.6005 14.3942 28.7245 12.6422 27.2528C10.3296 25.3607 8.85789 22.4874 8.85789 19.2638V18.4929C8.85789 18.3878 8.85789 18.3177 8.89293 18.2126C8.89293 18.1425 8.89293 18.1074 8.92797 18.0374C8.92797 17.9673 8.96301 17.8972 8.96301 17.7921C8.99805 17.4767 9.06813 17.1964 9.13821 16.881C9.17325 16.7759 9.17325 16.7058 9.20829 16.6007C9.20829 16.5657 9.24333 16.4956 9.24333 16.4606C9.27837 16.3554 9.27837 16.2854 9.31341 16.1802C9.34845 16.0401 9.41853 15.8999 9.45357 15.7598C9.45357 15.7247 9.48861 15.6546 9.48861 15.6196C9.52365 15.5145 9.55869 15.4444 9.59373 15.3393L9.69885 15.1291C10.0142 14.3932 10.4347 13.6574 10.9252 13.0267C11.0304 12.8865 11.1705 12.7463 11.2756 12.5711C11.3457 12.5011 11.3808 12.431 11.4508 12.3609C11.4859 12.3259 11.5209 12.2908 11.556 12.2207L11.6611 12.1156L12.1867 11.59C12.3268 11.4499 12.502 11.3097 12.6422 11.2046C12.6072 11.2396 12.6072 11.2747 12.5721 11.3097C12.5371 11.3447 12.5371 11.3798 12.502 11.4499C11.9064 12.6763 11.5209 14.0779 11.3808 15.6196C11.3457 16.0401 11.3107 16.4606 11.3107 16.881C11.3107 22.2772 14.4643 26.6572 18.3887 26.6572H18.7742C19.3348 26.6572 19.8954 26.5871 20.421 26.4469C23.0841 25.7111 25.0113 23.2933 25.0113 20.4201V20.2449C24.9762 18.5279 24.2404 17.0212 23.0841 15.8999C23.89 15.935 24.6609 16.0401 25.4317 16.2153C26.8684 16.6007 28.1999 17.2665 29.3212 18.1775C29.3562 18.1775 29.3562 18.2126 29.3912 18.2126C29.4263 18.633 29.4613 18.9484 29.4613 19.2988Z" fill="#F69220"/>
<path d="M29.4945 19.2988V19.6492C29.4945 21.8567 28.5133 23.7488 28.5133 23.7488C28.4433 23.924 28.3381 24.0992 28.233 24.2744C27.4972 25.606 26.446 26.7973 25.1846 27.7083C23.3975 28.9698 21.3302 29.6706 19.1227 29.6706C16.74 29.6706 14.3923 28.8296 12.5702 27.3229C10.1525 25.3607 8.78592 22.4173 8.78592 19.2988C8.78592 16.1802 10.1875 13.2369 12.6053 11.2747L12.7104 11.2046C12.6753 11.2396 12.6753 11.2747 12.6403 11.3097C12.6053 11.3447 12.6053 11.3798 12.5702 11.4148C10.2226 13.3771 8.856 16.2503 8.856 19.2988C8.856 22.3823 10.2226 25.2906 12.6053 27.2528C14.4273 28.7595 16.74 29.5655 19.1227 29.5655C21.2951 29.5655 23.3625 28.8997 25.1145 27.6383C26.3409 26.7623 27.3921 25.5709 28.1279 24.2394C28.233 24.0642 28.3031 23.889 28.4082 23.7138C28.4082 23.6788 29.3893 21.8217 29.3893 19.6492V19.2988C29.3893 18.9834 29.3893 18.633 29.3543 18.3177V18.2826C29.3893 18.2826 29.3893 18.3177 29.4244 18.3177L29.4594 18.3527C29.4945 18.6681 29.4945 18.9834 29.4945 19.2988Z" fill="#F69220"/>
<path d="M26.6928 12.8868C26.6928 12.8868 18.2833 11.31 14.3237 18.6333C14.3237 18.6333 15.0245 13.5525 21.0514 11.275L19.86 9.03241C19.86 9.03241 22.2778 6.85994 26.5176 7.42057L26.6928 12.8868Z" fill="#EA2227"/>
<path d="M16.251 16.7759C16.251 16.7759 19.6148 12.3959 27.2885 13.5172L27.1834 10.9593C27.1834 10.9593 30.407 10.8541 33 13.0967L29.8114 17.9322C29.8114 17.9322 27.6039 15.3743 23.0487 15.3042C21.1916 15.2692 18.914 15.5144 16.251 16.7759Z" fill="#F69220"/>
<path d="M12.922 20.7707C12.922 20.7707 9.06762 12.3961 18.0028 7L20.1402 10.9245C20.1402 10.9245 18.7036 11.415 17.1618 12.7465C15.4799 14.1832 13.6578 16.636 12.922 20.7707Z" fill="#F69220"/>
<path d="M18.0042 18.493C18.0042 18.493 17.2684 18.6682 17.3035 18.2828C17.3035 18.1426 17.3735 18.1076 17.4436 18.1426C17.4436 18.0726 17.3035 17.8974 17.6188 17.7922C17.7239 17.6521 17.829 17.5119 17.8641 17.4418C17.8991 17.3367 17.9692 17.2316 18.2495 17.2666C18.5298 17.3367 18.8452 17.617 18.8802 17.6871C19.0554 17.6871 19.2306 17.7222 19.1606 17.7572C19.0905 17.7922 19.0554 17.8623 19.0905 17.8623C19.0905 17.8623 19.1956 17.9324 18.9153 17.9324C18.9153 18.0025 18.9854 18.0025 19.0204 18.0375C19.0554 18.0726 19.0204 18.1076 19.0204 18.1076C19.0204 18.1076 19.0554 18.2478 18.9153 18.2127C18.7751 18.1426 18.7751 18.1076 18.705 18.1076C18.67 18.1076 18.5649 18.1426 18.5649 18.1777C18.5649 18.2127 18.7401 18.3178 18.5298 18.3529C18.4948 18.3879 18.5999 18.423 18.5298 18.458C18.4598 18.493 18.1444 18.7383 18.0042 18.7734C17.8641 18.7734 17.829 18.7383 17.829 18.6682C17.829 18.5982 17.8991 18.5631 18.0042 18.5631C18.0393 18.5281 18.0393 18.493 18.0042 18.493Z" fill="#EC1C24"/>
<path d="M17.9339 19.2648C17.8638 19.2648 17.6533 19.1245 17.7586 19.0543C17.8638 18.9842 18.3548 18.6685 18.46 18.6334C18.5653 18.5983 18.7056 18.7386 18.5653 18.8439C18.46 18.9491 17.9339 19.2648 17.9339 19.2648Z" fill="#EC1C24"/>
<path d="M18.704 18.9143C18.704 18.8441 18.7742 18.5285 18.7742 18.4583C18.7742 18.3882 19.0197 18.3882 18.9496 18.6337C18.9145 18.9143 18.704 18.9844 18.704 18.9143Z" fill="#EC1C24"/>
<path d="M19.021 18.3529C19.021 18.3529 20.3525 18.2828 20.4576 18.3529C20.5627 18.423 21.0183 19.1238 20.9131 19.7545C20.808 20.3852 20.5978 20.5604 19.7568 20.6305C19.7568 20.4203 19.7218 19.8947 19.6167 19.7545C19.5466 19.6144 19.2312 19.299 19.0911 19.299C19.0911 19.4392 19.056 19.8947 19.056 19.8947C19.056 19.8947 18.6355 19.9297 18.5655 19.8246V19.1588C18.5655 19.1588 18.9509 18.8084 18.9859 18.7384C19.056 18.7734 19.056 18.9836 19.5466 18.9486C19.5816 18.8785 19.021 18.9486 19.021 18.3529Z" fill="#EC1C24"/>
<path d="M18.5308 18.9487C18.5308 18.9487 18.1099 19.2995 18.0046 19.3696C17.9696 19.4748 17.8994 19.8607 18.4606 19.8607C18.4957 19.6151 18.5308 18.9487 18.5308 18.9487Z" fill="#EC1C24"/>
<path d="M17.5139 19.4741C17.3737 19.4741 17.2686 19.439 17.3037 19.3339C17.3037 19.2288 17.5139 19.1237 17.619 19.1587C17.7241 19.1938 17.9344 19.2288 17.9344 19.6843C18.0045 19.7894 18.2848 19.9646 18.6001 19.9997C18.9155 20.0347 19.1257 19.9646 19.1257 20.0698V20.7005C19.1257 20.7005 18.7403 20.7005 17.7592 19.9997C17.6891 19.8946 17.619 19.8245 17.619 19.6493C17.619 19.5792 17.5489 19.4741 17.5139 19.4741Z" fill="#EC1C24"/>
<path d="M17.1982 19.5444C17.0228 19.5444 16.5669 19.9303 16.9176 20.1056C17.0228 20.0355 17.093 19.9303 17.093 19.9303C17.093 19.9303 17.0228 20.1407 17.1982 20.2109C17.3736 20.281 17.3034 20.1056 17.4087 20.1056C17.4788 20.2108 17.4788 20.2459 17.584 20.2459C17.6893 20.2459 17.6893 19.9653 17.584 19.825C17.4788 19.6497 17.3736 19.5795 17.1982 19.5444Z" fill="#EC1C24"/>
<path d="M19.1944 19.6143V20.8407C19.1944 20.8407 19.6149 20.7005 19.6499 20.5954C19.6499 20.3851 19.5798 19.6143 19.1944 19.6143Z" fill="#EC1C24"/>
<path d="M18.2137 20.4204C18.2137 20.4204 18.7047 20.7361 18.9853 20.8764C18.9502 20.9465 18.7398 21.192 18.6697 21.192C18.5995 21.157 18.2488 20.6659 18.2137 20.4204Z" fill="#EC1C24"/>
<path d="M15.8663 20.876H16.4976V21.1215H15.9014L15.8663 20.876Z" fill="#EC1C24"/>
<path d="M23.0494 20.771H20.2812L20.7367 21.1214H23.0494V20.771Z" fill="#EC1C24"/>
<path d="M19.7559 20.7358C19.791 20.7008 20.1063 20.9461 20.0362 20.9811C19.9311 21.0162 19.0902 21.4016 19.0201 21.3666C18.95 21.3315 18.95 21.1213 19.0551 21.0862C19.1252 21.0512 19.6158 20.911 19.7559 20.7358Z" fill="#EC1C24"/>
<path d="M18.8099 21.3315C18.7048 21.2614 18.1442 21.822 18.3894 21.8571C18.6347 21.8921 19.2304 21.9972 19.3705 22.0673C19.5107 21.9972 19.6509 21.8921 19.6158 21.822C19.7209 21.822 19.8611 21.9622 20.0013 21.9271C20.1414 21.8571 20.8072 21.3665 20.8422 21.2964C20.7021 21.1913 20.4217 21.0161 20.2816 21.0161C20.1765 21.0161 19.2654 21.5417 18.8099 21.3315Z" fill="#EC1C24"/>
<path d="M18.5281 21.9973C18.5982 21.9973 19.299 22.2776 19.4742 22.2425C19.6494 22.2075 19.6845 22.0323 19.7896 22.0323C19.8947 22.0323 19.9297 22.1374 20.1049 22.0323C20.2801 21.9272 20.5605 21.6819 20.6305 21.6118C20.6305 21.7169 20.6305 22.0323 19.9998 22.3126C19.3691 22.5929 17.8624 23.0134 17.8273 23.2236C17.8974 23.2587 18.0726 23.1886 18.2128 23.1185C18.2829 23.1886 18.423 23.3638 18.388 23.7142C18.3529 24.0296 18.1077 24.5902 18.1077 24.7304V25.6414C18.1077 25.7115 18.2478 26.0969 18.0376 26.0619C17.8624 26.0268 17.7222 26.0268 17.6521 26.0268C17.5821 26.0268 17.4419 26.167 17.3017 26.132C17.1616 26.0969 16.9513 26.0619 16.9513 25.9918C16.9513 25.9217 17.0915 25.9217 17.2317 25.8867C17.3718 25.8516 17.4419 25.7115 17.6872 25.6064C17.6872 25.4312 17.6171 24.2398 17.6171 23.9945C17.6171 23.7492 17.547 23.2236 17.6521 23.0134C17.6872 22.8032 18.2478 21.9973 18.5281 21.9973Z" fill="#EC1C24"/>
<path d="M19.4409 22.7329C19.4409 22.8029 19.8614 23.8892 20.0716 23.9242C20.2468 23.9593 22.0339 23.5738 22.3843 23.6789C22.4894 23.8191 22.6996 24.0644 22.6996 24.2396C22.6996 24.2396 22.7347 24.59 22.6996 24.625C22.7697 24.625 22.9099 24.59 22.9449 24.4849C22.9799 24.3797 22.9449 23.9242 22.9799 23.8191C22.9799 23.749 23.1902 23.2935 22.9099 23.3285C22.6295 23.3285 21.7886 23.3285 21.5083 23.2585C21.228 23.1884 20.6323 23.0833 20.4921 23.1533C20.352 23.2234 20.1768 23.4687 20.1768 23.5388C20.1067 23.5388 20.1067 23.5037 20.1417 23.2935C20.2118 23.1183 20.422 22.5577 20.387 22.2773C20.1768 22.2773 19.4409 22.7329 19.4409 22.7329Z" fill="#EC1C24"/>
<path d="M18.4234 21.0159C18.4585 21.0509 18.4585 21.156 18.5285 21.1911L17.0919 21.086C17.0919 21.086 16.9167 20.9808 16.9868 20.9458L18.4234 21.0159Z" fill="#EC1C24"/>
<path d="M16.8478 20.876H18.2844C18.2844 20.876 18.1793 20.7008 18.1443 20.5957C17.899 20.5957 16.8127 20.6307 16.8127 20.6307C16.8127 20.6307 16.6726 20.6307 16.6726 20.9111C16.6375 20.9811 16.7777 21.0863 16.8478 20.876Z" fill="#EC1C24"/>
<path d="M15.4804 21.121H15.7607C15.7607 21.121 15.8658 21.0859 15.7607 20.9808C15.6556 20.8757 15.4804 20.8056 15.6206 20.5954C15.4804 20.5603 15.2702 20.5253 15.3052 20.9808H15.165C15.165 20.9808 15.13 20.7355 14.7796 20.7355C14.4642 20.7355 13.6233 21.0859 13.6233 21.0859C13.6233 21.0859 14.5343 21.3312 14.7796 21.3312C15.0249 21.3312 15.165 21.121 15.165 21.121H15.2702C15.2702 21.121 15.3052 21.2962 15.3753 21.3663V21.6466C15.3753 21.6466 15.2351 21.6816 15.2702 21.8568C15.3052 21.997 15.4103 21.997 15.4103 21.997C15.4454 21.997 15.4804 21.9619 15.5855 21.9619C15.6556 21.8919 15.6206 21.7167 15.4804 21.6466V21.4363C15.4804 21.4363 15.5855 21.3663 15.5855 21.2962C15.5855 21.2261 15.4804 21.2261 15.4804 21.121Z" fill="#EC1C24"/>
<path d="M17.1968 22.5227C17.3019 22.4526 17.3369 22.3124 17.3369 22.3124V21.4715C17.3369 21.2613 16.9865 21.1211 16.9515 21.1211H16.9164C16.8814 21.1561 16.7763 21.2262 16.7062 21.2262C16.6011 21.2262 16.566 21.2262 16.4609 21.1211C16.1806 21.1211 16.0405 21.4715 16.0054 21.4715C16.0054 21.5416 15.9704 22.1372 16.0054 22.2424C16.0405 22.3475 16.1105 22.4176 16.1456 22.4526C16.0755 22.6628 15.7952 23.7841 16.1806 23.9243V24.0995H17.1617V23.8892C17.5121 23.7491 17.2668 22.803 17.1968 22.5227ZM16.1105 21.4715C16.1456 21.4365 16.2507 21.1561 16.4609 21.1561C16.566 21.2613 16.6361 21.2613 16.7412 21.2613C16.8464 21.2613 16.9164 21.1912 16.9865 21.1561C17.0916 21.1912 17.3019 21.2963 17.3019 21.4365V22.2774C17.3019 22.3124 17.2668 22.3825 17.1968 22.4176H17.0216V22.0672H16.3558V22.4176H16.2156C16.1806 22.3825 16.1105 22.3124 16.1105 22.2424C16.0755 22.1723 16.0755 21.7518 16.1105 21.4715ZM16.7763 23.7841H16.6011C16.566 23.7841 16.531 23.7491 16.531 23.714C16.531 23.679 16.566 23.644 16.6011 23.644H16.7763C16.8113 23.644 16.8464 23.679 16.8464 23.714C16.8464 23.7491 16.8113 23.7841 16.7763 23.7841ZM17.1267 23.8542L16.6712 23.3286L16.2507 23.8542C15.9704 23.7491 16.1456 22.8731 16.2507 22.4876H17.1617C17.2318 22.8731 17.407 23.714 17.1267 23.8542Z" fill="#EC1C24"/>
<path d="M16.9874 22.8735C17.0926 22.7332 16.9523 22.6279 16.9523 22.6279H16.3911C16.2158 22.6279 16.2859 22.8735 16.2859 22.8735L16.6367 23.1891C16.6367 23.1891 16.8822 23.0488 16.9874 22.8735Z" fill="#EC1C24"/>
<path d="M16.7777 23.2236L17.1285 23.6445C17.1285 23.6445 17.0934 23.1535 17.0934 23.0132C16.9882 23.0132 16.7777 23.2236 16.7777 23.2236Z" fill="#EC1C24"/>
<path d="M16.2505 23.0132C16.2505 23.1886 16.2154 23.6445 16.2154 23.6445L16.5661 23.2236C16.5661 23.2236 16.3557 23.0132 16.2505 23.0132Z" fill="#EC1C24"/>
<path d="M16.9178 21.9621H16.9879V21.8919C16.9879 21.8569 16.9529 21.8218 16.9178 21.8218H16.3917C16.3566 21.8218 16.3215 21.8569 16.3215 21.8919V21.9621H16.3917H16.9178Z" fill="#EC1C24"/>
<path d="M16.146 24.1694H16.0759V24.2395C16.0759 24.2746 16.111 24.3096 16.146 24.3096H17.1622C17.1972 24.3096 17.2323 24.2746 17.2323 24.2395V24.1694H17.1622H16.146Z" fill="#EC1C24"/>
</svg>
