<svg width="24" height="26" viewBox="0 0 24 26" fill="none" xmlns="http://www.w3.org/2000/svg">
<path d="M15.4114 2.052C15.3165 1.99051 15.198 1.96869 15.0851 1.99209C14.972 2.0155 14.875 2.08176 14.8175 2.17459C14.8147 2.17915 14.8112 2.18332 14.8082 2.18748C14.676 2.36204 14.4148 2.40449 14.2259 2.2825C14.0393 2.16189 13.7824 2.20355 13.6519 2.37593L13.0513 3.16879C12.9208 3.34117 12.9661 3.57862 13.1524 3.69922C13.2245 3.74584 13.3069 3.76825 13.3885 3.76825C13.5184 3.76825 13.6463 3.71152 13.7264 3.60579L14.131 3.0716C14.5109 3.16939 14.9237 3.09401 15.235 2.86748L15.8429 3.26084C16.0294 3.38144 16.2861 3.33959 16.4168 3.16741C16.5473 2.99503 16.5021 2.75758 16.3155 2.63698L15.4114 2.052Z" fill="#232440"/>
<path d="M19.9698 6.8485L19.5651 7.3825C19.4346 7.55488 19.4799 7.79232 19.6662 7.91292C19.7384 7.95954 19.8208 7.98176 19.9024 7.98176C20.0322 7.98176 20.1602 7.92522 20.2402 7.8193L20.841 7.02663C20.9715 6.85425 20.9263 6.61681 20.7399 6.49621C20.551 6.37401 20.5049 6.1326 20.6373 5.95784C20.6406 5.95368 20.6436 5.94951 20.6472 5.94574C20.7219 5.86382 20.756 5.7569 20.741 5.65078C20.7262 5.54465 20.6637 5.44904 20.5689 5.38774L19.6647 4.80277C19.4782 4.68216 19.2213 4.72402 19.0908 4.89639C18.96 5.06858 19.0055 5.30622 19.1919 5.42682L19.7998 5.81998C19.6757 6.16791 19.7403 6.55195 19.9698 6.8485Z" fill="#232440"/>
<path d="M17.782 15.4038C17.9777 15.4038 18.1595 15.4762 18.2939 15.6079C18.4502 15.7607 18.711 15.7676 18.8765 15.6232C19.0422 15.4788 19.0495 15.2378 18.8932 15.0848C18.6058 14.8036 18.2008 14.6421 17.782 14.6421C16.9392 14.6421 16.2538 15.2757 16.2538 16.0544C16.2538 16.833 16.9392 17.4666 17.782 17.4666C18.1902 17.4666 18.574 17.3198 18.8625 17.053C19.0235 16.9042 19.0235 16.663 18.8625 16.5145C18.7018 16.3657 18.4407 16.3657 18.2797 16.5145C18.1469 16.6372 17.97 16.7049 17.782 16.7049C17.3939 16.7049 17.0781 16.4131 17.0781 16.0544C17.0781 15.6956 17.3939 15.4038 17.782 15.4038V15.4038Z" fill="#232440"/>
<path d="M21.9716 13.3718V10.3213C21.9716 9.28568 21.0598 8.44302 19.9391 8.44302H17.752C17.8799 7.42184 17.5191 6.52364 16.7579 6.0311C16.1131 5.61394 15.2777 5.53916 14.4054 5.82044C13.5809 6.08645 12.8139 6.64544 12.2464 7.39447C11.995 7.72593 11.795 8.07744 11.6499 8.44302H8.96669L14.734 0.831564L22.7369 6.00988L21.5177 7.61921C21.3871 7.79159 21.4324 8.02903 21.6188 8.14964C21.8053 8.27025 22.0622 8.22839 22.1927 8.05601L23.5219 6.30187C23.7221 6.03824 23.6528 5.67305 23.3671 5.48778L15.05 0.106143C14.9117 0.0164826 14.7439 -0.018033 14.5775 0.00894467C14.4111 0.0361207 14.2663 0.121219 14.169 0.249165L12.2614 2.76701V1.24873C12.2614 0.926382 11.9776 0.664144 11.6288 0.664144H1.74362C1.39481 0.664144 1.11104 0.926382 1.11104 1.24873V3.33374C1.11104 3.5442 1.29564 3.7146 1.52318 3.7146C1.75092 3.7146 1.93531 3.5442 1.93531 3.33374V1.42606H3.12942V8.44282H2.03255C2.00014 8.44282 1.96772 8.44362 1.93531 8.44501V4.85718C1.93531 4.64691 1.75092 4.47632 1.52318 4.47632C1.29564 4.47632 1.11104 4.64691 1.11104 4.85718V8.64734C0.452274 8.95837 0 9.59195 0 10.3213V21.7878C0 22.8235 0.911845 23.6661 2.03255 23.6661H5.10981C5.33756 23.6661 5.52194 23.4957 5.52194 23.2853C5.52194 23.075 5.33756 22.9044 5.10981 22.9044H2.03255C1.36627 22.9044 0.824267 22.4035 0.824267 21.7878V10.3213C0.824267 9.83336 1.16471 9.41759 1.63737 9.26604C1.64789 9.26326 1.65841 9.26009 1.6685 9.25652C1.78355 9.22279 1.9059 9.20454 2.03276 9.20454H19.9391C20.6054 9.20454 21.1476 9.70561 21.1476 10.3213V13.319H18.197C16.5648 13.319 15.2367 14.5461 15.2367 16.0547C15.2367 17.563 16.5648 18.7901 18.197 18.7901H21.1476V21.7878C21.1476 22.4035 20.6054 22.9044 19.9391 22.9044H16.7899C16.5622 22.9044 16.3778 23.075 16.3778 23.2853C16.3778 23.4957 16.5622 23.6661 16.7899 23.6661H19.9391C21.0598 23.6661 21.9719 22.8235 21.9719 21.7878V18.7374C22.9043 18.5329 23.6 17.7568 23.6 16.8337V15.2757C23.5998 14.3523 22.9041 13.5763 21.9716 13.3718V13.3718ZM12.9215 7.83166C13.8614 6.59109 15.3704 6.06344 16.2853 6.65516C16.8123 6.99615 17.0443 7.66523 16.9209 8.44282H12.5407C12.6452 8.23256 12.7723 8.02804 12.9215 7.83166ZM11.4371 3.85484L7.96061 8.44302H5.92978V1.42586H11.4371V3.85484ZM3.95369 1.42586H5.10552V8.44282H3.95369V1.42586ZM22.7755 16.8335C22.7755 17.4924 22.1955 18.0284 21.4825 18.0284H18.197C17.0192 18.0284 16.061 17.1429 16.061 16.0545C16.061 14.9663 17.0192 14.0807 18.197 14.0807H21.4825C22.1955 14.0807 22.7755 14.6167 22.7755 15.2757V16.8335Z" fill="#232440"/>
<path d="M10.4656 16.7974C7.72019 16.7974 5.48651 18.8615 5.48651 21.3988C5.48651 23.9359 7.72019 26.0001 10.4656 26.0001C13.2112 26.0001 15.4449 23.9359 15.4449 21.3988C15.4449 18.8615 13.2112 16.7974 10.4656 16.7974V16.7974ZM10.4656 25.2384C8.17461 25.2384 6.31078 23.516 6.31078 21.3988C6.31078 19.2815 8.17461 17.5591 10.4656 17.5591C12.7568 17.5591 14.6206 19.2815 14.6206 21.3988C14.6206 23.516 12.7568 25.2384 10.4656 25.2384Z" fill="#232440"/>
<path d="M10.8171 21.0172H10.1142C9.90702 21.0172 9.73851 20.8615 9.73851 20.6701C9.73851 20.4786 9.90702 20.3229 10.1142 20.3229H11.4594C11.6869 20.3229 11.8715 20.1523 11.8715 19.9421C11.8715 19.7318 11.6869 19.5612 11.4594 19.5612H10.9534V19.2393C10.9534 19.029 10.7688 18.8584 10.5413 18.8584C10.3138 18.8584 10.1292 19.029 10.1292 19.2393V19.5612H10.1142C9.45259 19.5612 8.91425 20.0587 8.91425 20.6701C8.91425 21.2814 9.45259 21.7789 10.1142 21.7789H10.8171C11.0243 21.7789 11.1926 21.9344 11.1926 22.1259C11.1926 22.3173 11.0243 22.473 10.8171 22.473H9.47191C9.24417 22.473 9.05978 22.6436 9.05978 22.8539C9.05978 23.0641 9.24417 23.2347 9.47191 23.2347H10.1292V23.5567C10.1292 23.7669 10.3138 23.9375 10.5413 23.9375C10.7691 23.9375 10.9534 23.7669 10.9534 23.5567V23.2276C11.551 23.1647 12.0171 22.6948 12.0171 22.1259C12.0168 21.5145 11.4787 21.0172 10.8171 21.0172Z" fill="#232440"/>
</svg>
