<svg width="20" height="20" viewBox="0 0 20 20" fill="none" xmlns="http://www.w3.org/2000/svg">
<g id="Show - Bold 20px">
<g id="Show">
<path id="Show_2" fill-rule="evenodd" clip-rule="evenodd" d="M6.87805 10C6.87805 11.6 8.27513 12.9018 10 12.9018C11.7171 12.9018 13.1141 11.6 13.1141 10C13.1141 8.39273 11.7171 7.09091 10 7.09091C8.27513 7.09091 6.87805 8.39273 6.87805 10ZM14.5893 5.53455C15.9551 6.52364 17.118 7.97091 17.9532 9.78182C18.0156 9.92 18.0156 10.08 17.9532 10.2109C16.2829 13.8327 13.3093 16 10 16H9.9922C6.69073 16 3.71707 13.8327 2.04683 10.2109C1.98439 10.08 1.98439 9.92 2.04683 9.78182C3.71707 6.16 6.69073 4 9.9922 4H10C11.6546 4 13.2234 4.53818 14.5893 5.53455ZM10.0009 11.8093C11.0702 11.8093 11.9443 10.9948 11.9443 9.9984C11.9443 8.99477 11.0702 8.18022 10.0009 8.18022C9.90724 8.18022 9.81359 8.18749 9.72773 8.20204C9.69651 9.00204 8.99407 9.64204 8.12773 9.64204H8.08871C8.06529 9.7584 8.04968 9.87477 8.04968 9.9984C8.04968 10.9948 8.92383 11.8093 10.0009 11.8093Z" fill="#7F7F92"/>
</g>
</g>
</svg>
