<svg width="25" height="26" viewBox="0 0 25 26" fill="none" xmlns="http://www.w3.org/2000/svg">
<path d="M12.4555 12.5247C14.3592 12.5247 16.0074 11.9076 17.3545 10.69C18.7012 9.47257 19.3842 7.98301 19.3842 6.26215C19.3842 4.54188 18.7014 3.05212 17.3543 1.83433C16.0072 0.617129 14.359 0 12.4555 0C10.5516 0 8.90357 0.617129 7.55668 1.83453C6.20979 3.05192 5.52679 4.54168 5.52679 6.26215C5.52679 7.98301 6.20979 9.47277 7.55668 10.6902C8.90401 11.9074 10.5522 12.5247 12.4555 12.5247V12.5247ZM8.74884 2.91187C9.78233 1.97775 10.9947 1.52368 12.4555 1.52368C13.9161 1.52368 15.1286 1.97775 16.1623 2.91187C17.1958 3.8462 17.6984 4.94219 17.6984 6.26215C17.6984 7.5825 17.1958 8.67829 16.1623 9.61262C15.1286 10.5469 13.9161 11.001 12.4555 11.001C10.9951 11.001 9.78277 10.5467 8.74884 9.61262C7.71514 8.67849 7.21255 7.5825 7.21255 6.26215C7.21255 4.94219 7.71514 3.8462 8.74884 2.91187Z" fill="#232440"/>
<path d="M24.5781 19.9925C24.5392 19.4859 24.4607 18.9332 24.345 18.3496C24.2282 17.7616 24.0779 17.2058 23.8979 16.6978C23.7118 16.1727 23.4592 15.6542 23.1465 15.1572C22.8223 14.6415 22.4413 14.1924 22.0138 13.8228C21.5667 13.4362 21.0194 13.1253 20.3864 12.8986C19.7556 12.6731 19.0566 12.5588 18.3089 12.5588C18.0152 12.5588 17.7312 12.6677 17.1828 12.9904C16.8452 13.1894 16.4504 13.4195 16.0097 13.674C15.6329 13.891 15.1224 14.0944 14.4919 14.2785C13.8767 14.4584 13.2521 14.5496 12.6354 14.5496C12.0191 14.5496 11.3945 14.4584 10.7788 14.2785C10.149 14.0946 9.63826 13.8912 9.26209 13.6742C8.82556 13.4221 8.43051 13.192 8.08792 12.9902C7.5399 12.6675 7.25591 12.5586 6.96225 12.5586C6.2143 12.5586 5.5155 12.6731 4.88496 12.8988C4.25245 13.1251 3.70487 13.436 3.25737 13.823C2.82984 14.1928 2.44884 14.6417 2.1249 15.1572C1.81259 15.6542 1.55976 16.1725 1.37365 16.698C1.19391 17.206 1.04357 17.7616 0.92681 18.3496C0.810929 18.9324 0.732578 19.4853 0.693732 19.9931C0.655544 20.4896 0.63623 21.0064 0.63623 21.5285C0.63623 22.8857 1.11358 23.9845 2.05489 24.7949C2.98457 25.5945 4.21448 25.9999 5.71061 25.9999H19.5618C21.0575 25.9999 22.2875 25.5945 23.2174 24.7949C24.1589 23.9851 24.6362 22.8859 24.6362 21.5283C24.636 21.0044 24.6165 20.4876 24.5781 19.9925V19.9925ZM22.055 23.6909C21.4407 24.2194 20.6252 24.4763 19.5616 24.4763H5.71061C4.64684 24.4763 3.83129 24.2194 3.21721 23.6911C2.61476 23.1728 2.32198 22.4652 2.32198 21.5285C2.32198 21.0413 2.33976 20.5602 2.37532 20.0984C2.40999 19.6454 2.48088 19.1477 2.58601 18.6188C2.68982 18.0965 2.82194 17.6063 2.97908 17.1626C3.12986 16.7371 3.3355 16.3157 3.59053 15.9099C3.83392 15.523 4.11396 15.1912 4.42298 14.9238C4.71202 14.6736 5.07634 14.4689 5.50563 14.3154C5.90265 14.1733 6.34883 14.0956 6.83321 14.0839C6.89224 14.1122 6.99737 14.1664 7.16768 14.2668C7.51422 14.4709 7.91366 14.7038 8.35523 14.9587C8.85299 15.2455 9.49429 15.5046 10.2605 15.7282C11.0438 15.9571 11.8426 16.0733 12.6356 16.0733C13.4285 16.0733 14.2276 15.9571 15.0105 15.7283C15.7773 15.5044 16.4184 15.2455 16.9168 14.9583C17.3687 14.6972 17.7569 14.4711 18.1035 14.2668C18.2738 14.1666 18.3789 14.1122 18.4379 14.0839C18.9225 14.0956 19.3687 14.1733 19.766 14.3154C20.195 14.4689 20.5593 14.6738 20.8484 14.9238C21.1574 15.191 21.4374 15.5228 21.6808 15.9101C21.9361 16.3157 22.1419 16.7373 22.2925 17.1624C22.4499 17.6067 22.5822 18.0967 22.6858 18.6186C22.7907 19.1484 22.8618 19.6464 22.8965 20.0986V20.099C22.9323 20.5591 22.9503 21.0399 22.9505 21.5285C22.9503 22.4654 22.6575 23.1728 22.055 23.6909V23.6909Z" fill="#232440"/>
</svg>
